<!-- Created with Friction - https://friction.graphics --><svg version="1.1" xmlns:xlink="http://www.w3.org/1999/xlink" viewBox="0 0 3840 2160" xmlns="http://www.w3.org/2000/svg"><g transform="translate(1240.16 2310.69)"><g><animateTransform dur="4s" type="translate" repeatCount="indefinite" calcMode="spline" values="652.82 -550.307;652.82 -550.307;652.82 -1760.39;652.82 -1760.39;652.82 -550.307;652.82 -1760.39;652.82 -1760.39;652.82 -550.307;652.82 -1760.39;652.82 -1760.39;652.82 -550.307" keyTimes="0;0;0.166667;0.167949;0.333333;0.5;0.501282;0.666667;0.833333;0.834615;1" attributeName="transform" keySplines="0 0 1 1;0 0 0.241574 0.993599;0.334127 0.667396 0.667459 1;0.784062 0 1 1;0 0 0.241574 0.993599;0.334127 0.667396 0.667459 1;0.784062 0 1 1;0 0 0.241574 0.993599;0.334127 0.667396 0.667459 1;0.784062 0 1 1"/><g opacity="1" id="isotipo" transform="rotate(0) scale(0.5 0.5) skewX(0) skewY(0) translate(-1240.16 -2310.69)"><g opacity="1" transform="translate(1240.16 2310.69) translate(0 0) rotate(0) scale(0.6 0.6) skewX(0) skewY(0) translate(-1240.16 -2310.69)"><path fill="#ffffff" stroke-linecap="butt" stroke-linejoin="miter" fill-rule="evenodd" id="Path" stroke="none" d="M1240.16 1128.39C1892.69 1128.39 2422.46 1658.17 2422.46 2310.7C2422.46 2963.23 1892.69 3493 1240.16 3493C587.626 3493 57.854 2963.23 57.854 2310.7C57.854 1658.17 587.626 1128.39 1240.16 1128.39ZM1240.16 1841.36C981.12 1841.36 770.815 2051.66 770.815 2310.7C770.815 2569.74 981.12 2780.04 1240.16 2780.04C1499.19 2780.04 1709.5 2569.74 1709.5 2310.7C1709.5 2051.66 1499.19 1841.36 1240.16 1841.36Z" stroke-width="1"/></g></g></g></g></svg>
