<?xml version="1.0" encoding="UTF-8" standalone="no"?>
<svg
   width="100%"
   height="100%"
   viewBox="0 0 4961 3508"
   version="1.1"
   xml:space="preserve"
   style="fill-rule:evenodd;clip-rule:evenodd;stroke-linecap:round;stroke-linejoin:round;stroke-miterlimit:1.5;"
   id="svg19"
   sodipodi:docname="cintesis.svg"
   inkscape:version="1.4.3 (0d15f75, 2025-12-25)"
   xmlns:inkscape="http://www.inkscape.org/namespaces/inkscape"
   xmlns:sodipodi="http://sodipodi.sourceforge.net/DTD/sodipodi-0.dtd"
   xmlns="http://www.w3.org/2000/svg"
   xmlns:svg="http://www.w3.org/2000/svg"><defs
   id="defs19" /><sodipodi:namedview
   id="namedview19"
   pagecolor="#ffffff"
   bordercolor="#cccccc"
   borderopacity="1"
   inkscape:showpageshadow="0"
   inkscape:pageopacity="1"
   inkscape:pagecheckerboard="0"
   inkscape:deskcolor="#d1d1d1"
   showgrid="false"
   inkscape:zoom="0.28392246"
   inkscape:cx="2521.8153"
   inkscape:cy="1775.1325"
   inkscape:window-width="1920"
   inkscape:window-height="1080"
   inkscape:window-x="282"
   inkscape:window-y="156"
   inkscape:window-maximized="0"
   inkscape:current-layer="svg19" />
    <rect
   x="0"
   y="0"
   width="4960.63"
   height="3507.87"
   style="fill:#262626;fill-opacity:1"
   id="rect1" />
    <g
   transform="matrix(2.0379,0,0,2.0379,-556.455,-1143.91)"
   id="g1">
        <path
   d="M1849.82,671.978C2215.6,671.978 2512.57,968.95 2512.57,1334.74C2512.57,1700.52 2215.6,1997.49 1849.82,1997.49C1484.03,1997.49 1187.06,1700.52 1187.06,1334.74C1187.06,968.95 1484.03,671.978 1849.82,671.978ZM1849.82,1109.25C1725.37,1109.25 1624.33,1210.29 1624.33,1334.74C1624.33,1459.18 1725.37,1560.22 1849.82,1560.22C1974.26,1560.22 2075.3,1459.18 2075.3,1334.74C2075.3,1210.29 1974.26,1109.25 1849.82,1109.25Z"
   style="fill:none;stroke:white;stroke-width:0.72px;"
   id="path1" />
    </g>
    <g
   transform="matrix(0.944792,0,0,0.944792,-220.907,61.3191)"
   id="g2"
   style="fill:#030303;fill-opacity:1">
        <circle
   cx="851.34"
   cy="741.959"
   r="273.128"
   style="fill:#030303;fill-opacity:1"
   id="circle1" />
    </g>
    <g
   transform="matrix(0.509883,0,0,0.509883,490.933,763.791)"
   id="g3">
        <circle
   cx="851.34"
   cy="741.959"
   r="273.128"
   style="fill:white;fill-opacity:0.52;"
   id="circle2" />
    </g>
    <g
   transform="matrix(0.21182,0,0,0.21182,423.685,1218.51)"
   id="g4">
        <circle
   cx="851.34"
   cy="741.959"
   r="273.128"
   style="fill:white;fill-opacity:0.77;"
   id="circle3" />
    </g>
    <g
   transform="matrix(0.139645,0,0,0.139645,4540.89,723.604)"
   id="g5">
        <circle
   cx="851.34"
   cy="741.959"
   r="273.128"
   style="fill:white;"
   id="circle4" />
    </g>
    <g
   transform="matrix(0.139645,0,0,0.139645,1279.86,1774.76)"
   id="g6"
   style="fill:#030303;fill-opacity:1">
        <circle
   cx="851.34"
   cy="741.959"
   r="273.128"
   style="fill:#030303;fill-opacity:1"
   id="circle5" />
    </g>
    <g
   transform="matrix(0.107563,0,0,0.107563,4597.59,1558.78)"
   id="g7"
   style="fill:#030303;fill-opacity:1">
        <circle
   cx="851.34"
   cy="741.959"
   r="273.128"
   style="fill:#030303;fill-opacity:1"
   id="circle6" />
    </g>
    <g
   transform="matrix(0.238464,0,0,0.238464,4353.49,898.69)"
   id="g8"
   style="fill:#030303;fill-opacity:1">
        <circle
   cx="851.34"
   cy="741.959"
   r="273.128"
   style="fill:#030303;fill-opacity:1"
   id="circle7" />
    </g>
    <g
   transform="matrix(0.302628,0,0,0.302628,4166.02,440.855)"
   id="g9">
        <circle
   cx="851.34"
   cy="741.959"
   r="273.128"
   style="fill:white;"
   id="circle8" />
    </g>
    <g
   transform="matrix(2.18457,0,0,2.18457,-890.847,-1242.46)"
   id="g10"
   style="stroke:#e6a119;stroke-opacity:1">
        <circle
   cx="1849.82"
   cy="1334.74"
   r="662.756"
   style="fill:none;stroke:#e6a119;stroke-width:0.57px;stroke-opacity:1"
   id="circle9" />
    </g>
    <g
   transform="matrix(2.445,0,0,2.445,-1343.38,-1504.19)"
   id="g11"
   style="stroke:#e6a119;stroke-opacity:1">
        <circle
   cx="1849.82"
   cy="1334.74"
   r="662.756"
   style="fill:none;stroke:#e6a119;stroke-width:0.6px;stroke-opacity:1"
   id="circle10" />
    </g>
    <g
   transform="matrix(0.0708431,0,0,0.0708431,4232.65,2581.91)"
   id="g12">
        <circle
   cx="1849.82"
   cy="1334.74"
   r="662.756"
   style="fill:none;stroke:white;stroke-width:20.59px;"
   id="circle11" />
    </g>
    <g
   transform="matrix(1.33795,0,0,1.33795,-1662.4,835.337)"
   id="g13"
   style="stroke-width:1.84746143;stroke-dasharray:none;stroke:#e6a119;stroke-opacity:1">
        <circle
   cx="1849.82"
   cy="1334.74"
   r="662.756"
   style="fill:none;stroke:#e6a119;stroke-width:1.84746143;stroke-dasharray:none;stroke-opacity:1"
   id="circle12" />
    </g>
    
    <g
   transform="matrix(1,0,0,1,-307.826,41.8121)"
   id="g15">
        <path
   d="M3030.62,3337.86L3885.44,3337.86"
   style="fill:none;stroke:white;stroke-width:3.54px;"
   id="path15" />
    </g>
    
    <g
   transform="matrix(1.06385,0,0,1,-217.376,1533.71)"
   id="g17">
        <path
   d="M251.157,86.724L4820.4,86.724"
   style="fill:none;stroke:white;stroke-opacity:0.39;stroke-width:1.21px;"
   id="path17" />
    </g>
    <g
   transform="matrix(1,0,0,1,0,-86.9443)"
   id="g18">
        <path
   d="M2480.32,134.565L2480.32,3386.03"
   style="fill:none;stroke:white;stroke-opacity:0.39;stroke-width:1.25px;"
   id="path18" />
    </g>
    
<g
   transform="matrix(1.1819575,0,0,1.1819575,-1477.2222,1043.5464)"
   id="g19"
   style="fill:none;fill-opacity:1;stroke:#fbf6f6;stroke-width:1.00088;stroke-dasharray:none;stroke-opacity:0.952569">
        <path
   d="m 1849.82,671.978 c 365.78,0 662.75,296.972 662.75,662.762 0,365.78 -296.97,662.75 -662.75,662.75 -365.79,0 -662.76,-296.97 -662.76,-662.75 0,-365.79 296.97,-662.762 662.76,-662.762 z m 0,437.272 c -124.45,0 -225.49,101.04 -225.49,225.49 0,124.44 101.04,225.48 225.49,225.48 124.44,0 225.48,-101.04 225.48,-225.48 0,-124.45 -101.04,-225.49 -225.48,-225.49 z"
   style="fill:none;fill-opacity:1;stroke:#fbf6f6;stroke-width:1.00088;stroke-dasharray:none;stroke-opacity:0.952569"
   id="path19" />
    </g></svg>
