<?xml version="1.0" encoding="UTF-8" standalone="no"?>
<!-- Generator: Adobe Illustrator 25.3.1, SVG Export Plug-In . SVG Version: 6.00 Build 0)  -->

<svg
   version="1.1"
   id="Layer_1"
   x="0px"
   y="0px"
   viewBox="0 0 595.3 420.9"
   style="enable-background:new 0 0 595.3 420.9;"
   xml:space="preserve"
   sodipodi:docname="hostservidor3.svg"
   inkscape:version="1.4-beta (62f545ba, 2024-04-22)"
   xmlns:inkscape="http://www.inkscape.org/namespaces/inkscape"
   xmlns:sodipodi="http://sodipodi.sourceforge.net/DTD/sodipodi-0.dtd"
   xmlns="http://www.w3.org/2000/svg"
   xmlns:svg="http://www.w3.org/2000/svg"><defs
   id="defs1">
	
	
	
	

	
	
	
	
</defs><sodipodi:namedview
   id="namedview1"
   pagecolor="#ffffff"
   bordercolor="#cccccc"
   borderopacity="1"
   inkscape:showpageshadow="0"
   inkscape:pageopacity="1"
   inkscape:pagecheckerboard="0"
   inkscape:deskcolor="#d1d1d1"
   inkscape:zoom="1.9855535"
   inkscape:cx="297.65"
   inkscape:cy="210.52064"
   inkscape:window-width="1920"
   inkscape:window-height="1080"
   inkscape:window-x="283"
   inkscape:window-y="123"
   inkscape:window-maximized="0"
   inkscape:current-layer="Layer_1" />
<style
   type="text/css"
   id="style1">
	.st0{fill:#191919;}
	.st1{fill:#416063;}
	.st2{fill:#4E4038;}
</style>
<g
   id="XMLID_6_"
   style="enable-background:new 0 0 595.3 420.9;fill:#4b3e2a;fill-opacity:1">
	<rect
   id="XMLID_10_"
   x="118.2"
   y="91.4"
   class="st0"
   width="358.9"
   height="66.7"
   style="fill:#4b3e2a;fill-opacity:1" />
	
	
	
</g><path
   id="XMLID_9_"
   class="st2"
   d="M 383.30078 113.80078 A 11 11 0 0 0 372.30078 124.80078 A 11 11 0 0 0 383.30078 135.80078 A 11 11 0 0 0 394.30078 124.80078 A 11 11 0 0 0 383.30078 113.80078 z M 415.90039 113.80078 A 11 11 0 0 0 404.90039 124.80078 A 11 11 0 0 0 415.90039 135.80078 A 11 11 0 0 0 426.90039 124.80078 A 11 11 0 0 0 415.90039 113.80078 z M 274.19922 117.09961 C 269.99922 117.09961 266.59961 120.59922 266.59961 124.69922 C 266.59961 128.89922 270.09922 132.30078 274.19922 132.30078 L 341.80078 132.30078 C 345.90078 132.30078 349.30039 128.89922 349.40039 124.69922 C 349.40039 120.49922 345.90078 117.09961 341.80078 117.09961 L 274.19922 117.09961 z "
   style="enable-background:new 0 0 595.3 420.9;fill:#ce9619;fill-opacity:1" /><rect
   id="XMLID_1_"
   x="118.2"
   y="174"
   class="st0"
   width="358.89999"
   height="66.699997"
   style="fill:#4b3e2a;fill-opacity:1" /><path
   id="XMLID_2_"
   class="st1"
   d="m 383.30078,196.40039 a 11,11 0 0 0 -11,11 11,11 0 0 0 11,11 11,11 0 0 0 11,-11 11,11 0 0 0 -11,-11 z m 32.59961,0 a 11,11 0 0 0 -11,11 11,11 0 0 0 11,11 11,11 0 0 0 11,-11 11,11 0 0 0 -11,-11 z m -141.70117,3.29883 c -4.2,0 -7.59961,3.50156 -7.59961,7.60156 0,4.2 3.49961,7.59961 7.59961,7.59961 h 67.60156 c 4.1,0 7.49961,-3.39961 7.59961,-7.59961 0,-4.2 -3.49961,-7.60156 -7.59961,-7.60156 z"
   style="fill:#fbce05;fill-opacity:1" />

<rect
   id="XMLID_15_"
   x="118.2"
   y="256.60001"
   class="st0"
   width="358.89999"
   height="66.699997"
   style="fill:#4b3e2a;fill-opacity:1" /><path
   id="XMLID_14_"
   class="st2"
   d="m 383.30078,279 a 11,11 0 0 0 -11,11 11,11 0 0 0 11,11 11,11 0 0 0 11,-11 11,11 0 0 0 -11,-11 z m 32.59961,0 a 11,11 0 0 0 -11,11 11,11 0 0 0 11,11 11,11 0 0 0 11,-11 11,11 0 0 0 -11,-11 z m -141.70117,3.30078 c -4.2,0 -7.59961,3.49961 -7.59961,7.59961 0,4.2 3.49961,7.59961 7.59961,7.59961 h 67.60156 c 4.1,0 7.49961,-3.39961 7.59961,-7.59961 0,-4.2 -3.49961,-7.59961 -7.59961,-7.59961 z"
   style="fill:#ce9619;fill-opacity:1" />
</svg>
