<?xml version="1.0" encoding="UTF-8" standalone="no"?>
<!-- Generator: Adobe Illustrator 25.3.1, SVG Export Plug-In . SVG Version: 6.00 Build 0)  -->

<svg
   version="1.1"
   id="Layer_1"
   x="0px"
   y="0px"
   viewBox="0 0 595.3 420.9"
   style="enable-background:new 0 0 595.3 420.9;"
   xml:space="preserve"
   sodipodi:docname="hostservidor2.svg"
   inkscape:version="1.4-beta (62f545ba, 2024-04-22)"
   xmlns:inkscape="http://www.inkscape.org/namespaces/inkscape"
   xmlns:sodipodi="http://sodipodi.sourceforge.net/DTD/sodipodi-0.dtd"
   xmlns="http://www.w3.org/2000/svg"
   xmlns:svg="http://www.w3.org/2000/svg"><defs
   id="defs1" /><sodipodi:namedview
   id="namedview1"
   pagecolor="#ffffff"
   bordercolor="#cccccc"
   borderopacity="1"
   inkscape:showpageshadow="0"
   inkscape:pageopacity="1"
   inkscape:pagecheckerboard="0"
   inkscape:deskcolor="#d1d1d1"
   inkscape:zoom="1.9855535"
   inkscape:cx="297.65"
   inkscape:cy="213.54247"
   inkscape:window-width="1920"
   inkscape:window-height="1080"
   inkscape:window-x="195"
   inkscape:window-y="136"
   inkscape:window-maximized="0"
   inkscape:current-layer="layer1" />
<style
   type="text/css"
   id="style1">
	.st0{fill:#191919;}
	.st1{fill:#4E4038;}
</style>
<g
   id="XMLID_5_"
   style="fill:#4b3e2a;fill-opacity:1">
	<rect
   id="XMLID_1_"
   x="118.2"
   y="215.3"
   class="st0"
   width="358.9"
   height="66.7"
   style="fill:#4b3e2a;fill-opacity:1" />
	
	
	
</g>
<g
   id="XMLID_6_"
   style="fill:#4b3e2a;fill-opacity:1">
	<rect
   id="XMLID_10_"
   x="118.2"
   y="132.7"
   class="st0"
   width="358.9"
   height="66.7"
   style="fill:#4b3e2a;fill-opacity:1" />
	
	
	
</g><g
   inkscape:groupmode="layer"
   id="layer1"
   inkscape:label="Layer 1"><path
     id="XMLID_9_"
     style="fill:#ce9619;fill-opacity:1"
     class="st1"
     d="m 385.16403,156.31853 a 11,11 0 0 0 -11,11 11,11 0 0 0 11,11 11,11 0 0 0 11,-11 11,11 0 0 0 -11,-11 z m 32.60156,0 a 11,11 0 0 0 -11,11 11,11 0 0 0 11,11 11,11 0 0 0 11,-11 11,11 0 0 0 -11,-11 z m -141.70117,3.30078 c -4.2,0 -7.59961,3.49961 -7.59961,7.59961 0,4.2 3.49961,7.59961 7.59961,7.59961 h 67.59961 c 4.1,0 7.50156,-3.39961 7.60156,-7.59961 0,-4.2 -3.50156,-7.59961 -7.60156,-7.59961 z" /><path
     id="XMLID_2_"
     style="fill:#ce9619;fill-opacity:1"
     class="st1"
     d="m 387.06783,237.4786 a 11,11 0 0 0 -11,11 11,11 0 0 0 11,11 11,11 0 0 0 11,-11 11,11 0 0 0 -11,-11 z m 32.60156,0 a 11,11 0 0 0 -11,11 11,11 0 0 0 11,11 11,11 0 0 0 11,-11 11,11 0 0 0 -11,-11 z m -141.70117,3.30078 c -4.2,0 -7.59961,3.49961 -7.59961,7.59961 0,4.2 3.49961,7.59961 7.59961,7.59961 h 67.59961 c 4.1,0 7.50156,-3.29961 7.60156,-7.59961 0,-4.2 -3.50156,-7.59961 -7.60156,-7.59961 z" /></g>
</svg>
