<?xml version="1.0" encoding="UTF-8" standalone="no"?><!DOCTYPE svg PUBLIC "-//W3C//DTD SVG 1.1//EN" "http://www.w3.org/Graphics/SVG/1.1/DTD/svg11.dtd"><svg width="100%" height="100%" viewBox="0 0 2481 2481" version="1.1" xmlns="http://www.w3.org/2000/svg" xmlns:xlink="http://www.w3.org/1999/xlink" xml:space="preserve" xmlns:serif="http://www.serif.com/" style="fill-rule:evenodd;clip-rule:evenodd;stroke-linejoin:round;stroke-miterlimit:2;"><path d="M1240.16,110.876c156.994,-0 306.549,32.105 442.45,90.103c129.304,55.182 246.249,133.803 345.483,230.512c103.668,101.03 188.008,221.8 246.918,356.21c60.727,138.553 94.431,291.6 94.431,452.456c0,167.126 -36.383,325.821 -101.654,468.59c-67.05,146.662 -164.585,276.517 -284.48,381.441c-89.167,78.034 -190.701,142.277 -301.261,189.388c-135.751,57.847 -285.109,89.863 -441.887,89.863c-136.577,0 -267.524,-24.298 -388.749,-68.803c-134.039,-49.209 -256.193,-123.122 -360.933,-216.211c-109.636,-97.44 -200.192,-215.889 -265.326,-349.006c-73.184,-149.569 -114.273,-317.655 -114.273,-495.262c-0,-151.727 29.987,-296.506 84.354,-428.727c50.026,-121.664 120.693,-232.696 207.632,-328.727c97.708,-107.926 215.969,-196.904 348.579,-260.73c147.921,-71.196 313.696,-111.097 488.716,-111.097Zm0,680.987c-115.727,0 -221.271,43.947 -300.839,116.047c-90.546,82.048 -147.455,200.554 -147.455,332.247c0,117.223 45.09,223.998 118.857,303.912c81.931,88.759 199.24,144.383 329.437,144.383c121.332,-0 231.47,-48.306 312.216,-126.719c83.911,-81.486 136.079,-195.487 136.079,-321.576c-0,-123.013 -49.654,-234.52 -129.996,-315.555c-81.252,-81.953 -193.891,-132.739 -318.299,-132.739Z" style="fill:#fff;"/></svg>