<?xml version="1.0" encoding="UTF-8" standalone="no"?>
<!-- Created with Inkscape (http://www.inkscape.org/) -->

<svg
   width="4122"
   height="1793"
   viewBox="0 0 1090.6125 474.3979"
   version="1.1"
   id="svg1"
   inkscape:version="1.4-beta (62f545ba, 2024-04-22)"
   sodipodi:docname="noss.svg"
   xmlns:inkscape="http://www.inkscape.org/namespaces/inkscape"
   xmlns:sodipodi="http://sodipodi.sourceforge.net/DTD/sodipodi-0.dtd"
   xmlns="http://www.w3.org/2000/svg"
   xmlns:svg="http://www.w3.org/2000/svg">
  <sodipodi:namedview
     id="namedview1"
     pagecolor="#ffffff"
     bordercolor="#cccccc"
     borderopacity="1"
     inkscape:showpageshadow="0"
     inkscape:pageopacity="1"
     inkscape:pagecheckerboard="0"
     inkscape:deskcolor="#d1d1d1"
     inkscape:document-units="mm"
     inkscape:zoom="0.44631734"
     inkscape:cx="2074.7569"
     inkscape:cy="937.67363"
     inkscape:window-width="2336"
     inkscape:window-height="1123"
     inkscape:window-x="121"
     inkscape:window-y="100"
     inkscape:window-maximized="0"
     inkscape:current-layer="layer1" />
  <defs
     id="defs1" />
  <g
     inkscape:groupmode="layer"
     id="layer2"
     inkscape:label="Layer 2">
    <path
       style="display:inline;fill:#9c9256;fill-opacity:1;stroke:#473f31;stroke-width:1;stroke-linecap:round;stroke-linejoin:round;stroke-dasharray:none;stroke-opacity:1;paint-order:stroke fill markers"
       d="M 63.074746,271.27373 H 1018.6915"
       id="path3" />
    <path
       style="display:inline;fill:#9c9256;fill-opacity:1;stroke:#473f31;stroke-width:0.759438;stroke-linecap:round;stroke-linejoin:round;stroke-dasharray:none;stroke-opacity:1;paint-order:stroke fill markers"
       d="M 492.36813,385.63815 H 1043.5159"
       id="path4" />
    <path
       style="display:inline;fill:#9c9256;fill-opacity:1;stroke:#473f31;stroke-width:0.759438;stroke-linecap:round;stroke-linejoin:round;stroke-dasharray:none;stroke-opacity:1;paint-order:stroke fill markers"
       d="M 26.312351,71.95382 H 577.46015"
       id="path5" />
    <path
       style="display:inline;fill:#9c9256;fill-opacity:1;stroke:#473f31;stroke-width:0.759438;stroke-linecap:round;stroke-linejoin:round;stroke-dasharray:none;stroke-opacity:1;paint-order:stroke fill markers"
       d="M 74.914121,436.68185 H 626.06192"
       id="path6" />
    <path
       style="display:inline;fill:#9c9256;fill-opacity:1;stroke:#473f31;stroke-width:0.759438;stroke-linecap:round;stroke-linejoin:round;stroke-dasharray:none;stroke-opacity:1;paint-order:stroke fill markers"
       d="M 171.99446,456.99325 648.73008,180.43033"
       id="path7" />
    <path
       style="display:inline;fill:#9c9256;fill-opacity:1;stroke:#473f31;stroke-width:0.759438;stroke-linecap:round;stroke-linejoin:round;stroke-dasharray:none;stroke-opacity:1;paint-order:stroke fill markers"
       d="M 35.647156,341.98726 512.38277,65.42437"
       id="path8" />
    <path
       style="display:inline;fill:#9c9256;fill-opacity:1;stroke:#473f31;stroke-width:0.652808;stroke-linecap:round;stroke-linejoin:round;stroke-dasharray:none;stroke-opacity:1;paint-order:stroke fill markers"
       d="M 632.16332,248.72028 H 1039.4078"
       id="path3-4" />
    <path
       style="display:inline;fill:#9c9256;fill-opacity:1;stroke:#473f31;stroke-width:0.652808;stroke-linecap:round;stroke-linejoin:round;stroke-dasharray:none;stroke-opacity:1;paint-order:stroke fill markers"
       d="M 285.40182,44.4142 V 451.65877"
       id="path9" />
    <path
       style="display:inline;fill:#9c9256;fill-opacity:1;stroke:#473f31;stroke-width:0.652808;stroke-linecap:round;stroke-linejoin:round;stroke-dasharray:none;stroke-opacity:1;paint-order:stroke fill markers"
       d="M 493.12771,29.143456 V 436.38803"
       id="path10" />
    <path
       style="display:inline;fill:#9c9256;fill-opacity:1;stroke:#473f31;stroke-width:0.582622;stroke-linecap:round;stroke-linejoin:round;stroke-dasharray:none;stroke-opacity:1;paint-order:stroke fill markers"
       d="M 827.09315,136.12822 V 460.51163"
       id="path11" />
    <path
       style="display:inline;fill:#9c9256;fill-opacity:1;stroke:#473f31;stroke-width:0.599906;stroke-linecap:round;stroke-linejoin:round;stroke-dasharray:none;stroke-opacity:1;paint-order:stroke fill markers"
       d="M 973.95869,125.94963 V 469.8646"
       id="path12" />
    <path
       style="display:inline;fill:#9c9256;fill-opacity:1;stroke:#473f31;stroke-width:0.582622;stroke-linecap:round;stroke-linejoin:round;stroke-dasharray:none;stroke-opacity:1;paint-order:stroke fill markers"
       d="M 632.16332,86.528607 V 410.91199"
       id="path13" />
  </g>
  <g
     inkscape:label="Layer 1"
     inkscape:groupmode="layer"
     id="layer1">
    <path
       style="font-weight:800;font-size:75.2749px;font-family:'Beatrice Deck Trial';-inkscape-font-specification:'Beatrice Deck Trial Ultra-Bold';word-spacing:-0.122055px;fill:#cd9718;fill-opacity:1;stroke-width:34.3657;stroke-linecap:round;stroke-linejoin:round;paint-order:stroke fill markers"
       d="M 82.584891,72.275222 V 268.61163 H 142.56163 V 140.32057 l -1.07581,-61.859409 18.01993,55.673459 43.57055,134.47701 h 68.85223 V 72.275222 h -60.2457 V 207.02116 l 1.07581,54.32871 L 212.4897,261.0809 197.15931,211.59337 151.16817,72.275222 Z M 387.57888,271.30117 c 66.96957,0 104.08519,-45.45323 104.08519,-100.85776 0,-55.40453 -34.96399,-100.857729 -103.27834,-100.857729 -64.81791,0 -103.27834,45.991109 -103.27834,100.857729 0,55.40453 31.73658,100.85776 102.47149,100.85776 z m 0.53791,-51.63918 c -28.77808,0 -41.68788,-19.36468 -41.68788,-49.21858 0,-30.3918 14.79248,-49.7565 42.22579,-49.7565 27.43332,0 41.95681,18.82679 41.95681,49.7565 0,30.39181 -14.52349,49.21858 -42.49472,49.21858 z m 103.81597,13.71667 c 20.70948,22.32318 50.83232,38.19146 95.47868,38.19146 54.86662,0 82.031,-25.01272 82.29994,-56.48034 0.26904,-26.35749 -16.4062,-42.49474 -83.10678,-49.48754 -30.39183,-3.4964 -37.65358,-10.75816 -37.65358,-24.74377 0,-10.75815 7.79967,-19.90261 27.43331,-19.90261 22.86111,0 40.34312,9.95131 51.10126,27.43333 l 45.99114,-41.95684 C 649.8088,81.957563 616.99639,68.778818 577.46015,68.778818 c -52.44606,0 -79.61038,26.088539 -79.61038,57.556132 0,28.24017 19.09574,40.61206 78.26562,46.798 34.15716,4.30327 41.14997,11.02712 41.14997,25.55063 0,11.83398 -8.06863,20.44051 -26.62646,20.44051 -22.32321,0 -39.26732,-9.95129 -50.83232,-26.8954 z"
       id="text1"
       aria-label="NOS" />
    <path
       style="font-weight:bold;font-size:75.2749px;font-family:'Beatrice Deck Trial';-inkscape-font-specification:'Beatrice Deck Trial Bold';word-spacing:-0.100703px;fill:#9c9256;fill-opacity:1;stroke-width:22.8242;stroke-linecap:round;stroke-linejoin:round;paint-order:stroke fill markers"
       d="m 330.20808,410.41216 c 53.90873,0 83.78586,-36.58866 83.78586,-81.18785 0,-44.59919 -28.14512,-81.18784 -83.13635,-81.18784 -52.17673,0 -83.13636,37.02165 -83.13636,81.18784 0,44.59919 25.54711,81.18785 82.48685,81.18785 z m 0.433,-41.56817 c -23.1656,0 -33.55764,-15.58809 -33.55764,-39.61968 0,-24.46459 11.90755,-40.05268 33.99065,-40.05268 22.08309,0 33.77414,15.15509 33.77414,40.05268 0,24.46459 -11.69105,39.61968 -34.20715,39.61968 z m 82.70328,-77.07434 h 41.78468 v 116.4775 h 48.71271 v -116.4775 h 42.21769 V 250.20147 H 413.34436 Z m 144.40597,-41.56818 v 158.04568 h 47.84672 v -65.16679 h 9.09302 c 19.91809,0 23.16562,3.89702 30.52666,36.80517 l 6.062,28.36162 h 52.39324 l -7.36104,-30.09362 c -4.97952,-21.21709 -12.34056,-31.60915 -26.41312,-35.50617 -6.06201,-2.16501 -12.34055,-3.46399 -25.3306,-3.897 32.25864,-3.68053 55.64074,-18.40258 55.64074,-44.8157 0,-28.14512 -21.21709,-43.73319 -61.70277,-43.73319 z m 67.7648,40.26917 c 17.96959,0 26.41312,6.92804 26.41312,20.1346 0,14.72205 -8.01053,23.8151 -28.36164,23.8151 h -17.96956 v -43.9497 z m 161.94236,119.94152 c 53.90872,0 83.78586,-36.58866 83.78586,-81.18785 0,-44.59919 -28.14513,-81.18784 -83.13635,-81.18784 -52.17674,0 -83.13637,37.02165 -83.13637,81.18784 0,44.59919 25.54711,81.18785 82.48686,81.18785 z m 0.433,-41.56817 c -23.16559,0 -33.55764,-15.58809 -33.55764,-39.61968 0,-24.46459 11.90755,-40.05268 33.99064,-40.05268 22.08309,0 33.77416,15.15509 33.77416,40.05268 0,24.46459 -11.69107,39.61968 -34.20716,39.61968 z m 83.56915,11.04154 c 16.67057,17.96956 40.91868,30.74312 76.85782,30.74312 44.16619,0 66.03284,-20.13457 66.24924,-45.4652 0.2166,-21.21709 -13.2065,-34.20713 -66.89873,-39.83616 -24.46462,-2.8145 -30.31014,-8.66002 -30.31014,-19.91808 0,-8.66005 6.27852,-16.02106 22.0831,-16.02106 18.40258,0 32.47515,8.01053 41.13517,22.08309 l 37.0217,-33.77416 c -19.05212,-19.70157 -45.46524,-30.31012 -77.29087,-30.31012 -42.21769,0 -64.08427,21.00059 -64.08427,46.33121 0,22.73259 15.37157,32.69164 63.00178,37.67115 27.49561,3.46402 33.12464,8.87654 33.12464,20.56757 0,9.52606 -6.49504,16.4541 -21.43361,16.4541 -17.96958,0 -31.60911,-8.01053 -40.91868,-21.6501 z"
       id="text3"
       aria-label="OTROS" />
    <path
       d="m 121.43529,426.32687 c 4.9019,5.28393 12.03196,9.0399 22.59973,9.0399 12.98687,0 19.41666,-5.92048 19.48032,-13.36884 0.0638,-6.23878 -3.88337,-10.05843 -19.6713,-11.71363 -7.19371,-0.82761 -8.91258,-2.54648 -8.91258,-5.85682 0,-2.54647 1.84619,-4.71092 6.49343,-4.71092 5.41119,0 9.5492,2.35543 12.09562,6.49344 l 10.88604,-9.93117 c -5.60217,-5.79315 -13.36879,-8.91257 -22.727,-8.91257 -12.41392,0 -18.8437,6.17512 -18.8437,13.62347 0,6.68443 4.51994,9.61287 18.52538,11.07709 8.08498,1.01853 9.74019,2.61007 9.74019,6.0478 0,2.80106 -1.90985,4.83824 -6.30245,4.83824 -5.28393,0 -9.29456,-2.35549 -12.03201,-6.36612 z m 64.29776,8.97623 c 13.24152,0 20.24425,-7.95764 20.24425,-18.46172 0,-10.63138 -7.00273,-18.52538 -20.24425,-18.52538 -12.85955,0 -20.11692,7.9576 -20.11692,18.58904 0,10.75872 6.74807,18.39806 20.11692,18.39806 z m 0.0638,-10.44039 c -4.45628,0 -6.36612,-2.6738 -6.30246,-8.14865 0,-5.41119 1.90984,-8.14863 6.30246,-8.14863 4.3926,0 6.23878,2.67378 6.23878,8.14863 0,5.28387 -1.59154,8.14865 -6.23878,8.14865 z m 23.10896,-25.84642 v 35.65021 h 13.4325 v -16.93385 c 0,-5.66583 1.46416,-8.59427 5.28387,-8.59427 3.88331,0 4.96556,2.48281 4.96556,7.44836 v 18.07976 h 13.4325 v -16.87019 c 0,-5.66583 1.59154,-8.65793 5.28387,-8.65793 3.88337,0 4.90189,2.41915 4.90189,7.44836 v 18.07976 h 13.49617 v -22.66334 c 0,-8.46695 -3.62867,-13.68716 -11.58631,-13.68716 -6.74809,0 -10.56774,4.71092 -12.2866,12.35026 -0.38208,-7.83032 -3.75599,-12.35026 -11.26801,-12.35026 -6.93907,0 -10.75878,4.96556 -12.2866,13.17787 v -12.47758 z m 83.77806,36.28681 c 13.24152,0 20.24425,-7.95764 20.24425,-18.46172 0,-10.63138 -7.00273,-18.52538 -20.24425,-18.52538 -12.85955,0 -20.11686,7.9576 -20.11686,18.58904 0,10.75872 6.74807,18.39806 20.11686,18.39806 z m 0.0638,-10.44039 c -4.45626,0 -6.36612,-2.6738 -6.30246,-8.14865 0,-5.41119 1.90986,-8.14863 6.30246,-8.14863 4.39266,0 6.23878,2.67378 6.23878,8.14863 0,5.28387 -1.59148,8.14865 -6.23878,8.14865 z m 20.56255,4.51992 c 4.71092,3.75599 10.56774,6.04782 19.73496,6.04782 10.37676,0 15.78793,-4.32896 15.78793,-10.94971 0,-5.02928 -4.07428,-7.83034 -15.97891,-8.59427 -5.92048,-0.50907 -7.32104,-1.27324 -7.32104,-3.50135 0.0638,-1.84618 1.40056,-3.24674 4.96555,-3.24674 4.83824,0 8.65795,2.10083 11.07702,5.09289 l 7.95767,-9.93111 c -4.64724,-4.13802 -11.14069,-6.23881 -19.09835,-6.23881 -10.24942,0 -15.66061,4.90191 -15.66061,11.01337 0,5.09289 3.56501,7.703 15.3423,8.40329 5.98414,0.50907 7.3847,1.46416 7.3847,3.81965 0,2.03717 -1.46422,3.3104 -4.51992,3.3104 -4.51998,0 -8.21231,-1.97352 -11.26801,-5.28392 z m 89.68261,-30.36634 h -13.49618 v 17.31581 c 0,5.72949 -1.20951,8.59427 -5.0292,8.59427 -3.94698,0 -5.02923,-2.41915 -5.02923,-7.44836 v -18.46172 h -13.62348 v 22.66334 c 0,8.46695 3.75603,13.68714 11.84096,13.68714 6.81175,0 10.37679,-4.3926 11.90461,-12.0956 v 11.39533 h 13.43252 z m 3.94691,35.65021 h 13.55982 v -16.93385 c 0,-5.66583 1.5279,-8.59427 5.47485,-8.59427 4.0107,0 5.22027,2.41915 5.22027,7.44836 v 18.07976 h 13.6235 v -22.66334 c 0,-8.46695 -4.01069,-13.68716 -12.03202,-13.68716 -7.00273,0 -10.82238,4.83824 -12.35026,12.98687 v -12.28658 h -13.49616 z m 56.26055,0 h 36.60514 v -12.22294 h -22.91808 v -9.86745 h 17.63418 v -2.6738 h -17.63418 v -9.80383 h 22.53606 v -11.90463 h -36.22316 z m 37.75104,-5.28387 c 4.71092,3.75599 10.5678,6.04782 19.73496,6.04782 10.37675,0 15.788,-4.32896 15.788,-10.94971 0,-5.02928 -4.07435,-7.83034 -15.97898,-8.59427 -5.92048,-0.50907 -7.32104,-1.27324 -7.32104,-3.50135 0.0638,-1.84618 1.40056,-3.24674 4.96562,-3.24674 4.83823,0 8.65788,2.10083 11.07701,5.09289 l 7.95766,-9.93111 c -4.6473,-4.13802 -11.14074,-6.23881 -19.09833,-6.23881 -10.24949,0 -15.66066,4.90191 -15.66066,11.01337 0,5.09289 3.56499,7.703 15.34234,8.40329 5.98416,0.50907 7.38466,1.46416 7.38466,3.81965 0,2.03717 -1.46418,3.3104 -4.51994,3.3104 -4.51992,0 -8.21229,-1.97352 -11.26801,-5.28392 z m 63.9159,-6.0478 c -1.3369,0.82761 -2.67378,1.27323 -4.39266,1.27323 -2.22809,0 -3.37401,-1.01859 -3.37401,-3.88337 v -10.69504 h 7.76667 v -11.01336 h -7.76667 v -13.75082 l -12.6049,4.64724 v 9.10358 h -6.87541 v 11.01336 h 6.5571 v 13.17786 c 0,8.46689 3.05576,12.09559 12.54125,12.09559 2.86478,0 5.92048,-0.70026 8.14863,-1.59154 z m 40.36107,-24.31854 h -13.49616 v 17.31581 c 0,5.72949 -1.20957,8.59427 -5.02922,8.59427 -3.94698,0 -5.02923,-2.41915 -5.02923,-7.44836 v -18.46172 h -13.62348 v 22.66334 c 0,8.46695 3.75599,13.68714 11.84096,13.68714 6.81175,0 10.37675,-4.3926 11.90463,-12.0956 v 11.39533 h 13.4325 z m 2.92838,17.82509 c 0,11.9683 5.22021,18.20708 14.00546,18.20708 7.83034,0 10.69506,-5.41119 12.03196,-12.85955 l -0.25455,4.64724 v 7.83035 h 13.43252 v -49.91032 h -13.49618 v 22.98164 l 0.0638,1.27324 c -1.40056,-6.74809 -4.64724,-10.44042 -11.20435,-10.44042 -8.08498,0 -14.57841,6.11148 -14.57841,18.27074 z m 26.2284,-0.12759 c 0,5.53851 -2.10084,8.14864 -6.30246,8.14864 -4.51992,0 -6.3661,-2.80111 -6.30244,-8.14864 0,-5.47485 2.10082,-8.14865 6.17512,-8.14865 4.32894,0 6.42978,2.54647 6.42978,8.14865 z m 31.8305,-22.72706 h -16.10623 v 2.29181 h 16.10623 z m -1.20957,5.02927 h -13.7508 v 35.6502 h 13.7508 z m 23.10898,36.28683 c 13.24151,0 20.24425,-7.95766 20.24425,-18.46172 0,-10.6314 -7.00274,-18.52538 -20.24425,-18.52538 -12.85955,0 -20.11692,7.95758 -20.11692,18.58904 0,10.75872 6.74807,18.39806 20.11692,18.39806 z m 0.0638,-10.4404 c -4.45628,0 -6.36613,-2.67379 -6.30246,-8.14864 0,-5.41119 1.90986,-8.14865 6.30246,-8.14865 4.3926,0 6.23878,2.6738 6.23878,8.14865 0,5.28387 -1.59154,8.14864 -6.23878,8.14864 z m 36.52547,-13.43251 c 0,13.11419 6.93907,23.87291 24.3186,23.87291 13.55978,0 21.96307,-7.76668 24.0639,-18.52538 l -14.70574,-2.61013 c -0.70029,5.47485 -3.62867,9.10355 -9.42182,9.10355 -6.68443,0 -9.74019,-4.58358 -9.74019,-11.84095 0,-7.3847 3.43773,-12.03194 9.93117,-12.03194 5.47485,0 8.40323,3.31034 9.23084,8.72154 l 14.51475,-3.31037 c -2.22817,-10.12215 -9.61286,-17.2522 -23.61827,-17.2522 -15.46968,0 -24.57324,10.8861 -24.57324,23.87297 z m 74.67456,-12.92321 c -7.13005,0 -9.61286,4.96554 -10.5678,15.27864 V 399.016 h -13.43244 v 35.6502 h 13.4961 v -16.48819 c 0,-4.51998 2.22817,-6.74809 5.41125,-6.74809 2.54642,0 4.51992,0.82761 6.55711,2.41909 l 4.13795,-14.38737 c -1.52789,-0.57297 -3.37408,-0.95493 -5.60217,-0.95493 z m 4.13784,18.58904 c 0,10.6314 6.23878,18.20708 19.92594,18.20708 8.78526,0 15.34236,-3.37406 18.39806,-9.61286 l -12.15928,-5.34753 c -0.82759,2.67379 -2.86472,4.58366 -6.11146,4.58366 -4.13795,0 -6.5571,-2.03719 -6.68443,-7.0664 h 25.91009 v -2.16451 c 0,-9.74012 -6.17513,-17.37946 -19.22566,-17.37946 -12.79589,0 -20.05326,8.14858 -20.05326,18.78002 z m 19.92594,-8.91257 c 4.20162,0 6.11146,2.35547 6.11146,6.49342 v 0.82761 h -12.66857 c 0.25455,-4.9019 2.48282,-7.32103 6.55711,-7.32103 z m 20.88082,19.35297 c 0,4.71092 3.374,7.95766 9.86745,7.95766 7.63934,0 12.73222,-5.34753 14.45109,-12.35026 l -0.1276,3.75599 c -0.0638,5.98414 2.92838,8.14865 9.16718,8.14865 2.92844,0 5.6659,-0.57297 7.57568,-1.08225 v -9.61281 c -0.50907,0.12759 -1.01859,0.25454 -1.71886,0.25454 -1.59148,0 -2.22811,-0.82761 -2.22811,-2.92843 v -8.97626 c 0,-9.42181 -5.7295,-14.38737 -16.9975,-14.38737 -8.91258,0 -15.59701,3.81965 -20.05327,9.99477 l 11.33167,6.81175 c 1.97351,-4.32894 4.7109,-6.36612 8.40329,-6.36612 3.37401,0 4.77457,1.46422 4.77457,3.31042 0,1.78246 -1.20956,2.61007 -4.96555,3.62865 -5.22027,1.40056 -9.93117,2.10085 -13.81448,3.94697 -3.43773,1.71886 -5.66584,3.94703 -5.66584,7.894 z m 24.50952,-9.16716 c -0.19081,4.58358 -2.80112,7.70294 -7.06639,7.70294 -2.80112,0 -4.26528,-1.27318 -4.26528,-3.18302 0,-2.48281 1.90979,-3.88337 6.42976,-5.02921 3.11939,-0.82761 4.39262,-1.65522 4.90191,-2.80111 z m 41.88895,4.96555 c -1.33684,0.82761 -2.67373,1.27323 -4.3926,1.27323 -2.22817,0 -3.37402,-1.01857 -3.37402,-3.88335 v -10.69506 h 7.76662 V 399.016 h -7.76668 v -13.75081 l -12.60491,4.64725 v 9.10356 h -6.87541 v 11.01336 h 6.55711 v 13.17785 c 0,8.4669 3.0557,12.09562 12.54124,12.09562 2.86472,0 5.92048,-0.70029 8.14859,-1.59154 z m 18.27068,-29.34781 h -16.10625 v 2.29181 h 16.10625 z M 927.783,399.016 h -13.75076 v 35.6502 H 927.783 Z m 29.34776,35.6502 13.94181,-35.6502 h -13.75082 l -5.7295,15.72426 -1.3369,4.77459 -1.27317,-4.77459 -5.7295,-15.72426 h -13.9418 l 13.68716,35.6502 z m 31.89416,0.63663 c 13.24148,0 20.24418,-7.95766 20.24418,-18.46172 0,-10.6314 -7.0027,-18.52538 -20.24418,-18.52538 -12.85954,0 -20.11692,7.95758 -20.11692,18.58904 0,10.75872 6.74809,18.39806 20.11692,18.39806 z m 0.0638,-10.4404 c -4.45632,0 -6.3661,-2.67379 -6.30244,-8.14864 0,-5.41119 1.90979,-8.14865 6.30244,-8.14865 4.3926,0 6.2388,2.6738 6.2388,8.14865 0,5.28387 -1.59156,8.14864 -6.2388,8.14864 z"
       id="text2"
       style="font-weight:bold;font-size:11.3799px;font-family:'Beatrice Deck Trial';-inkscape-font-specification:'Beatrice Deck Trial Bold';word-spacing:-0.014225px;fill:#f3af0f;fill-opacity:1;stroke-width:6.2709;stroke-linecap:round;stroke-linejoin:round;paint-order:stroke fill markers"
       aria-label="Somos un Estudio Creativo" />
  </g>
</svg>
