<?xml version="1.0" encoding="UTF-8" standalone="no"?>
<!-- Created with Inkscape (http://www.inkscape.org/) -->

<svg
   width="3097mm"
   height="2110mm"
   viewBox="0 0 3097 2110"
   version="1.1"
   id="svg1"
   sodipodi:docname="pajarracosdialogo.svg"
   inkscape:version="1.4-beta2 (9aaf4f34, 2024-07-30)"
   xmlns:inkscape="http://www.inkscape.org/namespaces/inkscape"
   xmlns:sodipodi="http://sodipodi.sourceforge.net/DTD/sodipodi-0.dtd"
   xmlns="http://www.w3.org/2000/svg"
   xmlns:svg="http://www.w3.org/2000/svg">
  <sodipodi:namedview
     id="namedview1"
     pagecolor="#ffffff"
     bordercolor="#cccccc"
     borderopacity="1"
     inkscape:showpageshadow="0"
     inkscape:pageopacity="1"
     inkscape:pagecheckerboard="0"
     inkscape:deskcolor="#d1d1d1"
     inkscape:document-units="mm"
     inkscape:zoom="0.078426059"
     inkscape:cx="5827.1448"
     inkscape:cy="2562.9236"
     inkscape:window-width="2320"
     inkscape:window-height="1150"
     inkscape:window-x="93"
     inkscape:window-y="136"
     inkscape:window-maximized="0"
     inkscape:current-layer="layer2" />
  <defs
     id="defs1" />
  <g
     inkscape:groupmode="layer"
     id="layer2"
     inkscape:label="background"
     style="display:inline" />
  <g
     inkscape:label="Layer 1"
     inkscape:groupmode="layer"
     id="layer1">
    <path
       id="path121"
       style="fill:#8f6f31;fill-opacity:1;stroke:none;stroke-width:5.80244"
       d="m 1266.0364,103.61781 c -4.1883,0.0665 -8.3499,0.24149 -12.4829,0.51656 -51.4321,3.42171 -98.3282,22.38979 -134.4628,41.96402 C 1048.5961,189.14952 957.77092,267.51088 890.0161,403.21077 780.74362,606.5463 787.29318,864.93453 829.56861,978.38973 931.20179,976.22095 1206.0314,866.05629 1239.7656,612.32412 1258.0369,475.91239 1296.311,340.253 1461.1914,199.79157 1397.548,125.95823 1328.8608,102.62163 1266.0364,103.61781 Z m -26.9133,68.75133 c 38.4597,-0.76617 80.8099,9.12205 126.29,36.36634 -115.3551,139.62033 -177.2295,220.90454 -203.7331,408.78343 -7.4933,53.11833 -25.2259,94.80776 -48.6813,127.68136 v -3.12382 l -22.9245,-2.43678 c -0.8031,-8.60268 -2.4394,-16.96392 -4.8216,-24.99797 l 20.3468,-10.80493 -7.3449,-18.25108 -22.1757,6.29457 c -4.336,-8.39348 -9.5245,-16.26903 -15.5054,-23.47806 l 14.4897,-17.91756 -13.9139,-13.91383 -17.92,14.48228 c -6.5291,-5.41065 -13.588,-10.20772 -21.0956,-14.28212 l 6.7394,-22.00268 -18.0905,-7.7132 -11.21508,20.10468 c -8.81859,-2.8158 -18.04687,-4.71689 -27.57566,-5.60261 l -2.42939,-22.92452 h -19.67712 l -2.43182,22.92452 c -8.60609,0.79639 -16.9655,2.43787 -25.00297,4.8167 l -10.80242,-20.33942 -18.2536,7.33506 6.2971,22.17322 c -8.39179,4.33765 -16.26726,9.53449 -23.47811,15.51037 l -10.96553,-8.8624 c 6.9882,-54.4683 22.40106,-112.75471 46.88947,-171.61754 45.96993,-112.32816 108.86873,-183.22491 160.65943,-228.91891 36.5203,-29.00087 87.7265,-62.18836 150.0844,-68.32377 5.3333,-0.52472 10.7477,-0.85186 16.2419,-0.96133 z M 956.18727,666.35337 h 8.19017 v 9.81385 c 3.9406,0.21389 7.79846,0.72853 11.55859,1.5199 l 2.53815,-9.47772 7.90841,2.11793 -2.53563,9.47779 c 3.72396,1.21421 7.31852,2.71804 10.76532,4.47067 l 4.90815,-8.50397 7.09537,4.09504 -4.9131,8.50897 c 3.2637,2.13373 6.3564,4.49948 9.2454,7.09533 l 6.952,-6.94704 5.7904,5.79047 -6.947,6.94207 c 2.5942,2.8917 4.9641,5.9868 7.0953,9.25038 l 8.504,-4.90817 4.0951,7.0879 -8.504,4.91067 c 1.7519,3.44887 3.255,7.04432 4.4707,10.77025 l 9.4777,-2.54055 2.118,7.90841 -9.4728,2.53808 c 0.7872,3.75754 1.3035,7.62076 1.515,11.56359 h 9.8138 v 8.18526 h -9.8138 c -0.2139,3.9426 -0.7278,7.80384 -1.515,11.56354 l 9.4728,2.53806 -2.118,7.90846 -9.4777,-2.54307 c -1.2164,3.72608 -2.7178,7.32356 -4.4707,10.77279 l 8.504,4.90812 -4.0951,7.09041 -8.504,-4.91062 c -2.1312,3.26639 -4.5011,6.35851 -7.0953,9.2479 l 6.947,6.94458 -5.7904,5.79039 -6.952,-6.94452 c -2.8894,2.59619 -5.9817,4.96633 -9.2454,7.10023 l 4.9131,8.50405 -7.09537,4.09507 -4.90815,-8.50403 c -3.4468,1.75188 -7.04136,3.25244 -10.76532,4.46825 l 2.53563,9.47776 -7.90841,2.12042 -2.53815,-9.47277 c -3.76013,0.78938 -7.61799,1.30551 -11.55859,1.51493 v 9.81383 h -8.19017 v -9.81383 c -3.94259,-0.20939 -7.80352,-0.72555 -11.56359,-1.51493 l -2.53813,9.47277 -7.90839,-2.12042 2.54306,-9.47776 c -3.72596,-1.21626 -7.326,-2.71576 -10.77277,-4.46825 l -4.90814,8.50403 -7.0904,-4.09507 4.91065,-8.50405 c -3.26382,-2.13372 -6.35854,-4.5042 -9.24791,-7.10023 l -6.94458,6.94452 -5.79046,-5.79039 6.9446,-6.94458 c -2.59401,-2.88925 -4.95908,-5.9817 -7.09285,-9.2479 l -8.51145,4.91062 -4.09509,-7.09041 8.50406,-4.90812 c -1.7518,-3.4488 -3.24766,-7.04665 -4.46335,-10.77279 l -9.48264,2.54307 -2.11307,-7.90846 9.47283,-2.53806 c -0.78946,-3.75996 -1.30571,-7.6208 -1.51494,-11.56354 h -9.8213 v -8.18526 h 9.8213 c 0.20935,-3.94255 0.72548,-7.80583 1.51494,-11.56359 l -9.47283,-2.53808 2.11307,-7.90841 9.48264,2.54303 c 1.21428,-3.72583 2.71091,-7.32392 4.46335,-10.77273 l -8.50406,-4.91067 4.09509,-7.0879 8.51145,4.91066 c 2.13377,-3.26356 4.49884,-6.36121 7.09285,-9.25287 l -6.9446,-6.94207 5.79046,-5.79047 6.94458,6.94704 c 2.88937,-2.59599 5.98409,-4.96186 9.24791,-7.09533 l -4.91065,-8.50897 7.0904,-4.09504 4.90814,8.50397 c 3.44677,-1.75187 7.04681,-3.2526 10.77277,-4.46823 l -2.54306,-9.48023 7.90839,-2.11793 2.53813,9.47772 c 3.76007,-0.78932 7.621,-1.30639 11.56359,-1.5199 z" />
    <path
       style="fill:#423a2a;fill-opacity:1;stroke-width:33.6205;stroke-linecap:round;stroke-linejoin:round;paint-order:stroke fill markers"
       d="m 1431.0598,169.40503 c 81.6583,-13.05197 377.0156,16.40358 409.7995,24.51202 l -27.0484,4.85486 c -71.6671,-8.45143 -285.4419,-10.56684 -387.8931,30.719 -10.9154,-13.6677 -9.9298,-47.67104 5.142,-60.08588 z"
       id="path105"
       sodipodi:nodetypes="ccccc" />
    <path
       id="path128"
       style="fill:#664201;fill-opacity:1;stroke:none;stroke-width:2.87674"
       d="m 760.44396,1013.0557 c -7.62428,24.3915 -7.2479,49.4687 -4.66612,69.679 7.28577,40.2984 27.25775,96.3172 77.86898,151.9328 74.45017,86.9178 195.08448,130.1402 255.10628,130.9029 17.1896,-47.3773 15.4509,-194.1608 -95.82075,-255.1749 -59.79787,-32.865 -115.66768,-74.8435 -151.09507,-176.21629 -48.56323,17.28932 -71.59069,47.51609 -81.39332,78.87649 z m 65.61004,33.5865 c 112.76952,123.9174 193.5881,91.2966 210.8635,251.035 -96.30861,-6.5101 -263.32296,-148.4803 -210.8635,-251.035 z"
       sodipodi:nodetypes="scccccsccc" />
    <path
       id="path129"
       style="fill:#8f6f31;fill-opacity:1;stroke:none;stroke-width:2.87674"
       d="m 851.90393,1174.8961 c 18.68369,89.1911 141.13636,181.3705 218.30437,186.5867 -5.8355,-53.9553 -18.9446,-85.9297 -38.0618,-109.4376 3.177,12.9323 5.7317,27.4771 7.5452,44.245 -58.12824,-3.9292 -141.9468,-57.2221 -187.78777,-121.3941 z" />
    <path
       id="path132"
       style="fill:#ffff95;fill-opacity:1;stroke:none;stroke-width:2.87674"
       d="m 840.04952,931.25768 c 35.47163,99.41352 90.84619,141.01922 150.10889,173.58972 26.84509,14.7202 47.26309,34.458 62.62949,56.5624 -13.5256,-46.7185 -41.5438,-93.4595 -93.14605,-121.755 -44.2555,-24.3228 -86.33449,-53.70876 -119.59233,-108.39712 z" />
    <path
       id="path130"
       style="fill:#eeb811;fill-opacity:1;stroke:none;stroke-width:2.87674"
       d="m 843.2238,935.5666 c -48.56323,17.28932 -71.58979,47.51612 -81.39243,78.8765 -7.62428,24.3915 -7.24772,49.4677 -4.66594,69.6781 5.07712,28.0822 16.35271,63.8057 39.82629,101.6997 -4.2951,-13.123 -7.30878,-25.4262 -9.31219,-36.5072 -2.58175,-20.2103 -2.95579,-45.2866 4.66845,-69.6781 9.76596,-31.2428 32.67302,-61.3529 80.86354,-78.6739 -11.09002,-18.6419 -21.17394,-40.17518 -29.98772,-65.3951 z" />
    <path
       d="m 822.089,992.32904 c -4.52665,0.9095 -8.93298,-2.02201 -9.8426,-6.54921 -0.90965,-4.52727 2.02216,-8.93434 6.54882,-9.84385 4.52625,-0.90942 8.93421,2.02299 9.84385,6.55028 0.90967,4.52718 -2.0238,8.93335 -6.55007,9.84278 m 24.09627,-11.67105 -0.65558,-3.26233 -3.88175,0.36061 c -0.41988,-1.39974 -0.96973,-2.73201 -1.63275,-3.9842 l 3.0148,-2.47013 -1.82629,-2.78132 -3.46665,1.78224 c -0.99914,-1.24686 -2.12187,-2.37974 -3.35343,-3.37598 l 1.80449,-3.45427 -2.77005,-1.84322 -2.48945,2.9979 c -1.26223,-0.67938 -2.59182,-1.23954 -3.97308,-1.6647 l 0.38498,-3.87324 -3.25764,-0.6757 -1.18905,3.70661 c -1.55677,-0.17328 -3.15032,-0.18071 -4.7595,-0.0151 l -1.16638,-3.72 -3.26181,0.65531 0.35916,3.88224 c -1.39995,0.41846 -2.73123,0.96973 -3.98517,1.6323 l -2.46844,-3.01294 -2.78211,1.82478 1.78259,3.46639 c -1.2465,0.99822 -2.38013,2.12159 -3.37672,3.35318 l -3.45286,-1.80389 -1.84448,2.77046 2.99885,2.48819 c -0.67961,1.26319 -1.23978,2.59285 -1.66493,3.9732 l -3.87233,-0.38405 -0.67632,3.25827 3.70671,1.18775 c -0.17305,1.5573 -0.18073,3.15085 -0.0134,4.76092 l -3.71899,1.16652 0.65547,3.26241 3.88094,-0.36106 c 0.42036,1.40054 0.96988,2.73108 1.63373,3.98491 l -3.01385,2.46931 1.82642,2.78099 3.46451,-1.78173 c 1.00001,1.24661 2.12262,2.38028 3.35404,3.37648 l -1.80347,3.4529 2.76972,1.8427 2.48813,-2.9974 c 1.26309,0.6796 2.59271,1.2394 3.97373,1.6661 l -0.38452,3.8728 3.25739,0.6771 1.18868,-3.7086 c 1.55776,0.1733 3.15131,0.1812 4.75998,0.015 l 1.16805,3.7203 3.26196,-0.6555 -0.36109,-3.8823 c 1.40041,-0.4194 2.7309,-0.9693 3.98548,-1.6332 l 2.46806,3.0134 2.78173,-1.8246 -1.78274,-3.4673 c 1.24702,-0.9987 2.37963,-2.12193 3.37619,-3.35363 l 3.45392,1.80463 1.84368,-2.76971 -2.99871,-2.48983 c 0.68025,-1.26229 1.23944,-2.59202 1.66545,-3.97142 l 3.87361,0.38498 0.67631,-3.25811 -3.70831,-1.18998 c 0.17304,-1.55647 0.18117,-3.14953 0.0135,-4.75905 z"
       style="fill:#8f6f31;fill-opacity:1;fill-rule:nonzero;stroke:none;stroke-width:0.426453"
       id="path134" />
    <path
       id="path106"
       style="fill:#423a2a;fill-opacity:1;stroke-width:33.6205;stroke-linecap:round;stroke-linejoin:round;paint-order:stroke fill markers"
       d="M 421.28537,64.841965 C 376.18791,58.450473 336.93688,51.563953 306.09306,52.393018 394.15823,303.97556 692.80283,527.35792 793.7457,562.66728 853.49748,546.34897 936.52013,466.56866 969.79456,382.28696 904.45364,220.69026 618.70023,92.821565 421.28537,64.841965 Z M 885.51949,365.66753 C 860.21585,429.75984 803.83567,487.2697 758.39751,499.67895 703.75986,477.29182 464.56525,303.08892 380.80656,114.80039 c 112.53106,-3.0242 431.63693,106.31577 504.71293,250.86714 z"
       sodipodi:nodetypes="scccscccc" />
    <path
       id="path107"
       style="fill:#8f6f31;fill-opacity:1;stroke-width:25.5667;stroke-linecap:round;stroke-linejoin:round;paint-order:stroke fill markers"
       d="m 776.6993,191.23995 c 14.66605,83.31773 80.94231,186.87252 172.00674,233.44621 8.20553,-13.81835 15.41433,-28.0264 21.08868,-42.39868 C 940.49231,309.8193 866.80932,244.1752 776.6993,191.23995 Z"
       sodipodi:nodetypes="cccc" />
    <path
       id="path108"
       style="fill:#664201;fill-opacity:1;stroke-width:38.6542;stroke-linecap:round;stroke-linejoin:round;paint-order:stroke fill markers"
       d="M 254.18704,215.95975 C 203.62457,229.59234 159.019,240.05878 126.78883,254.8799 333.62675,481.01229 750.31827,582.12816 872.98891,573.81599 928.77459,529.55129 980.46805,407.6798 977.53749,303.54165 835.40532,162.25947 475.52416,156.28285 254.18704,215.95975 Z M 880.9365,324.07533 C 883.16515,403.26742 849.56656,489.5514 807.14421,523.2125 739.2652,524.2496 407.65287,448.24312 233.98351,287.07167 351.5729,232.99814 738.33392,204.3088 880.9365,324.07533 Z"
       sodipodi:nodetypes="scccscccc" />
    <path
       id="path109"
       style="fill:#eeb811;fill-opacity:1;stroke-width:29.3946;stroke-linecap:round;stroke-linejoin:round;paint-order:stroke fill markers"
       d="m 687.04128,188.8873 c 53.17279,81.44421 170.05182,160.94758 287.37281,169.0091 2.42668,-18.31715 3.62333,-36.59573 3.12361,-54.35421 C 913.7987,240.18418 806.22946,204.10496 687.04128,188.8873 Z"
       sodipodi:nodetypes="cccc" />
    <path
       d="m 1264.3076,246.11282 c -7.5755,1.52222 -14.9496,-3.38379 -16.4719,-10.96006 -1.5223,-7.5765 3.3841,-14.95183 10.9595,-16.4739 7.5749,-1.52196 14.9516,3.38555 16.4739,10.96205 1.5223,7.57628 -3.3868,14.95008 -10.9615,16.47191 m 40.3254,-19.53162 -1.0972,-5.4596 -6.496,0.60331 c -0.7028,-2.34239 -1.623,-4.57205 -2.7326,-6.6676 l 5.0454,-4.13376 -3.0563,-4.65458 -5.8015,2.98255 c -1.6719,-2.08656 -3.5511,-3.98244 -5.612,-5.64968 l 3.0198,-5.78071 -4.6359,-3.08466 -4.1659,5.01684 c -2.1125,-1.1369 -4.3376,-2.07427 -6.6491,-2.78576 l 0.6442,-6.48202 -5.4518,-1.1307 -1.9898,6.20298 c -2.6052,-0.28952 -5.2721,-0.30254 -7.9651,-0.0225 l -1.952,-6.22549 -5.4586,1.09667 0.6014,6.49694 c -2.3429,0.70049 -4.5708,1.62293 -6.6694,2.73175 l -4.131,-5.04215 -4.6558,3.05365 2.9831,5.80111 c -2.086,1.67064 -3.9832,3.55056 -5.6509,5.61167 l -5.7784,-3.01885 -3.0869,4.63648 5.0187,4.16401 c -1.1373,2.11387 -2.0748,4.33912 -2.7864,6.64914 l -6.4802,-0.64306 -1.1318,5.45276 6.2031,1.98773 c -0.2897,2.60612 -0.3027,5.27297 -0.023,7.96738 l -6.2238,1.95217 1.097,5.45971 6.4947,-0.60382 c 0.7034,2.34394 1.6232,4.57057 2.7341,6.66888 l -5.0437,4.13239 3.0567,4.65403 5.7979,-2.98178 c 1.6734,2.08634 3.5521,3.98361 5.613,5.65055 l -3.0182,5.77868 4.6353,3.08383 4.164,-5.01639 c 2.1137,1.13744 4.3388,2.07419 6.65,2.7882 l -0.6437,6.48135 5.4513,1.1331 1.9892,-6.20637 c 2.6071,0.28983 5.2739,0.30274 7.966,0.0203 l 1.9548,6.2259 5.4588,-1.09697 -0.6043,-6.49717 c 2.3435,-0.7021 4.5701,-1.62202 6.6698,-2.73316 l 4.1303,5.04307 4.6552,-3.05353 -2.9835,-5.80261 c 2.087,-1.6714 3.9824,-3.55122 5.6502,-5.61246 l 5.78,3.02018 3.0856,-4.63515 -5.0183,-4.16677 c 1.1383,-2.11248 2.0742,-4.33785 2.787,-6.64623 l 6.4827,0.64394 1.1318,-5.45249 -6.206,-1.99141 c 0.2898,-2.60484 0.3032,-5.27093 0.023,-7.96446 z"
       style="fill:#7e710c;fill-opacity:1;fill-rule:nonzero;stroke:none;stroke-width:0.713674"
       id="path110" />
    <path
       d="m 960.07216,706.12462 c -26.06017,0 -47.18489,21.12331 -47.18489,47.18361 0,26.05832 21.12472,47.18353 47.18489,47.18353 26.05463,0 47.18624,-21.12521 47.18624,-47.18353 0,-26.0603 -21.13161,-47.18361 -47.18624,-47.18361 z m -0.36249,29.09056 c 0.61142,-0.0135 1.2293,0.0151 1.85183,0.0593 9.95919,0.82358 17.36537,9.56256 16.5458,19.52452 -0.82502,9.95916 -9.56816,17.36397 -19.52598,16.54443 -9.95787,-0.82096 -17.36798,-9.56263 -16.54297,-19.52313 0.7696,-9.33553 8.50082,-16.43104 17.67132,-16.60504 z"
       style="fill:#7e710c;fill-opacity:1;fill-rule:nonzero;stroke:none;stroke-width:0.940566"
       id="path111" />
    <path
       d="m 936.76219,323.7914 c -5.2045,1.04566 -10.27053,-2.32469 -11.31635,-7.52973 -1.04583,-5.20514 2.32496,-10.27204 7.52931,-11.31773 5.20399,-1.04556 10.27197,2.32595 11.31778,7.53106 1.04581,5.20489 -2.32688,10.27082 -7.53074,11.3164 m 27.70401,-13.41847 -0.75376,-3.75078 -4.4629,0.41465 c -0.48283,-1.6094 -1.11488,-3.1411 -1.87725,-4.58078 l 3.46615,-2.84001 -2.0997,-3.19774 -3.98571,2.04912 c -1.1487,-1.43354 -2.43946,-2.73607 -3.8555,-3.88153 l 2.07475,-3.97138 -3.18484,-2.11918 -2.86224,3.44668 c -1.45107,-0.78111 -2.97986,-1.42507 -4.56791,-1.91383 l 0.44238,-4.45328 -3.74531,-0.77682 -1.3671,4.26157 c -1.7898,-0.199 -3.62205,-0.20802 -5.47208,-0.0134 l -1.34103,-4.27695 -3.75024,0.75347 0.41322,4.46341 c -1.60951,0.48131 -3.14008,1.11503 -4.58179,1.87678 l -2.83807,-3.46406 -3.19866,2.09794 2.04947,3.98533 c -1.43311,1.14784 -2.73643,2.43938 -3.88221,3.85529 l -3.96989,-2.07395 -2.12059,3.1853 3.44784,2.86067 c -0.78137,1.4524 -1.4254,2.98103 -1.9142,4.56818 l -4.45215,-0.44191 -0.77758,3.74609 4.26172,1.36567 c -0.19901,1.79033 -0.20805,3.62255 -0.0135,5.47364 l -4.27584,1.34113 0.7536,3.75098 4.462,-0.41508 c 0.48313,1.61025 1.11518,3.13991 1.87828,4.58152 l -3.46499,2.83909 2.09981,3.19738 3.98318,-2.04859 c 1.14982,1.43329 2.44046,2.73683 3.8563,3.88212 l -2.07356,3.96985 3.1845,2.11872 2.8607,-3.4463 c 1.45213,0.78136 2.98093,1.42503 4.56871,1.91547 l -0.44191,4.45275 3.74507,0.77849 1.36666,-4.26387 c 1.79101,0.19899 3.6231,0.20803 5.47263,0.0134 l 1.34292,4.27725 3.75035,-0.75365 -0.41512,-4.46348 c 1.61017,-0.48249 3.13987,-1.11438 4.58223,-1.87781 l 2.83766,3.46467 3.19818,-2.09779 -2.04963,-3.98647 c 1.43366,-1.14832 2.73596,-2.43978 3.88173,-3.8558 l 3.97103,2.07482 2.11968,-3.18438 -3.44769,-2.86261 c 0.78209,-1.45146 1.42499,-2.98032 1.9148,-4.56624 l 4.45354,0.44236 0.77766,-3.74603 -4.26357,-1.36808 c 0.19899,-1.78947 0.20801,-3.62105 0.0135,-5.47161 z"
       style="fill:#8f6f31;fill-opacity:1;fill-rule:nonzero;stroke:none;stroke-width:0.490302"
       id="path133" />
    <path
       id="path34"
       d="m 2268.5511,555.96448 c 0,0 18.5473,23.29551 44.7703,62.02822 v 0 c 1.9014,2.84697 3.8833,5.69369 5.8707,8.71247 v 0 c 6.9829,10.52764 14.487,22.08682 22.2537,34.42483 v 0 c 22.2537,35.44612 46.7523,77.9816 69.1832,124.39027 v 0 c 1.9873,4.14138 4.0553,8.36849 5.9565,12.59074 v 0 c 13.3697,28.47328 25.8744,58.32188 36.488,88.77228 v 0 c 15.0078,43.04607 26.223,87.30061 31.0519,130.94861 v 0 c 3.0238,26.7438 3.6255,53.3159 1.1286,79.1042 v 0 c -0.5196,5.7795 -1.214,11.5592 -2.0733,17.2578 v 0 h -0.1737 c -1.4664,0.4303 -9.7489,2.6698 -23.2903,5.0008 v 0 c -18.7243,3.1907 -47.3644,6.5583 -81.3544,5.087 v 0 c -27.9473,-1.2039 -59.52,-5.5167 -92.1247,-15.7864 v 0 C 2183.8381,1076.3206 2070.744,986.34487 2025.5389,755.75766 v 0 c -9.5709,-48.82574 -27.3445,-95.84136 -55.5551,-136.81422 v 0 c -30.7081,-44.59842 -77.4655,-90.06174 -144.4949,-103.08737 v 0 -22.68852 c 0,0 24.8479,0 63.9246,-34.94063 v 0 c 14.32,-12.76267 29.9345,-23.89199 47.2733,-32.00263 v 0 c 22.2384,-10.27482 53.6345,-20.38799 91.1943,-20.38799 v 0 c 66.4783,0.005 152.2518,31.67404 240.6702,150.12818"
       style="fill:#eeb811;fill-opacity:1;stroke:none;stroke-width:5.0565" />
    <path
       id="path128-7"
       style="fill:#664201;fill-opacity:1;stroke:none;stroke-width:2.87674"
       d="m 2542.9011,1149.8055 c 7.6243,24.3915 7.2481,49.4686 4.6663,69.6789 -7.2859,40.2984 -27.2577,96.3173 -77.8691,151.9329 -74.4502,86.9179 -195.0844,130.1402 -255.1064,130.9029 -17.1894,-47.3772 -15.4509,-194.1608 95.8207,-255.175 59.798,-32.865 115.6678,-74.8434 151.0952,-176.2162 48.5632,17.2893 71.5906,47.5161 81.3933,78.8765 z m -65.61,33.5865 c -112.7695,123.9172 -193.5881,91.2965 -210.8637,251.0351 96.309,-6.5102 263.3232,-148.4804 210.8637,-251.0351 z"
       sodipodi:nodetypes="scccccsccc" />
    <path
       id="path129-0"
       style="fill:#8f6f31;fill-opacity:1;stroke:none;stroke-width:2.87674"
       d="m 2451.441,1311.6458 c -18.6835,89.1911 -141.1361,181.3706 -218.304,186.5868 5.8354,-53.9554 18.9443,-85.9297 38.0617,-109.4377 -3.1769,12.9323 -5.7319,27.4772 -7.5454,44.2451 58.1284,-3.9292 141.9468,-57.2221 187.7877,-121.3942 z" />
    <path
       id="path132-3"
       style="fill:#ffff95;fill-opacity:1;stroke:none;stroke-width:2.87674"
       d="m 2463.2956,1068.0074 c -35.4716,99.4136 -90.8461,141.0193 -150.109,173.5897 -26.8451,14.7202 -47.2631,34.458 -62.6293,56.5625 13.5255,-46.7186 41.5437,-93.4596 93.146,-121.755 44.2555,-24.3229 86.3345,-53.7088 119.5923,-108.3972 z" />
    <path
       id="path130-9"
       style="fill:#eeb811;fill-opacity:1;stroke:none;stroke-width:2.87674"
       d="m 2460.1213,1072.3163 c 48.5632,17.2893 71.5898,47.5162 81.3924,78.8766 7.6241,24.3915 7.2476,49.4677 4.6659,69.678 -5.0771,28.0822 -16.3525,63.8058 -39.8261,101.6998 4.2951,-13.1232 7.3088,-25.4262 9.3121,-36.5072 2.582,-20.2103 2.9558,-45.2866 -4.6683,-69.6782 -9.766,-31.2427 -32.6732,-61.3528 -80.8636,-78.6738 11.0899,-18.6419 21.1738,-40.1752 29.9876,-65.3952 z" />
    <path
       d="m 2481.2561,1129.0788 c 4.5268,0.9095 8.9329,-2.022 9.8426,-6.5492 0.9097,-4.5273 -2.0219,-8.9344 -6.5489,-9.8439 -4.5261,-0.9094 -8.9341,2.023 -9.8437,6.5503 -0.9097,4.5272 2.0239,8.9333 6.55,9.8428 m -24.0962,-11.6711 0.6557,-3.2623 3.8815,0.3606 c 0.4198,-1.3997 0.9698,-2.732 1.6328,-3.9842 l -3.0147,-2.4701 1.8262,-2.7813 3.4669,1.7822 c 0.9989,-1.2469 2.1215,-2.3797 3.3533,-3.3759 l -1.8045,-3.4543 2.7698,-1.8433 2.4896,2.9979 c 1.2624,-0.6793 2.5919,-1.2395 3.9731,-1.6647 l -0.3851,-3.8732 3.2578,-0.6757 1.1889,3.7066 c 1.5569,-0.1733 3.1504,-0.1807 4.7598,-0.015 l 1.1662,-3.72 3.2616,0.6554 -0.3591,3.8822 c 1.4,0.4184 2.7313,0.9697 3.9854,1.6323 l 2.4682,-3.013 2.7822,1.8248 -1.7824,3.4664 c 1.2462,0.9982 2.38,2.1216 3.3766,3.3532 l 3.4529,-1.8039 1.8443,2.7705 -2.9988,2.4882 c 0.6798,1.2631 1.2399,2.5928 1.665,3.9731 l 3.8725,-0.384 0.6762,3.2583 -3.7067,1.1877 c 0.1738,1.5573 0.1805,3.1509 0.024,4.7609 l 3.719,1.1666 -0.6555,3.2624 -3.881,-0.3611 c -0.4204,1.4006 -0.9699,2.7311 -1.6335,3.9849 l 3.0138,2.4693 -1.8263,2.781 -3.4647,-1.7817 c -1,1.2466 -2.1226,2.3804 -3.354,3.3765 l 1.8035,3.453 -2.77,1.8426 -2.488,-2.9974 c -1.2632,0.6796 -2.5927,1.2394 -3.9737,1.6661 l 0.3843,3.8728 -3.257,0.6771 -1.1889,-3.7086 c -1.5576,0.1733 -3.1512,0.1812 -4.7599,0.015 l -1.168,3.7203 -3.262,-0.6555 0.361,-3.8823 c -1.4006,-0.4194 -2.7309,-0.9692 -3.9854,-1.6331 l -2.468,3.0133 -2.782,-1.8245 1.783,-3.4674 c -1.247,-0.9987 -2.3798,-2.1219 -3.3762,-3.3537 l -3.4541,1.8047 -1.8437,-2.7697 2.9987,-2.4899 c -0.6803,-1.2622 -1.2393,-2.592 -1.6653,-3.9714 l -3.8737,0.385 -0.6762,-3.2581 3.7084,-1.19 c -0.1738,-1.5564 -0.1805,-3.1495 -0.022,-4.759 z"
       style="fill:#edf6f5;fill-opacity:1;fill-rule:nonzero;stroke:none;stroke-width:0.426453"
       id="path134-9" />
    <path
       style="fill:#735b2b;fill-opacity:1;stroke-width:33.6205;stroke-linecap:round;stroke-linejoin:round;paint-order:stroke fill markers"
       d="m 1876.2716,477.18384 c -81.6591,-13.05197 -377.0162,16.40356 -409.8001,24.51198 l 27.0484,4.8549 c 71.6673,-8.45143 285.4422,-10.56685 387.8936,30.71906 10.9154,-13.66777 9.9298,-47.67109 -5.1419,-60.08594 z"
       id="path94"
       sodipodi:nodetypes="ccccc" />
    <path
       id="path96"
       style="fill:#32250b;fill-opacity:1;stroke-width:33.6205;stroke-linecap:round;stroke-linejoin:round;paint-order:stroke fill markers"
       d="m 2732.9329,196.93722 c 42.9548,-15.14992 80.0802,-29.63324 110.4831,-34.89643 -36.7814,264.00091 -285.5715,541.83499 -377.5813,596.33677 -61.7956,-4.2283 -158.9069,-66.0912 -208.1317,-142.16697 32.2284,-171.30173 287.1947,-352.95414 475.2299,-419.27337 z M 2337.053,583.31593 c 37.4331,57.85198 104.0372,103.12896 151.0296,106.34445 49.1571,-32.71136 249.3495,-250.61878 294.3773,-451.71754 -110.9221,19.20221 -402.2372,189.25891 -445.4069,345.37309 z"
       sodipodi:nodetypes="scccscccc" />
    <path
       id="path97"
       style="fill:#735b2b;fill-opacity:1;stroke-width:25.5667;stroke-linecap:round;stroke-linejoin:round;paint-order:stroke fill markers"
       d="m 2409.3814,390.86987 c 2.0337,84.57422 -42.5454,199.15553 -122.651,262.7551 -10.7668,-11.93122 -20.6332,-24.4409 -29.0274,-37.41385 14.453,-76.82032 73.7613,-155.6928 151.6784,-225.34125 z"
       sodipodi:nodetypes="cccc" />
    <path
       id="path98"
       style="fill:#423a2a;stroke-width:33.6205;stroke-linecap:round;stroke-linejoin:round;paint-order:stroke fill markers"
       d="m 2847.4279,375.66713 c 45.4518,2.96204 85.2818,4.24462 115.3048,11.36088 -137.6334,228.26836 -475.6347,385.88583 -581.6641,399.81527 -55.1541,-28.18802 -120.1152,-123.25482 -135.4587,-212.55881 96.9945,-144.82763 402.8521,-211.58346 601.818,-198.61734 z m -515.9253,199.5762 c 11.668,67.91139 55.1019,135.73182 97.0439,157.16741 58.0603,-10.74558 327.8139,-132.37457 448.2933,-299.56579 -109.5366,-25.96335 -444.2552,15.8372 -545.3372,142.39838 z"
       sodipodi:nodetypes="scccscccc" />
    <path
       id="path99"
       style="fill:#b5975c;fill-opacity:1;stroke-width:25.5667;stroke-linecap:round;stroke-linejoin:round;paint-order:stroke fill markers"
       d="m 2473.6811,426.74359 c -31.3879,78.56036 -117.4329,166.38053 -216.0951,193.3558 -5.2074,-15.20391 -9.3597,-30.58557 -11.9762,-45.81439 43.4971,-64.94797 129.0431,-114.14386 228.0713,-147.54141 z"
       sodipodi:nodetypes="cccc" />
    <path
       d="m 2283.8498,584.56595 c 4.6173,0 8.3596,-3.7421 8.3596,-8.35974 0,-4.61766 -3.7423,-8.36107 -8.3596,-8.36107 -4.6167,0 -8.3604,3.74341 -8.3604,8.36107 0,4.61764 3.7437,8.35974 8.3604,8.35974 m -25.9229,-6.69575 v -3.32762 l 3.8767,-0.41128 c 0.136,-1.45503 0.4122,-2.86959 0.816,-4.22779 l -3.4425,-1.82785 1.2425,-3.08664 3.7501,1.06444 c 0.7339,-1.41922 1.6114,-2.75105 2.6227,-3.97031 l -2.4496,-3.03113 2.3527,-2.35275 3.0312,2.44869 c 1.1035,-0.91483 2.2968,-1.72589 3.5673,-2.41462 l -1.1405,-3.72166 3.0608,-1.30412 1.8959,3.39968 c 1.4923,-0.47633 3.053,-0.79785 4.6642,-0.94747 l 0.4107,-3.87692 h 3.3274 l 0.412,3.87692 c 1.4552,0.13483 2.8689,0.4127 4.2286,0.81532 l 1.8268,-3.44014 3.0872,1.24089 -1.0651,3.74981 c 1.4187,0.73313 2.7516,1.61109 3.9711,2.62231 l 3.03,-2.44869 2.3541,2.35275 -2.4502,3.03023 c 0.9154,1.10453 1.7264,2.2978 2.4152,3.5673 l 3.7207,-1.13947 1.3049,3.06114 -3.4,1.8947 c 0.4762,1.49254 0.7979,3.05337 0.9485,4.66538 l 3.8759,0.41128 v 3.32762 l -3.8759,0.4108 c -0.1361,1.45586 -0.4128,2.86866 -0.8167,4.22869 l 3.441,1.82728 -1.2429,3.08621 -3.7476,-1.06442 c -0.7347,1.4193 -1.6119,2.75196 -2.6231,3.97114 l 2.4483,3.02997 -2.3522,2.35231 -3.03,-2.4487 c -1.1045,0.91515 -2.2979,1.72588 -3.5677,2.4163 l 1.1398,3.72117 -3.0601,1.30542 -1.8961,-3.40179 c -1.4928,0.47678 -3.0537,0.79826 -4.6645,0.9479 l -0.412,3.8774 h -3.3274 l -0.4107,-3.8774 c -1.4554,-0.13585 -2.8684,-0.41223 -4.2292,-0.81623 l -1.826,3.44064 -3.0867,-1.24096 1.0648,-3.75059 c -1.4191,-0.73348 -2.7511,-1.6116 -3.9706,-2.62277 l -3.0308,2.44961 -2.3531,-2.35231 2.4496,-3.0317 c -0.9156,-1.10363 -1.7257,-2.29723 -2.4153,-3.56552 l -3.7217,1.1403 -1.305,-3.06105 3.4013,-1.89723 c -0.4761,-1.49179 -0.798,-3.05215 -0.9481,-4.66367 z"
       style="fill:#f5f2ee;fill-opacity:1;fill-rule:nonzero;stroke:none;stroke-width:0.426453"
       id="path1-09" />
    <path
       d="m 2017.3704,460.98988 c 26.0602,0 47.1851,21.12327 47.1851,47.18355 0,26.0584 -21.1249,47.18361 -47.1851,47.18361 -26.0545,0 -47.186,-21.12521 -47.186,-47.18361 0,-26.06028 21.1315,-47.18355 47.186,-47.18355 z m 0.3627,29.09049 c -0.6115,-0.009 -1.2294,0.009 -1.8519,0.0593 -9.9593,0.82366 -17.3654,9.56268 -16.5458,19.52458 0.825,9.9592 9.5682,17.36398 19.526,16.54442 9.9579,-0.82095 17.3681,-9.56267 16.5431,-19.52319 -0.7697,-9.33551 -8.5009,-16.43106 -17.6714,-16.60504 z"
       style="fill:#edf6f5;fill-opacity:1;fill-rule:nonzero;stroke:none;stroke-width:0.940566"
       id="path1-7" />
  </g>
</svg>
