<?xml version="1.0" encoding="UTF-8" standalone="no"?>
<svg
   width="100%"
   height="100%"
   viewBox="0 0 10338 14617"
   version="1.1"
   xml:space="preserve"
   style="fill-rule:evenodd;clip-rule:evenodd;stroke-linejoin:round;stroke-miterlimit:2;"
   id="svg4"
   sodipodi:docname="puntotres.svg"
   inkscape:version="1.4.3 (0d15f75, 2025-12-25)"
   xmlns:inkscape="http://www.inkscape.org/namespaces/inkscape"
   xmlns:sodipodi="http://sodipodi.sourceforge.net/DTD/sodipodi-0.dtd"
   xmlns="http://www.w3.org/2000/svg"
   xmlns:svg="http://www.w3.org/2000/svg"><defs
   id="defs4" /><sodipodi:namedview
   id="namedview4"
   pagecolor="#ffffff"
   bordercolor="#cccccc"
   borderopacity="1"
   inkscape:showpageshadow="0"
   inkscape:pageopacity="1"
   inkscape:pagecheckerboard="0"
   inkscape:deskcolor="#d1d1d1"
   inkscape:zoom="0.048182141"
   inkscape:cx="5167.8899"
   inkscape:cy="7305.6114"
   inkscape:window-width="1920"
   inkscape:window-height="1080"
   inkscape:window-x="384"
   inkscape:window-y="152"
   inkscape:window-maximized="0"
   inkscape:current-layer="svg4" />
    
<path
   d="m 5088.11,4228.4511 c -18.6398,59.3398 -0.8773,124.1011 45.4216,165.639 46.2988,41.5379 112.5978,52.1885 169.5769,27.2401 164.949,-72.2132 347.1283,-112.243 538.5879,-112.243 742.7733,0 1345.8071,603.0388 1345.8071,1345.8071 0,509.0264 -283.259,952.3897 -700.5355,1181.0995 -48.1422,26.3875 -79.2217,75.7914 -82.169,130.6117 -2.9472,54.8203 22.6566,107.2702 67.6988,138.6699 586.4343,408.8142 970.5466,1088.1913 970.5466,1856.6032 0,1248.1884 -1013.3659,2261.5534 -2261.5531,2261.5534 -1248.187,0 -2261.5529,-1013.365 -2261.5529,-2261.5534 0,-1083.6819 763.8083,-1990.4135 1782.019,-2210.5475 53.7558,-11.6217 97.6594,-50.2516 116.0232,-102.0952 18.3638,-51.8386 8.5708,-109.4929 -25.8799,-152.3664 -185.299,-230.5826 -296.2113,-523.4326 -296.2113,-841.9801 0,-239.1436 62.4744,-463.8119 172.061,-658.5098 30.5077,-54.2042 26.5304,-121.2326 -10.1726,-171.4447 -36.703,-50.2122 -99.3647,-74.3523 -160.2669,-61.7352 -51.7548,10.7196 -105.3627,16.3381 -160.2767,16.3381 -434.2652,0 -786.8297,-352.5644 -786.8297,-786.8296 0,-434.2651 352.5645,-786.8296 786.8297,-786.8296 434.2651,0 786.8296,352.5645 786.8296,786.8296 0,82.1049 -12.5727,161.297 -35.9489,235.733 z"
   style="clip-rule:evenodd;fill:#f9f9f9;fill-rule:evenodd;stroke-width:4.92856;stroke-linejoin:round;stroke-miterlimit:2;fill-opacity:1"
   id="path1" /></svg>
