<?xml version="1.0" encoding="UTF-8" standalone="no"?>
<svg
   width="100%"
   height="100%"
   viewBox="0 0 10338 14617"
   version="1.1"
   xml:space="preserve"
   style="fill-rule:evenodd;clip-rule:evenodd;stroke-linejoin:round;stroke-miterlimit:2;"
   id="svg3"
   sodipodi:docname="puntodos.svg"
   inkscape:version="1.4.3 (0d15f75, 2025-12-25)"
   xmlns:inkscape="http://www.inkscape.org/namespaces/inkscape"
   xmlns:sodipodi="http://sodipodi.sourceforge.net/DTD/sodipodi-0.dtd"
   xmlns="http://www.w3.org/2000/svg"
   xmlns:svg="http://www.w3.org/2000/svg"><defs
   id="defs3" /><sodipodi:namedview
   id="namedview3"
   pagecolor="#ffffff"
   bordercolor="#cccccc"
   borderopacity="1"
   inkscape:showpageshadow="0"
   inkscape:pageopacity="1"
   inkscape:pagecheckerboard="0"
   inkscape:deskcolor="#d1d1d1"
   inkscape:zoom="0.048182141"
   inkscape:cx="5167.8899"
   inkscape:cy="7305.6114"
   inkscape:window-width="1920"
   inkscape:window-height="1080"
   inkscape:window-x="307"
   inkscape:window-y="170"
   inkscape:window-maximized="0"
   inkscape:current-layer="svg3" />
    <path
   d="m 6350.474,6704.3419 c -65.3345,-1.1637 -124.4257,38.657 -147.8633,99.6506 -23.4424,60.9985 -6.2287,130.1426 43.0703,173.0294 467.1045,406.3523 762.633,1004.9853 762.633,1672.1106 0,1222.8478 -992.7933,2215.6405 -2215.6406,2215.6405 -1222.8474,0 -2215.6407,-992.7927 -2215.6407,-2215.6405 0,-1222.8474 992.7933,-2215.6407 2215.6407,-2215.6407 140.8715,0 278.6915,13.1577 412.2914,38.3383 64.2094,12.1003 129.1334,-17.2474 162.4694,-73.4463 33.336,-56.199 27.9667,-127.2456 -13.4425,-177.7952 -186.2306,-227.3549 -298.0152,-517.9873 -298.0152,-834.5198 0,-727.694 590.7963,-1318.4855 1318.4855,-1318.4855 727.694,0 1318.4855,590.7963 1318.4855,1318.4855 0,727.694 -590.7963,1318.4855 -1318.4855,1318.4855 -8.0153,0 -16.0113,-0.072 -23.9929,-0.2124 z"
   style="clip-rule:evenodd;fill:#f5f5f5;fill-rule:evenodd;stroke-width:4.8285;stroke-linejoin:round;stroke-miterlimit:2;fill-opacity:1"
   id="path1" />
</svg>
