<?xml version="1.0" encoding="UTF-8" standalone="no"?>
<!-- Created with Inkscape (http://www.inkscape.org/) -->

<svg
   width="297mm"
   height="210mm"
   viewBox="0 0 297 210"
   version="1.1"
   id="svg1"
   inkscape:version="1.4 (e7c3feb1, 2024-10-09)"
   sodipodi:docname="uxui.svg"
   xmlns:inkscape="http://www.inkscape.org/namespaces/inkscape"
   xmlns:sodipodi="http://sodipodi.sourceforge.net/DTD/sodipodi-0.dtd"
   xmlns:xlink="http://www.w3.org/1999/xlink"
   xmlns="http://www.w3.org/2000/svg"
   xmlns:svg="http://www.w3.org/2000/svg">
  <sodipodi:namedview
     id="namedview1"
     pagecolor="#ffffff"
     bordercolor="#cccccc"
     borderopacity="1"
     inkscape:showpageshadow="0"
     inkscape:pageopacity="1"
     inkscape:pagecheckerboard="0"
     inkscape:deskcolor="#d1d1d1"
     inkscape:document-units="mm"
     inkscape:zoom="1.2623761"
     inkscape:cx="531.93339"
     inkscape:cy="396.07847"
     inkscape:window-width="2048"
     inkscape:window-height="1128"
     inkscape:window-x="201"
     inkscape:window-y="119"
     inkscape:window-maximized="0"
     inkscape:current-layer="layer1"
     showgrid="false" />
  <defs
     id="defs1">
    <linearGradient
       id="linearGradient1"
       inkscape:collect="always">
      <stop
         style="stop-color:#2c2303;stop-opacity:0;"
         offset="0"
         id="stop3" />
      <stop
         style="stop-color:#2c2303;stop-opacity:1;"
         offset="0.49555555"
         id="stop1" />
      <stop
         style="stop-color:#2c2303;stop-opacity:0;"
         offset="1"
         id="stop2" />
    </linearGradient>
    <filter
       style="color-interpolation-filters:sRGB"
       inkscape:label="Drop Shadow"
       id="filter332-8"
       x="-0.024877776"
       y="-0.011522083"
       width="1.0382961"
       height="1.0358465">
      <feFlood
         result="flood"
         in="SourceGraphic"
         flood-opacity="0.498039"
         flood-color="rgb(0,0,0)"
         id="feFlood331-3" />
      <feGaussianBlur
         result="blur"
         in="SourceGraphic"
         stdDeviation="0.900000"
         id="feGaussianBlur331-0" />
      <feOffset
         result="offset"
         in="blur"
         dx="-1.844660"
         dy="2.400000"
         id="feOffset331-6" />
      <feComposite
         result="comp1"
         operator="in"
         in="flood"
         in2="offset"
         id="feComposite331-2" />
      <feComposite
         result="comp2"
         operator="over"
         in="SourceGraphic"
         in2="comp1"
         id="feComposite332-25" />
    </filter>
    <inkscape:path-effect
       effect="fillet_chamfer"
       id="path-effect286-2"
       is_visible="true"
       lpeversion="1"
       nodesatellites_param="F,0,0,1,0,0,0,1 @ F,0,0,1,0,0,0,1 @ F,0,0,1,0,0,0,1 @ F,0,0,1,0,0,0,1 @ F,0,0,1,0,2.1331761,0,1 @ F,0,0,1,0,0,0,1 @ F,0,0,1,0,0,0,1 @ F,0,0,1,0,0,0,1 @ F,0,0,1,0,0,0,1 @ F,0,0,1,0,0,0,1 @ F,0,0,1,0,1.1957872,0,1 @ F,0,0,1,0,7.1989383,0,1 @ F,0,0,1,0,0,0,1 @ F,0,0,1,0,0,0,1"
       radius="0"
       unit="px"
       method="auto"
       mode="F"
       chamfer_steps="1"
       flexible="false"
       use_knot_distance="true"
       apply_no_radius="true"
       apply_with_radius="true"
       only_selected="false"
       hide_knots="false" />
    <inkscape:path-effect
       effect="fillet_chamfer"
       id="path-effect282-2"
       is_visible="true"
       lpeversion="1"
       nodesatellites_param="F,0,0,1,0,2.6212719,0,1 @ F,0,0,1,0,2.9681078,0,1 @ F,0,0,1,0,2.270684,0,1 @ F,0,0,1,0,3.1889294,0,1"
       radius="0"
       unit="px"
       method="auto"
       mode="F"
       chamfer_steps="1"
       flexible="false"
       use_knot_distance="true"
       apply_no_radius="true"
       apply_with_radius="true"
       only_selected="false"
       hide_knots="false" />
    <clipPath
       clipPathUnits="userSpaceOnUse"
       id="clipPath5-6">
      <path
         d="M 0,374.7 H 371.5 V 0 H 0 Z"
         transform="translate(-185.75001,-27.042998)"
         id="path5-4" />
    </clipPath>
    <clipPath
       clipPathUnits="userSpaceOnUse"
       id="clipPath1">
      <path
         d="M 0,374.7 H 371.5 V 0 H 0 Z"
         transform="translate(-185.75001,-27.042998)"
         id="path1" />
    </clipPath>
    <linearGradient
       inkscape:collect="always"
       xlink:href="#linearGradient1"
       id="linearGradient2"
       x1="46.459423"
       y1="7.9482865"
       x2="250.54062"
       y2="7.9482865"
       gradientUnits="userSpaceOnUse"
       gradientTransform="matrix(0.53019143,0,0,0.53019143,70.508729,1.4671407)" />
  </defs>
  <g
     inkscape:label="Layer 1"
     inkscape:groupmode="layer"
     id="layer1">
    <rect
       style="display:inline;fill:#4b3e2a;fill-opacity:1;stroke-width:9.3854;stroke-linejoin:round;paint-order:stroke fill markers"
       id="rect3"
       width="297"
       height="210"
       x="0"
       y="0"
       ry="9.5541791e-16"
       sodipodi:insensitive="true" />
    <rect
       style="fill:url(#linearGradient2);fill-opacity:1;stroke:none;stroke-width:0.0361968;stroke-linejoin:miter;stroke-dasharray:none;stroke-opacity:1;paint-order:stroke fill markers"
       id="rect286"
       width="108.20211"
       height="8.4282265"
       x="95.141121"
       y="1.4671407"
       ry="8.9080655e-17" />
    <rect
       style="fill:#2c2303;fill-opacity:1;stroke:none;stroke-width:0.0419375;stroke-linejoin:miter;stroke-dasharray:none;stroke-opacity:1;paint-order:stroke fill markers"
       id="rect333"
       width="192.28384"
       height="0.92891973"
       x="88.632431"
       y="203.21432"
       ry="0.46445987" />
    <rect
       style="fill:#2c2303;fill-opacity:1;stroke:none;stroke-width:0.0427379;stroke-linejoin:miter;stroke-dasharray:none;stroke-opacity:1;paint-order:stroke fill markers"
       id="rect334"
       width="162.93211"
       height="1.1385113"
       x="14.975353"
       y="-291.37042"
       ry="0.56925565"
       transform="rotate(90)" />
    <rect
       style="fill:#fbce05;fill-opacity:1;stroke:none;stroke-width:0.0836674;stroke-linejoin:miter;stroke-dasharray:none;stroke-opacity:1;paint-order:stroke fill markers;filter:url(#filter332-8)"
       id="rect332"
       width="160.97339"
       height="187.46609"
       x="552.44891"
       y="58.862"
       ry="1.4606399e-15"
       transform="matrix(1.2266846,0,0,0.69050437,-624.47545,0.12519772)" />
    <path
       id="path84"
       style="display:inline;fill:#9b9256;fill-opacity:1;fill-rule:nonzero;stroke:none;stroke-width:0.00155689"
       d="m 41.388566,64.01534 c -0.03992,0 -0.07228,0.03245 -0.07228,0.07231 v 0.703492 c 0,0.03986 0.03236,0.07219 0.07228,0.07219 h 0.279464 v 2.495908 h -0.279464 c -0.03992,0 -0.07228,0.03233 -0.07228,0.07219 v 0.703615 c 0,0.03986 0.03236,0.07218 0.07228,0.07218 h 0.703516 c 0.03992,0 0.07232,-0.03233 0.07232,-0.07218 v -0.227054 h 2.495907 v 0.227054 c 0,0.03986 0.03227,0.07218 0.07218,0.07218 h 0.703621 c 0.0049,0 0.0099,-5.41e-4 0.01458,-0.0013 0.0047,-10e-4 0.0094,-0.0024 0.01354,-0.0042 0.02603,-0.01099 0.04408,-0.03662 0.04408,-0.06651 V 67.4316 c 0,-0.03487 -0.02475,-0.06399 -0.05773,-0.07074 -0.0047,-0.001 -0.0096,-0.0013 -0.01458,-0.0013 h -0.279804 v -2.495893 h 0.279803 c 0.03994,0 0.0722,-0.03233 0.0722,-0.07219 v -0.703492 c 0,-0.03986 -0.03227,-0.07231 -0.0722,-0.07231 h -0.703621 c -0.0099,0 -0.01926,0.0021 -0.02812,0.0057 -0.02603,0.01099 -0.04406,0.03674 -0.04406,0.06663 V 64.36769 H 42.16429 v -0.279759 c 0,-0.03986 -0.03239,-0.0723 -0.07232,-0.0723 z m 6.071232,0 c -0.03999,0 -0.07231,0.03245 -0.07231,0.07231 v 0.703492 c 0,0.03986 0.03231,0.07219 0.07231,0.07219 h 0.279672 v 0.823962 h -0.279672 c -0.03999,0 -0.07231,0.03233 -0.07231,0.07219 v 0.703617 c 0,0.03985 0.03231,0.07218 0.07231,0.07218 h 0.279672 v 0.823961 h -0.279672 c -0.03999,0 -0.07231,0.03233 -0.07231,0.07219 v 0.703615 c 0,0.03986 0.03231,0.07218 0.07231,0.07218 h 0.703517 c 0.03997,0 0.07228,-0.03233 0.07228,-0.07218 v -0.227054 h 0.823839 v 0.279562 c 0,0.04001 0.03231,0.07231 0.07233,0.07231 h 0.70349 c 0.04002,0 0.07228,-0.03229 0.07228,-0.07231 v -0.279562 h 0.823965 v 0.227054 c 0,0.03986 0.03216,0.07218 0.0722,0.07218 h 0.703488 c 0.04002,0 0.07231,-0.03233 0.07231,-0.07218 v -0.703615 c 0,-0.03986 -0.03224,-0.07219 -0.07231,-0.07219 h -0.279689 v -0.823971 h 0.279433 c 0.04002,0 0.07234,-0.03233 0.07234,-0.07218 v -0.70362 c 0,-0.03986 -0.03228,-0.07219 -0.07234,-0.07219 h -0.279433 v -0.823962 h 0.279696 c 0.04002,0 0.07231,-0.03233 0.07231,-0.07219 v -0.703492 c 0,-0.03986 -0.03224,-0.07231 -0.07231,-0.07231 h -0.703488 c -0.04002,0 -0.0722,0.03245 -0.0722,0.07231 v 0.279682 h -0.823965 v -0.279682 c 0,-0.03986 -0.03228,-0.07231 -0.07228,-0.07231 h -0.70349 c -0.04002,0 -0.07233,0.03245 -0.07233,0.07231 v 0.279682 h -0.823839 v -0.279682 c 0,-0.03986 -0.03231,-0.07231 -0.07228,-0.07231 z m 12.785066,0 c -0.133575,0 -0.242255,0.108682 -0.242255,0.242261 v 0.175274 h -0.175262 c -0.133599,0 -0.242283,0.108679 -0.242283,0.242261 0,0.133736 0.108684,0.242384 0.242283,0.242384 h 0.175262 v 0.175151 c 0,0.133581 0.10868,0.242506 0.242255,0.242506 0.133727,0 0.242384,-0.108925 0.242384,-0.242506 V 64.91752 h 0.176019 c 0.13373,0 0.24236,-0.108648 0.24236,-0.242384 0,-0.133582 -0.10863,-0.242261 -0.24236,-0.242261 h -0.176019 v -0.175274 c 0,-0.133579 -0.108657,-0.242261 -0.242384,-0.242261 z m -22.891121,5.41e-4 c -0.01536,-2.35e-4 -0.384344,-0.01013 -0.53328,0.197843 -0.07231,0.101042 -0.07949,0.230081 -0.02265,0.380475 0.07814,0.243811 0.233949,0.280206 0.252541,0.556713 0.02526,0.376764 -0.163596,0.714394 -0.545389,0.714238 -0.125294,-0.0079 -0.171017,-0.04709 -0.228864,-0.09645 -0.08262,-0.07068 -0.176173,-0.150808 -0.464463,-0.125901 -0.202991,0.02771 -0.355495,0.111431 -0.453032,0.248904 -0.157581,0.222167 -0.121649,0.515234 -0.09728,0.636984 2.35e-4,0.0019 0,0.0039 0,0.0058 0.257228,1.176538 1.20057,1.68595 2.064115,1.68595 0.04197,0 0.08392,-0.0013 0.125426,-0.0037 0.893514,-0.05138 1.85207,-0.670417 1.979629,-1.939441 0.04109,-0.57278 -0.146749,-1.122053 -0.528828,-1.546772 h 1.3e-4 c -0.390827,-0.434234 -0.955431,-0.69469 -1.548939,-0.714617 z m 13.522243,0.144005 h 0.558902 v 0.558886 l -0.278243,1.2e-4 c 0,0 0,-1.2e-4 -0.0027,-1.2e-4 0,0 0,1.2e-4 -0.0027,1.2e-4 h -0.277876 v -0.277993 c 0,-5.42e-4 0,-7.74e-4 0,-0.0013 0,-5.41e-4 0,-7.73e-4 0,-0.001 z m -3.343882,1.22e-4 h 0.558879 v 0.278355 c 0,5.41e-4 -2.36e-4,0.001 -2.36e-4,0.0013 0,5.42e-4 2.36e-4,0.001 2.36e-4,0.0013 v 0.277751 h -0.277877 c 0,0 0,-1.2e-4 -0.0026,-1.2e-4 0,0 0,1.2e-4 -0.0026,1.2e-4 h -0.27824 z m 6.175364,0.03609 c -0.137294,0 -0.248766,0.11162 -0.248766,0.248782 0,0.137164 0.111472,0.248783 0.248766,0.248783 h 0.866696 c 0.137322,0 0.248789,-0.111619 0.248789,-0.248783 0,-0.137162 -0.111467,-0.248782 -0.248789,-0.248782 z m 2.573656,0.145216 c -0.01871,0 -0.03754,0.0067 -0.05116,0.02028 l -0.335472,0.335693 -1.051254,0.203999 c -0.02633,0.0051 -0.04747,0.02419 -0.0554,0.04973 l -0.953974,3.115999 c -0.0172,0.05278 0.03688,0.108661 0.0903,0.09029 l 3.116,-0.954089 c 0.02551,-0.0078 0.04476,-0.02913 0.04973,-0.05529 l 0.203876,-1.051136 0.335685,-0.335693 c 0.01353,-0.01372 0.02134,-0.03203 0.02134,-0.05118 0,-0.01916 -0.0078,-0.03751 -0.02134,-0.05106 l -1.297136,-1.297262 c -0.01353,-0.01354 -0.0324,-0.02028 -0.05119,-0.02028 z m 6.049969,0.143523 c -0.01875,0 -0.03754,0.0067 -0.05106,0.02028 l -0.326283,0.326519 -1.023262,0.198328 c -0.02613,0.0051 -0.04749,0.02432 -0.05527,0.04985 l -0.928978,3.034274 c -0.01693,0.05293 0.03703,0.108661 0.09027,0.09029 l 3.034292,-0.92898 c 0.02551,-0.0078 0.04463,-0.02913 0.0496,-0.05528 l 0.198564,-1.023136 0.326516,-0.3264 c 0.01353,-0.01354 0.02134,-0.03191 0.02134,-0.05106 0,-0.01916 -0.0078,-0.03775 -0.02134,-0.0513 l -1.263329,-1.263106 c -0.01353,-0.01354 -0.03228,-0.02028 -0.05106,-0.02028 z m -20.166696,0.02716 h 2.495907 v 0.279321 c 0,0.03986 0.03227,0.07219 0.07218,0.07219 h 0.279335 v 2.495911 h -0.279335 c -0.01017,0 -0.01926,0.0021 -0.02812,0.0057 -0.02603,0.01099 -0.04406,0.03662 -0.04406,0.06651 v 0.332191 h -2.495907 v -0.332194 c 0,-0.03986 -0.03239,-0.07219 -0.07232,-0.07219 h -0.279438 v -2.495907 h 0.279438 c 0.03992,0 0.07232,-0.03233 0.07232,-0.07219 z m 6.071197,0 h 0.823839 v 0.279321 c 0,0.03986 0.03231,0.07219 0.07233,0.07219 h 0.70349 c 0.04002,0 0.07228,-0.03233 0.07228,-0.07219 v -0.279321 h 0.823965 v 0.279321 c 0,0.03986 0.03216,0.07219 0.0722,0.07219 h 0.279175 v 0.823962 h -0.279437 c -0.04002,0 -0.07231,0.03233 -0.07231,0.07219 v 0.703617 c 0,0.03985 0.03224,0.07218 0.07231,0.07218 h 0.279437 v 0.823962 h -0.279175 c -0.04002,0 -0.0722,0.03233 -0.0722,0.07219 V 67.7638 h -0.823965 v -0.27956 c 0,-0.04001 -0.03228,-0.07231 -0.07228,-0.07231 h -0.70349 c -0.04002,0 -0.07233,0.03229 -0.07233,0.07231 v 0.27956 h -0.823839 v -0.332191 c 0,-0.03986 -0.03231,-0.07219 -0.07228,-0.07219 h -0.279231 v -0.823966 h 0.279231 c 0.03997,0 0.07228,-0.03233 0.07228,-0.07218 v -0.703634 c 0,-0.03986 -0.03231,-0.07219 -0.07228,-0.07219 h -0.279231 v -0.823962 h 0.279231 c 0.03997,0 0.07228,-0.03233 0.07228,-0.07218 z m -10.213016,0.208204 c 0.306023,0 0.555023,0.24894 0.555023,0.555023 0,0.305929 -0.249,0.554783 -0.555023,0.554783 -0.305996,0 -0.554866,-0.248854 -0.554866,-0.554783 0,-0.306083 0.24887,-0.555023 0.554866,-0.555023 z m 17.883394,0.122157 1.242709,1.242827 -0.192422,0.992593 -2.796957,0.856317 1.085285,-1.085301 c 0.09389,0.07115 0.206037,0.10719 0.31844,0.10719 0.135296,0 0.270561,-0.05147 0.373458,-0.154386 0.205991,-0.205975 0.205991,-0.541095 0,-0.747072 -0.205956,-0.205975 -0.54098,-0.205822 -0.746812,0 -0.18854,0.188539 -0.203957,0.485152 -0.04721,0.691905 l -1.085416,1.085421 0.856204,-2.79708 z m 6.059263,0.134232 1.208782,1.208906 -0.18711,0.964347 -2.715252,0.831328 1.050287,-1.050415 c 0.08908,0.06725 0.196512,0.104172 0.310012,0.104172 0.137921,0 0.267407,-0.05375 0.365023,-0.151368 0.201139,-0.201153 0.201139,-0.528625 0,-0.729935 -0.201324,-0.201144 -0.528644,-0.201301 -0.729945,0 -0.183855,0.184025 -0.199295,0.472959 -0.04718,0.674888 l -1.050418,1.050418 0.831311,-2.715243 z m -11.089249,2.527173 h 0.277875 c 0,0 0,2.34e-4 0.0027,2.34e-4 0,0 0,-2.34e-4 0.0027,-2.34e-4 l 0.278212,1.22e-4 v 0.559125 h -0.558875 v -0.225966 c 0,-5.41e-4 2.36e-4,-7.73e-4 2.36e-4,-0.001 0,-2.34e-4 -2.36e-4,-7.73e-4 -2.36e-4,-0.0013 z m -3.343882,1.22e-4 h 0.278217 c 0,0 0,2.34e-4 0.0026,2.34e-4 0,0 0,-2.34e-4 0.0026,-2.34e-4 h 0.277877 v 0.330623 c 0,5.41e-4 0,0.001 0,0.0013 0,5.41e-4 0,0.001 0,0.0013 v 0.225608 h -0.558902 z m -8.89269,2.582697 c -0.03992,0 -0.07228,0.03245 -0.07228,0.07231 v 0.725463 c 0,0.03986 0.03236,0.07218 0.07228,0.07218 h 0.286807 c -0.03666,0.618083 -0.532031,1.113531 -1.150117,1.150119 V 71.81985 c 0,-0.03986 -0.03229,-0.07218 -0.07218,-0.07218 h -0.725467 c -0.03994,0 -0.07231,0.03233 -0.07231,0.07218 v 0.290546 h -1.588638 c -0.03992,0 -0.07233,0.03217 -0.07233,0.07219 0,0.03986 0.03242,0.07231 0.07233,0.07231 h 1.052441 c -0.403292,0.201126 -0.693406,0.594526 -0.750194,1.059708 -0.0037,0.03101 -0.0065,0.0623 -0.0081,0.09391 H 35.31761 c -0.03989,0 -0.07231,0.03242 -0.07231,0.07243 v 0.725343 c 0,0.04001 0.03242,0.07243 0.07231,0.07243 h 0.725479 c 0.03992,0 0.07233,-0.03242 0.07233,-0.07243 v -0.725343 c 0,-0.04001 -0.03242,-0.07243 -0.07233,-0.07243 h -0.286781 c 0.0026,-0.03863 0.0062,-0.07672 0.01224,-0.114312 0.08686,-0.563828 0.558347,-1.001266 1.137793,-1.035566 v 0.286807 c 0,0.03985 0.03239,0.07218 0.07233,0.07218 h 0.725441 c 0.03992,0 0.0722,-0.03233 0.0722,-0.07218 v -0.290548 h 1.588776 c 0.03992,0 0.07231,-0.03245 0.07231,-0.07231 0,-0.04001 -0.03239,-0.07219 -0.07231,-0.07219 h -1.052605 c 0.430223,-0.214536 0.731611,-0.647873 0.75843,-1.153861 h 0.294175 c 0.03992,0 0.07231,-0.03233 0.07231,-0.07218 v -0.725463 c 0,-0.03986 -0.03239,-0.07231 -0.07231,-0.07231 z m 4.410269,0 c -0.01015,0 -0.01953,0.0021 -0.02825,0.0057 -0.02604,0.01099 -0.04406,0.03674 -0.04406,0.06663 v 0.347405 c -0.56877,0.146684 -1.024544,0.576092 -1.208189,1.129115 -0.01224,0.03687 -0.02343,0.07434 -0.03307,0.112259 h -0.347553 c -0.03992,0 -0.07228,0.03233 -0.07228,0.07219 v 0.725583 c 0,0.03986 0.03236,0.07218 0.07228,0.07218 h 0.347553 c 0.156409,0.606564 0.634575,1.084822 1.241257,1.241135 v 0.347524 c 0,0.04001 0.03239,0.07243 0.07231,0.07243 h 0.725336 c 0.03992,0 0.07231,-0.03242 0.07231,-0.07243 v -0.347524 c 0.606656,-0.156313 1.084816,-0.634571 1.241251,-1.241135 h 0.347527 c 0.03994,0 0.0722,-0.03233 0.0722,-0.07218 v -0.725583 c 0,-0.03986 -0.03227,-0.07219 -0.0722,-0.07219 h -0.347527 c -0.0099,-0.03792 -0.02083,-0.07539 -0.03307,-0.112259 -0.146933,-0.442419 -0.46803,-0.805681 -0.881798,-1.008406 -0.103422,-0.05068 -0.212651,-0.09137 -0.326384,-0.120709 v -0.347405 c 0,-0.03986 -0.03239,-0.0723 -0.07231,-0.0723 z m 4.988181,0 c -0.0076,0 -0.01458,0.0013 -0.02135,0.0033 -0.0026,7.73e-4 -0.0044,0.0013 -0.0068,0.0024 -0.0065,0.0027 -0.01275,0.0065 -0.01772,0.01086 -0.0026,0.0013 -0.0034,0.0031 -0.0052,0.0047 -0.0049,0.0049 -0.0091,0.01039 -0.01249,0.01653 0,0.0021 -0.0026,0.0042 -0.0033,0.0064 -0.0029,0.0065 -0.0047,0.01336 -0.0055,0.02065 0,0.0024 0,0.005 0,0.0075 v 0.505894 h -0.505815 c -0.03987,0 -0.0722,0.03245 -0.0722,0.07231 0,0.03251 0.02161,0.0598 0.05083,0.06892 0.0026,7.74e-4 0.0044,0.0013 0.0068,0.0019 0.0047,0.001 0.0096,0.0013 0.01458,0.0013 h 0.578066 c 0.03999,0 0.07241,-0.03217 0.07241,-0.07218 v -0.578199 c 0,-0.03986 -0.03241,-0.0723 -0.07241,-0.0723 z m 2.891238,0 c -0.0027,0 -0.0049,1.15e-4 -0.0073,5.41e-4 -0.03642,0.0038 -0.06497,0.03458 -0.06497,0.07194 v 0.578199 c 0,0.04001 0.03247,0.07218 0.07233,0.07218 h 0.578096 c 0.03999,0 0.07228,-0.03218 0.07228,-0.07218 0,-0.0026 -1.04e-4,-0.0049 0,-0.0074 -0.0035,-0.0364 -0.03441,-0.06494 -0.07192,-0.06494 h -0.505913 v -0.505901 c 0,-0.03986 -0.03213,-0.0723 -0.07218,-0.0723 z m 6.182892,0.04877 c -0.13126,0.0056 -0.255144,0.06649 -0.339818,0.167063 l -0.759503,0.902062 -0.495626,-0.495632 c -0.17922,-0.179044 -0.470584,-0.179044 -0.649803,0 l -0.136878,0.136883 c -0.02818,0.02834 -0.02818,0.07406 0,0.10224 l 0.09282,0.09271 -1.295095,1.294974 c -0.02834,0.02818 -0.02834,0.07394 0,0.102117 l 1.771303,1.771294 c 0.01407,0.01419 0.03251,0.02122 0.05106,0.02122 0.01844,0 0.03688,-0.0071 0.05106,-0.02122 l 1.295095,-1.294851 0.07809,0.07798 c 0.01353,0.01372 0.03189,0.02125 0.05106,0.02125 0.01925,0 0.03754,-0.0076 0.05106,-0.02125 l 0.136882,-0.136763 c 0.08689,-0.08672 0.134716,-0.202114 0.134716,-0.32495 0,-0.122685 -0.04783,-0.238111 -0.134716,-0.32483 l -0.480898,-0.480906 0.902188,-0.759747 c 0.100403,-0.08454 0.161332,-0.20843 0.16693,-0.339676 0.0057,-0.131246 -0.04442,-0.259767 -0.137372,-0.352714 -0.09293,-0.09279 -0.221326,-0.142695 -0.352556,-0.137247 z m 0.006,0.144491 c 0.09155,-0.0042 0.179088,0.02988 0.244316,0.09512 0.06522,0.06523 0.09904,0.151874 0.09498,0.244194 -0.0039,0.09217 -0.04494,0.175792 -0.115608,0.235264 l -0.911608,0.767713 -0.314953,-0.315052 0.76749,-0.911598 c 0.05947,-0.07068 0.143051,-0.111749 0.235383,-0.115639 z m -14.140762,0.37577 v 0.228742 c 0,0.03986 0.03242,0.07218 0.07231,0.07218 h 0.725355 c 0.03992,0 0.07231,-0.03233 0.07231,-0.07218 v -0.228742 c 0.526926,0.149306 0.942776,0.565052 1.09208,1.092058 h -0.228771 c -0.01014,0 -0.01952,0.0021 -0.02822,0.0057 -0.02603,0.01099 -0.04408,0.03662 -0.04408,0.06651 v 0.725583 c 0,0.03986 0.03241,0.07218 0.07231,0.07218 h 0.22877 c -0.084,0.296358 -0.252332,0.55758 -0.4773,0.756006 -0.174975,0.154331 -0.384241,0.270731 -0.61478,0.336054 v -0.228748 c 0,-0.04001 -0.03239,-0.07243 -0.07231,-0.07243 H 43.04957 c -0.03989,0 -0.07231,0.03242 -0.07231,0.07243 V 73.7097 c -0.526922,-0.149306 -0.942753,-0.565207 -1.092054,-1.09206 h 0.22875 c 0.03992,0 0.07231,-0.03233 0.07231,-0.07218 v -0.725583 c 0,-0.03986 -0.03239,-0.07219 -0.07231,-0.07219 h -0.22875 c 0.0094,-0.03294 0.01979,-0.0655 0.03114,-0.09753 0.170626,-0.480457 0.566904,-0.854551 1.060919,-0.994528 z m 12.214718,0.06349 c 0.08064,2.1e-5 0.161278,0.03076 0.222729,0.0921 l 1.496783,1.496555 c 0.05947,0.05947 0.0921,0.138634 0.0921,0.22271 0,0.08423 -0.03263,0.163356 -0.0921,0.222829 l -0.08582,0.0857 -1.94211,-1.942094 0.08582,-0.0857 c 0.06135,-0.06142 0.141984,-0.09212 0.222598,-0.0921 z m 6.070976,0.01677 c -0.04002,0 -0.0722,0.03217 -0.0722,0.07218 v 0.290549 h -1.588778 c -0.03984,0 -0.07231,0.03233 -0.07231,0.07218 0,0.04002 0.03247,0.07231 0.07231,0.07231 h 1.334333 c -0.560773,0.244771 -0.959831,0.778687 -1.030862,1.392625 -0.0047,0.04093 -0.008,0.08215 -0.0099,0.123726 h -0.29371 c -0.03983,0 -0.0723,0.03245 -0.0723,0.07231 v 0.725466 c 0,0.03986 0.03243,0.07218 0.0723,0.07218 h 0.725469 c 0.03986,0 0.0722,-0.03233 0.0722,-0.07218 v -0.725466 c 0,-0.03986 -0.03232,-0.07231 -0.0722,-0.07231 h -0.287301 c 0,-0.0212 0.0027,-0.04225 0.0042,-0.06325 0.05671,-0.651143 0.516382,-1.21167 1.146369,-1.390696 v 0.227899 c 0,0.04002 0.03216,0.07242 0.0722,0.07242 h 0.725569 c 0.03987,0 0.07221,-0.03241 0.07221,-0.07242 v -0.227899 c 0.650135,0.184801 1.118894,0.776076 1.15035,1.453944 h -0.287041 c -0.0049,0 -0.0099,5.42e-4 -0.01485,0.0013 -0.03294,0.0067 -0.0577,0.03598 -0.0577,0.07086 v 0.725466 c 0,0.03986 0.03228,0.07218 0.07233,0.07218 h 0.725338 c 0.03999,0 0.07243,-0.03233 0.07243,-0.07218 v -0.725466 c 0,-0.03986 -0.03244,-0.07231 -0.07243,-0.07231 h -0.293579 c -0.02834,-0.665258 -0.442487,-1.255263 -1.040627,-1.516352 h 1.334206 c 0.03999,0 0.07243,-0.0323 0.07243,-0.0723 0,-0.03986 -0.03244,-0.07218 -0.07243,-0.07218 h -1.588674 v -0.290548 c 0,-0.04002 -0.03228,-0.07218 -0.0722,-0.07218 z m -13.035292,0.118781 c -0.03984,0 -0.07231,0.03217 -0.07231,0.07218 v 2.511604 c 0,0.03986 0.03247,0.07218 0.07231,0.07218 h 2.511474 c 0.04002,0 0.07231,-0.03233 0.07231,-0.07218 v -2.511604 c 0,-0.04001 -0.03228,-0.07219 -0.07231,-0.07219 z m -0.767935,2.701117 c -0.03989,0 -0.0722,0.03245 -0.0722,0.0723 0,0.04002 0.03231,0.07243 0.0722,0.07243 h 0.505865 v 0.505772 c 0,0.0075 0,0.01469 0.0034,0.02149 0,0.0024 0.0026,0.0046 0.0026,0.0067 0.0029,0.0065 0.0065,0.0125 0.01066,0.01786 0.0026,0.0019 0.0033,0.0034 0.0047,0.0051 0.0049,0.0049 0.01043,0.0091 0.01667,0.01242 0.0026,0.0013 0.0042,0.0024 0.0062,0.0031 0.0026,0.001 0.0044,0.0016 0.0068,0.0024 0.0026,7.73e-4 0.0044,0.0013 0.0068,0.0019 0.0026,5.41e-4 0.0047,0.001 0.0073,0.001 0.0026,2.35e-4 0.0049,5.42e-4 0.0073,5.42e-4 0.04002,0 0.07244,-0.03242 0.07244,-0.07242 v -0.578198 c 0,-0.03986 -0.03241,-0.07231 -0.07244,-0.07231 z m 3.469302,0 c -0.0027,0 -0.0049,1.14e-4 -0.0073,5.41e-4 -0.03642,0.0038 -0.06497,0.03458 -0.06497,0.07194 v 0.578198 c 0,0.04001 0.03244,0.07243 0.07231,0.07243 0.04002,0 0.07218,-0.03242 0.07218,-0.07243 v -0.505772 h 0.505913 c 0.04002,0 0.07228,-0.03241 0.07228,-0.07243 0,-0.03985 -0.03224,-0.07231 -0.07228,-0.07231 z M 35.31739,76.157787 c -0.03992,0 -0.07231,0.03244 -0.07231,0.0723 v 0.725463 c 0,0.03986 0.03239,0.07231 0.07231,0.07231 h 0.29053 v 2.451977 h -0.290519 c -0.03992,0 -0.07231,0.03234 -0.07231,0.07218 v 0.725466 c 0,0.03986 0.03239,0.0723 0.07231,0.0723 h 0.725466 c 0.03992,0 0.07228,-0.03245 0.07228,-0.0723 v -0.290429 h 2.451872 v 0.290429 c 0,0.03986 0.03237,0.0723 0.07231,0.0723 h 0.725465 c 0.03992,0 0.07228,-0.03245 0.07228,-0.0723 v -0.725466 c 0,-0.03986 -0.03236,-0.07218 -0.07228,-0.07218 h -0.695522 l -2.554044,-2.554434 v -0.695407 c 0,-0.03985 -0.03236,-0.07231 -0.07231,-0.07231 z m 8.094797,0 c -0.0125,0 -0.025,0.0033 -0.03609,0.0096 l -1.752614,1.011907 c -0.02135,0.01373 -0.03661,0.03669 -0.03609,0.06253 v 2.023695 c 0,0.02587 0.0138,0.04985 0.03609,0.06277 l 1.752614,1.011788 c 0.02291,0.01229 0.04939,0.01229 0.07228,0 l 1.752579,-1.011788 c 0.0224,-0.01292 0.03609,-0.03693 0.03609,-0.06277 v -2.023695 c 0,-0.002 0,-0.0038 0,-0.0058 0,-0.02397 -0.01537,-0.04397 -0.03536,-0.05674 l -1.752568,-1.011903 c -0.0112,-0.0064 -0.02369,-0.0096 -0.03622,-0.0096 z m 4.047512,0 c -0.04002,0 -0.07233,0.03244 -0.07233,0.0723 v 0.725463 c 0,0.03986 0.03231,0.07231 0.07233,0.07231 h 0.29053 v 2.451977 h -0.29053 c -0.04002,0 -0.07233,0.03234 -0.07233,0.07218 v 0.725466 c 0,0.03488 0.02472,0.06411 0.0577,0.07086 0.0047,7.73e-4 0.0096,0.0012 0.01485,0.0012 h 0.725466 c 0.03999,0 0.07218,-0.03245 0.07218,-0.07231 v -0.355492 l 2.452114,-0.374195 v 0.214618 c 0,0.04001 0.03224,0.07219 0.07228,0.07219 h 0.725365 c 0.03499,0 0.0641,-0.02472 0.07085,-0.0577 0,-0.0047 0.0027,-0.0095 0.0027,-0.01448 v -0.725583 c 0,-0.03986 -0.03224,-0.07218 -0.07231,-0.07218 H 51.218109 V 77.5334 h 0.290455 c 0.04002,0 0.07231,-0.03217 0.07231,-0.07219 v -0.725585 c 0,-0.03986 -0.03224,-0.07218 -0.07231,-0.07218 h -0.725361 c -0.04002,0 -0.07228,0.03234 -0.07228,0.07218 v 0.223915 l -2.452178,-0.374075 v -0.355613 c 0,-0.03985 -0.03214,-0.07231 -0.07218,-0.07231 z m 7.083097,0 c -0.02497,0 -0.047,0.01266 -0.05999,0.03188 -0.0027,0.0039 -0.0049,0.008 -0.0068,0.01233 -0.0027,0.0043 -0.0031,0.0088 -0.0042,0.0135 0,0.0047 -0.0027,0.0096 -0.0027,0.01462 v 1.588654 h -0.290397 c -0.03989,0 -0.07233,0.03234 -0.07233,0.07218 v 0.725585 c 0,0.03986 0.03244,0.07219 0.07233,0.07219 h 0.290405 v 1.588784 c 0,0.005 0,0.0099 0.0027,0.01461 0,0.0047 0.0027,0.0092 0.0042,0.01349 0.0027,0.0043 0.0042,0.0085 0.0068,0.01233 0.0027,0.0039 0.0057,0.0074 0.0089,0.01064 0.0035,0.0035 0.0068,0.0063 0.01067,0.0089 0.01171,0.0078 0.02551,0.01233 0.04046,0.01233 0.03984,0 0.0723,-0.03245 0.0723,-0.07231 v -1.334328 c 0.260924,0.598156 0.850915,1.012306 1.516339,1.040642 V 80.2775 c 0,0.03986 0.03213,0.07231 0.07218,0.07231 h 0.725493 c 0.04,0 0.07229,-0.03245 0.07229,-0.07231 v -0.725429 c 0,-0.03986 -0.03228,-0.07219 -0.07229,-0.07219 h -0.725493 c -0.04002,0 -0.07218,0.03234 -0.07218,0.07219 v 0.287287 c -0.678023,-0.03145 -1.26929,-0.500291 -1.453926,-1.150604 h 0.227879 c 0.04002,0 0.07218,-0.03234 0.07218,-0.07218 v -0.725587 c 0,-0.03986 -0.03216,-0.07219 -0.07218,-0.07219 h -0.227879 c 0.0057,-0.02031 0.01198,-0.04052 0.01848,-0.06047 0.2032,-0.618612 0.778659,-1.059418 1.43549,-1.089886 v 0.287166 c 0,0.03986 0.03212,0.07231 0.07218,0.07231 h 0.725492 c 0.04,0 0.07229,-0.03244 0.07229,-0.07231 v -0.725463 c 0,-0.04001 -0.03228,-0.0723 -0.07229,-0.0723 h -0.725492 c -0.0049,0 -0.0099,6.57e-4 -0.01457,0.0016 -0.03294,0.0067 -0.0577,0.03572 -0.0577,0.07074 v 0.293565 c -0.665421,0.02835 -1.255412,0.442637 -1.51634,1.040636 v -1.334201 c 0,-0.04001 -0.03243,-0.07231 -0.0723,-0.07231 z m 7.523944,0.07653 c -0.08343,0 -0.161909,0.0325 -0.220909,0.0915 l -1.711649,1.711662 c -0.059,0.059 -0.0915,0.137444 -0.0915,0.2209 0,0.05059 0.01326,0.0986 0.0356,0.142195 l -0.450844,0.450968 c -0.0138,0.01354 -0.02107,0.03191 -0.02107,0.05106 0,0.01916 0.0075,0.03752 0.02107,0.05106 l 1.29835,1.298351 c 0.01303,0.01337 0.03224,0.02123 0.05106,0.02112 h 1.784578 c 0.03987,0 0.07231,-0.03233 0.07231,-0.07218 0,-0.03986 -0.03244,-0.0723 -0.07231,-0.0723 h -1.610124 l 0.327605,-0.327486 c 0.04359,0.02243 0.09174,0.03561 0.14217,0.03561 0.08347,0 0.161796,-0.03237 0.220797,-0.09137 l 1.711885,-1.711787 c 0.121758,-0.121745 0.121758,-0.319923 0,-0.441672 l -1.266221,-1.266124 c -0.05887,-0.059 -0.137349,-0.0915 -0.220797,-0.0915 z m -13.809423,0.497563 0.566269,0.08643 v 0.833015 l -0.928873,-0.08075 v -0.542713 h 0.290426 c 0.04002,0 0.07218,-0.03244 0.07218,-0.07231 z m 0.710726,0.108519 1.030657,0.157282 v 0.756004 l -1.030657,-0.08968 z m 1.175113,0.179131 0.56627,0.08643 v 0.355489 c 0,0.04002 0.03224,0.07219 0.07228,0.07219 h 0.290323 v 0.313478 l -0.928873,-0.08088 z m -14.390726,0.0083 h 0.260482 l 2.554096,2.554098 v 0.26037 H 36.115169 V 79.55199 c 0,-0.03986 -0.03237,-0.07218 -0.07231,-0.07218 h -0.2904 z m 5.97945,0.339196 1.608104,0.928379 v 1.856876 L 41.73188,79.223905 Z m 3.360683,0 v 1.856879 l -1.608095,0.928376 v -1.856877 z m 2.80215,0.348609 0.928873,0.08075 v 0.914619 l -0.928873,0.08075 z m 1.07333,0.09343 1.030657,0.08968 v 0.709893 l -1.030657,0.08969 z m 1.175113,0.102238 0.928873,0.08088 v 0.523035 l -0.928873,0.081 z m 10.025891,0.602822 1.196254,1.196237 -0.388454,0.388442 -1.19623,-1.196234 z m -9.097018,0.146184 v 0.30431 h -0.290323 c -0.03999,0 -0.07228,0.03231 -0.07228,0.07218 v 0.364785 l -0.56627,0.08631 v -0.746707 z m -1.073329,0.09343 v 0.756246 l -1.030657,0.157164 v -0.823721 z m -1.175114,0.102363 v 0.833018 l -0.566269,0.08643 v -0.223558 c 0,-0.03986 -0.03214,-0.07218 -0.07218,-0.07218 h -0.290426 v -0.542951 z m 2.100235,3.32096 c -0.188876,0 -0.366531,0.07368 -0.50011,0.207259 l -2.542277,2.54226 c -0.0078,0.0076 -0.01249,0.0167 -0.01641,0.02633 -2.35e-4,7.73e-4 0,0.0012 -0.0026,0.0015 l -0.455192,1.353275 c -0.01537,0.04469 0.02031,0.09689 0.06845,0.09548 h 3.095485 c 0.01017,0 0.01925,-0.0019 0.02814,-0.0058 0.02602,-0.01098 0.04406,-0.03661 0.04406,-0.06663 0,-0.03986 -0.03232,-0.07231 -0.07218,-0.07231 h -2.653829 l 0.934915,-0.314447 c 0,-9.6e-5 0,-7.73e-4 0.0026,-0.0012 0.0096,-0.0035 0.01874,-0.0087 0.02629,-0.01655 l 2.434718,-2.43459 c 1e-4,0 0.107431,-0.107435 0.107431,-0.107435 0.133727,-0.13358 0.207158,-0.311211 0.207158,-0.500219 0,-0.188788 -0.07338,-0.366407 -0.207027,-0.499975 h -1.31e-4 v -1.24e-4 c -0.133421,-0.133502 -0.311025,-0.207135 -0.499979,-0.207135 z m -12.359469,0.06615 c -0.210645,0 -0.421266,0.08022 -0.58158,0.240575 l -0.813944,0.814062 -0.02526,-0.02524 c -0.110558,-0.11069 -0.290609,-0.11069 -0.401244,0 -0.110582,0.110535 -0.110582,0.290579 0,0.401114 l 0.230565,0.230558 -1.37984,1.44972 c -0.0081,0.0082 -0.01354,0.01828 -0.01693,0.02923 l -0.27785,0.930674 c -0.01745,0.05231 0.03614,0.106786 0.08845,0.09028 l 0.947092,-0.26157 c 0.01276,-0.0035 0.02396,-0.01028 0.0331,-0.01979 l 1.377402,-1.447064 0.21174,0.21172 c 0.05525,0.05527 0.127846,0.08293 0.200465,0.08293 0.07267,0 0.145318,-0.02768 0.200648,-0.08293 0.110556,-0.11069 0.110556,-0.290695 0,-0.401234 l -0.02526,-0.02524 0.813942,-0.813942 c 0.320708,-0.320721 0.320708,-0.842557 0,-1.163278 -0.160315,-0.160355 -0.370961,-0.240574 -0.581607,-0.240574 z m 5.545258,0.01801 c -0.03992,0 -0.07228,0.03232 -0.07228,0.07219 v 0.18203 h -0.182031 c -0.03992,0 -0.07231,0.03228 -0.07231,0.07218 0,0.03986 0.03239,0.0723 0.07231,0.0723 h 0.182031 v 0.181914 c 0,0.04001 0.03236,0.07243 0.07228,0.07243 0.03994,0 0.0722,-0.0324 0.0722,-0.07243 v -0.181914 h 0.18203 c 0.03991,0 0.07231,-0.03243 0.07231,-0.0723 0,-0.03986 -0.0324,-0.07218 -0.07231,-0.07218 h -0.18203 v -0.18203 c 0,-0.03985 -0.03226,-0.07219 -0.0722,-0.07219 z m 18.863662,0.305756 c -0.04002,0 -0.07244,0.03228 -0.07244,0.0723 v 0.269544 c -0.749004,0.038 -1.347353,0.657647 -1.347353,1.416161 0,0.67865 -0.533542,1.233725 -1.203006,1.271552 v -0.262177 c 0,-0.04002 -0.03244,-0.0723 -0.07228,-0.0723 h -0.67623 c -0.03984,0 -0.07231,0.03228 -0.07231,0.0723 v 0.676215 c 0,0.03986 0.03247,0.0723 0.07231,0.0723 h 0.67623 c 0.03984,0 0.07228,-0.03243 0.07228,-0.0723 v -0.269421 c 0.749193,-0.03816 1.347515,-0.657802 1.347515,-1.416169 0,-0.02122 0,-0.04229 0.0027,-0.06325 0.03193,-0.649714 0.552918,-1.171655 1.20131,-1.208303 v 0.262185 c 0,0.03986 0.0324,0.0723 0.07244,0.0723 h 0.676071 c 0.04002,0 0.07244,-0.03243 0.07244,-0.0723 v -0.676338 c 0,-0.04001 -0.0324,-0.0723 -0.07244,-0.0723 z m -12.605933,0.0781 0.795955,0.795839 -2.332574,2.332586 -0.795872,-0.795838 z m 3.681648,0.162361 c -0.244885,-0.0066 -0.476386,0.14529 -0.559606,0.388918 -0.102146,0.299698 0.05822,0.626883 0.357786,0.729327 v 0 l 1.023961,0.349455 -0.970736,0.476804 v 1.2e-4 1.19e-4 c -0.137643,0.06757 -0.240671,0.184795 -0.290196,0.329902 -0.0495,0.145255 -0.03958,0.301233 0.02814,0.439015 0.09983,0.203177 0.304253,0.321332 0.516776,0.321332 0.08485,-9.3e-5 0.171094,-0.0189 0.252539,-0.05878 0.284282,-0.139808 0.401946,-0.48484 0.262281,-0.769284 -0.07549,-0.153663 -0.211143,-0.258168 -0.364632,-0.300209 l 0.759623,-0.37323 1.63596,0.558403 c 0.0078,0.0027 0.01562,0.0039 0.02343,0.0039 0.03008,0 0.05816,-0.01898 0.06845,-0.04901 0.01276,-0.03769 -0.0073,-0.07882 -0.04515,-0.09174 v 1.2e-4 l -1.499206,-0.511565 1.42182,-0.698184 c 0.03584,-0.01759 0.05057,-0.06096 0.03294,-0.09693 -0.01747,-0.0358 -0.06088,-0.05055 -0.09668,-0.03294 l -1.551492,0.76204 -0.802484,-0.27365 c 0.147296,-0.06119 0.269413,-0.181242 0.324849,-0.343781 0.102302,-0.299856 -0.05854,-0.627153 -0.358385,-0.729439 -0.05629,-0.01925 -0.113447,-0.02915 -0.169977,-0.03069 z m -11.323548,0.18154 c -0.03992,0 -0.07228,0.03228 -0.07228,0.07231 v 0.18191 h -0.18203 c -0.03992,0 -0.07233,0.03243 -0.07233,0.0723 0,0.03986 0.03242,0.07218 0.07233,0.07218 h 0.18203 v 0.182038 c 0,0.04001 0.03236,0.0723 0.07228,0.0723 0.03992,0 0.0722,-0.03228 0.0722,-0.0723 v -0.182038 h 0.182031 c 0.03989,0 0.07228,-0.03232 0.07228,-0.07218 0,-0.03985 -0.03239,-0.0723 -0.07228,-0.0723 h -0.182031 v -0.18191 c 0,-0.04001 -0.03229,-0.07231 -0.0722,-0.07231 z m -5.782463,0.34523 c 0.03565,0 0.07124,0.01349 0.09837,0.04056 l 1.213728,1.213618 c 0.05421,0.05433 0.05421,0.142576 0,0.196756 -0.05426,0.05433 -0.142583,0.05433 -0.196872,0 l -1.213643,-1.213464 c -0.05424,-0.05434 -0.05424,-0.142696 0,-0.196879 0.02713,-0.0271 0.06273,-0.04056 0.09837,-0.04056 z m 8.238664,0.03815 c -0.03989,0 -0.07228,0.03224 -0.07228,0.0723 v 0.182026 h -0.181915 c -0.03991,0 -0.07231,0.03243 -0.07231,0.07231 0,0.03985 0.03241,0.07218 0.07231,0.07218 h 0.181927 v 0.182034 c 0,0.04001 0.03241,0.07242 0.07228,0.07242 0.03994,0 0.07233,-0.0324 0.07233,-0.07242 v -0.182034 h 0.182006 c 0.03994,0 0.0722,-0.03232 0.0722,-0.07218 0,-0.03986 -0.03228,-0.07231 -0.0722,-0.07231 h -0.182006 v -0.182026 c 0,-0.04001 -0.03241,-0.0723 -0.07233,-0.0723 z m -1.230392,0.02536 c -0.09116,1.9e-5 -0.182317,0.03479 -0.251656,0.104173 l -2.22809,2.228057 c -0.138834,0.138873 -0.138834,0.364761 0,0.503478 0.06942,0.06943 0.160497,0.104169 0.251681,0.104169 0.09121,0 0.182421,-0.03471 0.251813,-0.104169 l 2.228064,-2.228054 c 0.138781,-0.138721 0.138781,-0.364605 0,-0.503481 -0.06944,-0.06944 -0.160628,-0.104192 -0.251812,-0.104173 z m 1.3e-4,0.144489 c 0.05413,0 0.108318,0.02064 0.149561,0.06192 0.08244,0.08236 0.08244,0.216606 0,0.299122 l -0.145082,0.144969 -0.299149,-0.299119 0.145005,-0.144972 c 0.04122,-0.04126 0.09548,-0.06192 0.149665,-0.06192 z m -6.876235,0.464371 0.566976,0.56685 -1.366068,1.435355 -0.801861,0.221384 0.235486,-0.789081 z m 18.722075,0.181064 c -0.04002,0 -0.07233,0.03243 -0.07233,0.0723 0,0.04001 0.03228,0.07231 0.07233,0.07231 h 0.180704 c 0.03983,0 0.07228,-0.03228 0.07228,-0.07231 0,-0.03986 -0.03243,-0.0723 -0.07228,-0.0723 z m 0.464592,0 c -0.0027,0 -0.0052,1.16e-4 -0.0075,7.73e-4 -0.03642,0.0039 -0.06481,0.03456 -0.06481,0.07195 0,0.04001 0.03244,0.07231 0.07228,0.07231 h 0.283918 c 0.03999,0 0.07231,-0.03228 0.07231,-0.07231 0,-0.03986 -0.03228,-0.0723 -0.07231,-0.0723 z m 0.567963,0 c -0.0027,0 -0.0052,1.16e-4 -0.0075,7.73e-4 -0.03649,0.0039 -0.06481,0.03456 -0.06481,0.07195 0,0.04001 0.03228,0.07231 0.07231,0.07231 h 0.283918 c 0.04002,0 0.07231,-0.03228 0.07231,-0.07231 0,-0.03986 -0.03224,-0.0723 -0.07231,-0.0723 z m 0.567782,0 c -0.0027,0 -0.0027,5.8e-5 -0.0035,1.2e-4 -0.0027,6.5e-5 -0.0027,1.16e-4 -0.0039,2.36e-4 -0.0027,1.23e-4 -0.0027,2.28e-4 -0.0035,7.73e-4 -0.0027,1.78e-4 -0.0027,7.73e-4 -0.0039,7.73e-4 -0.0027,2.36e-4 -0.0027,7.73e-4 -0.0035,0.0012 -0.02424,0.0062 -0.04356,0.02478 -0.05096,0.04852 0,0.0012 0,0.0023 0,0.0035 0,0.0012 0,0.0023 0,0.0035 0,0.0012 0,0.0023 0,0.0035 -1.78e-4,0.0012 0,0.0023 0,0.0035 -10e-5,0.0012 -1.51e-4,0.0023 0,0.0035 -7.7e-5,0.0012 -10e-5,0.0027 -10e-5,0.0039 0,0.0012 2.3e-5,0.0027 10e-5,0.0039 8.1e-5,0.0012 1.31e-4,0.0023 0,0.0035 1.31e-4,0.0012 0,0.0023 0,0.0035 1.86e-4,0.0012 0,0.0023 0,0.0035 2.36e-4,0.0012 0,0.0023 0,0.0035 0.0062,0.02428 0.0247,0.04366 0.04854,0.05106 0,7.73e-4 0.0027,7.73e-4 0.0035,0.0012 0.0027,2.32e-4 0.0027,7.73e-4 0.0035,7.73e-4 0,2.36e-4 0.0027,7.73e-4 0.0039,7.73e-4 0.0027,7.73e-4 0.0049,7.73e-4 0.0075,7.73e-4 0.0027,5.8e-5 0.0027,0 0.0035,0 h 0.180705 c 0.03986,0 0.0722,-0.03228 0.0722,-0.07231 0,-0.03986 -0.03232,-0.0723 -0.0722,-0.0723 z m -13.515594,1.012754 c -0.03992,0 -0.07218,0.03228 -0.07218,0.0723 v 0.182031 h -0.18203 c -0.03992,0 -0.07231,0.03232 -0.07231,0.07219 0,0.03986 0.03239,0.07218 0.07231,0.07218 h 0.18203 v 0.18203 c 0,0.04002 0.03226,0.0723 0.07218,0.0723 0.03992,0 0.07233,-0.03224 0.07233,-0.0723 v -0.18203 h 0.182005 c 0.03992,0 0.07231,-0.03232 0.07231,-0.07218 0,-0.03986 -0.03239,-0.07219 -0.07231,-0.07219 h -0.182001 v -0.182031 c 0,-0.04001 -0.03242,-0.0723 -0.07233,-0.0723 z m 17.380938,3.099734 c -0.04001,0 -0.0722,0.03228 -0.0722,0.07231 v 0.719426 c 0,0.03986 0.03216,0.0723 0.0722,0.0723 h 0.07229 l -1.398911,2.463928 h -0.334352 c -0.03984,0 -0.07231,0.03232 -0.07231,0.07218 v 0.719674 c 0,0.03985 0.03247,0.07218 0.07231,0.07218 h 0.725465 c 0.03987,0 0.0722,-0.03232 0.0722,-0.07218 V 92.18106 h 2.45206 v 0.238889 c 0,0.02988 0.01825,0.05554 0.04422,0.06651 0.0042,0.0019 0.0089,0.0031 0.01353,0.0042 0.0047,0.0012 0.0096,0.0012 0.01457,0.0012 h 0.725333 c 0.04002,0 0.07243,-0.03232 0.07243,-0.07218 v -0.719674 c 0,-0.03487 -0.0247,-0.06399 -0.05783,-0.07073 -0.0047,-0.0012 -0.0096,-0.0012 -0.01457,-0.0012 h -0.334355 l -1.398908,-2.463928 h 0.07241 c 0.03986,0 0.0722,-0.03243 0.0722,-0.0723 v -0.719431 c 0,-0.04001 -0.03232,-0.0723 -0.0722,-0.0723 z m -25.50049,0.0039 c -0.178568,0 -0.323755,0.145286 -0.323755,0.323864 v 0.446619 c 0,0.178578 0.145187,0.323867 0.323755,0.323867 h 0.192289 v 0.290668 c 0,0.14728 0.119878,0.267005 0.267122,0.267005 0.04416,0 0.08579,-0.01079 0.1225,-0.02984 v 0.211495 c 0,0.147439 0.11993,0.267253 0.267383,0.267253 0.147477,0 0.267356,-0.119814 0.267356,-0.267253 v -0.739347 h 1.653013 c 0.178541,0 0.323858,-0.145285 0.323858,-0.323863 v -0.150887 h 0.242855 v 0.704222 l -1.97734,0.759136 c -0.02794,0.01075 -0.04635,0.03754 -0.04635,0.0676 v 0.216308 c -0.12433,0.03236 -0.21679,0.144636 -0.21679,0.278843 v 1.249462 c 0,0.159431 0.129694,0.289102 0.289098,0.289102 0.159429,0 0.289099,-0.129671 0.289099,-0.289102 v -1.249462 c 0,-0.134207 -0.09259,-0.246455 -0.216922,-0.278843 V 90.50406 l 1.977366,-0.75914 c 0.02793,-0.01055 0.04645,-0.03758 0.04645,-0.06748 v -0.826019 c 0,-0.04001 -0.03236,-0.0723 -0.07228,-0.0723 h -0.315188 v -0.151246 c 0,-0.178574 -0.145317,-0.323864 -0.323858,-0.323864 z m 5.797055,0.02037 c -0.159404,0 -0.289099,0.129714 -0.289099,0.288983 v 3.141467 c 0,0.419895 0.341538,0.761437 0.761451,0.761437 h 0.0026 3.140145 c 0.01017,0 0.01952,-7.73e-4 0.02946,-0.0012 0.145576,-0.01485 0.259625,-0.138188 0.259625,-0.287648 v -0.944669 c 0,-0.01 0,-0.01987 -0.0026,-0.02961 -0.01458,-0.145611 -0.138052,-0.259525 -0.28751,-0.259525 h -1.3e-4 -1.331679 l 0.929474,-0.929465 c 0.112717,-0.112716 0.112717,-0.296122 0,-0.408842 l -0.669095,-0.669213 c -0.112718,-0.11272 -0.296103,-0.11272 -0.408846,0 l -0.898566,0.898681 v -1.271192 c 0,-0.159265 -0.129668,-0.288979 -0.289071,-0.288979 z m 7.924473,0.133387 c -1.156001,0 -2.096616,0.656046 -2.096616,1.462516 0,0.658408 0.71859,1.284204 1.677617,1.466985 0.02187,0.04437 0.05098,0.08586 0.08788,0.122763 0.09126,0.09123 0.210986,0.136877 0.330891,0.136877 0.09543,0 0.190516,-0.02942 0.27147,-0.08715 0.148677,0.194145 0.134615,0.473741 -0.04286,0.651225 -0.02832,0.02838 -0.02832,0.07406 0,0.102244 0.01406,0.01419 0.03253,0.02122 0.05106,0.02122 0.0094,0 0.01847,-0.0019 0.02717,-0.0053 0.0086,-0.0035 0.01694,-0.0089 0.02396,-0.01593 0.01458,-0.01461 0.02838,-0.02969 0.04127,-0.04527 0.193459,-0.234234 0.194738,-0.575131 0.0034,-0.810564 0.135761,-0.183089 0.121178,-0.443255 -0.04478,-0.609219 -0.182319,-0.182313 -0.479124,-0.182313 -0.661622,0 -0.03487,0.03487 -0.06288,0.07383 -0.08436,0.115399 -0.703412,-0.159427 -1.266715,-0.618884 -1.266715,-1.043294 0,-0.01809 0,-0.03599 0.0026,-0.05384 0.04512,-0.552991 0.781397,-0.994163 1.680014,-0.994163 0.92697,0 1.681,0.470081 1.681,1.047999 0,0.331931 -0.261914,0.648979 -0.700469,0.848104 -0.01222,0.0057 -0.02424,0.01237 -0.03487,0.02003 -0.07533,0.0538 -0.107482,0.153191 -0.07314,0.242144 0.0203,0.05309 0.06212,0.09609 0.114904,0.117571 0.05293,0.0218 0.112928,0.02064 0.164769,-0.0031 0.590691,-0.26825 0.94322,-0.726173 0.94322,-1.224841 0,-0.80647 -0.940019,-1.462516 -2.095394,-1.462516 z m -7.924577,0.0111 h 0.946117 c 0.07973,0 0.144485,0.06478 0.144485,0.144493 v 3.141464 c 0,0.340138 -0.276861,0.616758 -0.616975,0.616823 v 0 c -0.340158,0 -0.616914,-0.276642 -0.616914,-0.616823 v -3.141464 c 0,-0.01 0,-0.01972 0.0029,-0.02911 0.01354,-0.0658 0.07181,-0.115403 0.141568,-0.115403 z m 0.250223,0.115518 c -0.03992,0 -0.07231,0.03232 -0.07231,0.07218 v 0.452905 c 0,0.04001 0.03239,0.0723 0.07231,0.0723 h 0.537376 c 0.03994,0 0.07233,-0.03228 0.07233,-0.0723 v -0.452905 c 0,-0.03985 -0.03239,-0.07218 -0.07233,-0.07218 z m 11.721128,0.200621 c -0.04,0 -0.07218,0.0324 -0.07218,0.07242 v 0.180588 c 0,0.03985 0.03216,0.0723 0.07218,0.0723 0.04002,0 0.07233,-0.03244 0.07233,-0.0723 v -0.108398 h 0.108498 c 0.03986,0 0.07218,-0.03232 0.07218,-0.07219 0,-0.04001 -0.03228,-0.07242 -0.07218,-0.07242 z m 0.590273,0 c -0.0027,0 -0.0049,1.16e-4 -0.0075,7.74e-4 -0.03642,0.0039 -0.06481,0.03452 -0.06481,0.07206 0,0.03985 0.03228,0.07218 0.07218,0.07218 h 0.409573 c 0.03999,0 0.07228,-0.03232 0.07228,-0.07218 0,-0.04001 -0.03228,-0.07243 -0.07228,-0.07243 z m 0.819154,0 c -0.0027,0 -0.0052,1.16e-4 -0.0075,7.74e-4 -0.03642,0.0039 -0.06484,0.03452 -0.06484,0.07206 0,0.03985 0.03243,0.07218 0.07233,0.07218 h 0.108502 v 0.108398 c 0,0.03986 0.03213,0.07231 0.07218,0.07231 0.04002,0 0.07231,-0.03243 0.07231,-0.07231 v -0.180577 c 0,-0.04001 -0.03224,-0.07243 -0.07231,-0.07243 z m 0.61428,0.09331 c -0.03986,0 -0.0722,0.03232 -0.0722,0.07219 0,0.04001 0.03232,0.07243 0.0722,0.07243 0.712294,0 1.299343,0.545051 1.366415,1.240049 l -0.50831,-0.311188 c -0.03421,-0.02084 -0.07861,-0.01017 -0.09947,0.02378 -0.0208,0.0341 -0.01017,0.07861 0.02397,0.09947 l 0.625271,0.382771 c 0.03425,0.02084 0.07697,0.0081 0.09923,-0.02405 l 0.382755,-0.625275 c 0.02084,-0.03394 0.01017,-0.07848 -0.02397,-0.09934 -0.03425,-0.02084 -0.07858,-0.01005 -0.09947,0.02405 l -0.267458,0.436966 c -0.10977,-0.729865 -0.739188,-1.291832 -1.499098,-1.291832 z m -11.656802,0.167541 c 0.037,0 0.07405,0.01407 0.102251,0.04225 l 0.669067,0.669093 c 0.05632,0.05636 0.05637,0.148003 0,0.204363 l -1.031826,1.031824 h -0.391375 l 0.09319,-0.09343 c 0.02817,-0.02834 0.02807,-0.07394 0,-0.102116 l -0.38023,-0.379512 c -0.02825,-0.02837 -0.07392,-0.02837 -0.10212,0 l -0.06171,0.06168 v -0.391139 l 1.000816,-1.0008 c 0.0282,-0.02818 0.06525,-0.04225 0.102251,-0.04225 z m 0.142792,0.239971 c -0.01849,0 -0.03692,0.007 -0.05106,0.02111 l -0.320213,0.320237 c -0.02825,0.02837 -0.02825,0.07391 0,0.102247 l 0.37997,0.379996 c 0.01406,0.01399 0.03271,0.02122 0.05116,0.02122 0.01849,0 0.03697,-0.0072 0.05106,-0.02122 l 0.320265,-0.320245 c 0.02819,-0.02838 0.02819,-0.0739 0,-0.10224 l -0.379996,-0.379995 c -0.01406,-0.01411 -0.03268,-0.02111 -0.05119,-0.02111 z m 11.080407,0.0019 c -0.04002,0 -0.07218,0.0324 -0.07218,0.07242 v 0.322182 c 0,0.04001 0.03213,0.07218 0.07218,0.07218 0.04002,0 0.07231,-0.03216 0.07231,-0.07218 v -0.322182 c 0,-0.04001 -0.03224,-0.07242 -0.07231,-0.07242 z m -1.590104,0.03367 c -0.04,0 -0.07218,0.03216 -0.07218,0.07218 v 0.35561 c 0,0.005 0,0.0099 0.0027,0.01461 0,0.0023 0,0.0048 0.0027,0.007 0.0091,0.02946 0.03642,0.0507 0.06892,0.0507 0.04002,0 0.0723,-0.03228 0.0723,-0.0723 v -0.355613 c 0,-0.04001 -0.03224,-0.07218 -0.0723,-0.07218 z m -11.721128,0.03135 c -0.03992,0 -0.07231,0.03244 -0.07231,0.0723 v 0.452905 c 0,0.03986 0.03239,0.07219 0.07231,0.07219 h 0.537376 c 0.03994,0 0.07233,-0.03232 0.07233,-0.07219 v -0.452905 c 0,-0.03985 -0.03239,-0.0723 -0.07233,-0.0723 z m 1.687415,0.477171 c -0.01874,0 -0.03752,0.0067 -0.05106,0.02026 l -0.320265,0.320241 c -0.02823,0.02834 -0.02823,0.07403 0,0.102364 l 0.379996,0.379995 c 0.01354,0.01353 0.03192,0.02122 0.05109,0.02122 0.01901,0 0.03762,-0.0077 0.05116,-0.02122 l 0.320239,-0.320365 c 0.02822,-0.02818 0.02822,-0.07394 0,-0.10212 L 43.548032,89.8502 c -0.01354,-0.01353 -0.03229,-0.02026 -0.05103,-0.02026 z m 11.623817,0.102359 c -0.04002,0 -0.07218,0.03216 -0.07218,0.07218 v 0.322174 c 0,0.04002 0.03213,0.07243 0.07218,0.07243 0.04002,0 0.07231,-0.03239 0.07231,-0.07243 v -0.322174 c 0,-0.04001 -0.03224,-0.07218 -0.07231,-0.07218 z m -1.590104,0.100431 c -0.03754,0 -0.06814,0.02841 -0.07182,0.06482 -2.32e-4,0.0023 0,0.0049 0,0.0073 v 0.355614 c 0,0.04001 0.03212,0.07243 0.07218,0.07243 0.03999,0 0.07231,-0.0324 0.07231,-0.07243 V 90.10485 c 0,-0.03985 -0.03228,-0.07218 -0.07231,-0.07218 z m -11.721128,0.08872 c -0.03992,0 -0.07231,0.03228 -0.07231,0.0723 v 0.452781 c 0,0.03985 0.03239,0.07231 0.07231,0.07231 h 0.537376 c 0.03994,0 0.07233,-0.03244 0.07233,-0.07231 V 90.19375 c 0,-0.04001 -0.03239,-0.0723 -0.07233,-0.0723 z m 13.311232,0.455197 c -0.04002,0 -0.07218,0.03224 -0.07218,0.0723 v 0.108398 h -0.939601 c -0.04001,0 -0.07231,0.03232 -0.07231,0.07218 v 1.590231 c 0,0.03985 0.03224,0.07218 0.07231,0.07218 h 3.46907 c 0.04002,0 0.07231,-0.03232 0.07231,-0.07218 v -1.590231 c 0,-0.03986 -0.03224,-0.07218 -0.07231,-0.07218 H 55.19312 v -0.108398 c 0,-0.04001 -0.03224,-0.0723 -0.07231,-0.0723 z m -1.590104,0.167421 c -0.04,0 -0.07218,0.03232 -0.07218,0.07219 v 0.355609 c 0,0.01999 0.0078,0.03808 0.02107,0.05118 0.0027,0.0015 0.0035,0.0031 0.0052,0.0047 0.01249,0.01028 0.02849,0.01655 0.04598,0.01655 0.04002,0 0.07233,-0.0324 0.07233,-0.07243 v -0.35561 c 0,-0.03986 -0.03228,-0.07218 -0.07233,-0.07218 z m -16.383306,0.06096 c 0.07973,0 0.144484,0.06478 0.144484,0.144493 v 1.249463 c 0,0.07971 -0.06476,0.144493 -0.144484,0.144493 -0.0797,0 -0.144615,-0.06478 -0.144615,-0.144493 v -1.249463 c 0,-0.07971 0.06491,-0.144493 0.144615,-0.144493 z m 12.336311,0.05089 c 0.0828,0 0.165574,0.03143 0.22861,0.09451 0.125947,0.126107 0.125947,0.331139 0,0.45725 -0.126127,0.126103 -0.331253,0.126103 -0.457354,0 -0.126127,-0.126111 -0.126127,-0.331143 0,-0.45725 0.06304,-0.06305 0.145916,-0.09451 0.228744,-0.09451 z m -6.689129,0.281977 H 45.1733 c 0.07972,0 0.144458,0.06477 0.144458,0.144486 v 0.944673 c 0,0.07972 -0.06473,0.144489 -0.144458,0.144489 h -2.695567 c 0.191508,-0.138405 0.316854,-0.363048 0.316854,-0.616824 z m -0.716308,0.154143 c -0.225045,0 -0.408117,0.182992 -0.408117,0.408119 0,0.224968 0.183072,0.408119 0.408117,0.408119 0.225105,0 0.408255,-0.183151 0.408255,-0.408119 0,-0.225127 -0.18315,-0.408119 -0.408255,-0.408119 z m 1.085681,0.09777 c -0.03992,0 -0.07218,0.03232 -0.07218,0.07219 v 0.537033 c 0,0.03986 0.03226,0.07219 0.07218,0.07219 h 0.452511 c 0.03994,0 0.0722,-0.03232 0.0722,-0.07219 v -0.53704 c 0,-0.03986 -0.03226,-0.07219 -0.0722,-0.07219 z m 0.76783,0 c -0.0026,0 -0.0049,1.16e-4 -0.0073,7.73e-4 -0.03642,0.0039 -0.06481,0.03445 -0.06481,0.07183 v 0.537037 c 0,0.03986 0.03229,0.07219 0.0722,0.07219 h 0.45254 c 0.03991,0 0.07228,-0.03232 0.07228,-0.07219 v -0.537037 c 0,-0.03986 -0.03237,-0.07218 -0.07228,-0.07218 z m 0.767958,0 c -0.0026,0 -0.0049,1.16e-4 -0.0076,7.73e-4 -0.03645,0.0039 -0.06494,0.03445 -0.06494,0.07183 v 0.537037 c 0,0.03986 0.0324,0.07219 0.07228,0.07219 h 0.452433 c 0.03991,0 0.07231,-0.03232 0.07231,-0.07219 v -0.537037 c 0,-0.03986 -0.03241,-0.07218 -0.07231,-0.07218 z m 8.830975,0.06567 c -0.04,0 -0.07218,0.03232 -0.07218,0.07219 v 0.355606 c 0,0.04001 0.03216,0.07243 0.07218,0.07243 0.04002,0 0.07233,-0.0324 0.07233,-0.07243 v -0.355606 c 0,-0.03986 -0.03228,-0.07219 -0.07233,-0.07219 z m 0,0.711339 c -0.04,0 -0.07218,0.03232 -0.07218,0.07219 v 0.18082 c 0,0.03985 0.03216,0.07218 0.07218,0.07218 h 0.180832 c 0.03986,0 0.07218,-0.03232 0.07218,-0.07218 0,-0.0027 -1.05e-4,-0.0051 0,-0.0075 -0.0035,-0.03653 -0.03445,-0.06494 -0.07184,-0.06494 h -0.108498 v -0.108398 c 0,-0.03986 -0.03228,-0.07219 -0.07231,-0.07219 z" />
    <rect
       style="display:inline;fill:#2c2303;fill-opacity:1;stroke:none;stroke-width:3.71879;stroke-linejoin:miter;stroke-dasharray:none;stroke-opacity:1;paint-order:stroke fill markers"
       id="rect278"
       width="12.347939"
       height="74.133247"
       x="7.1556387"
       y="61.709164"
       ry="5.7974882" />
    <rect
       style="display:inline;fill:#2c2303;fill-opacity:1;stroke:none;stroke-width:0.00691652;stroke-linejoin:miter;stroke-dasharray:none;stroke-opacity:1;paint-order:stroke fill markers"
       id="rect279"
       width="10.655153"
       height="10.204259"
       x="242.9875"
       y="43.874672"
       ry="1.5872464" />
    <text
       xml:space="preserve"
       style="font-style:normal;font-variant:normal;font-weight:800;font-stretch:normal;font-size:9.68633px;font-family:Montserrat;-inkscape-font-specification:'Montserrat Ultra-Bold';display:inline;fill:#9b9256;fill-opacity:1;stroke:none;stroke-width:0.0190677;stroke-linejoin:miter;stroke-dasharray:none;stroke-opacity:1;paint-order:stroke fill markers"
       x="244.83467"
       y="51.84333"
       id="text279"><tspan
         sodipodi:role="line"
         id="tspan279"
         style="font-style:normal;font-variant:normal;font-weight:bold;font-stretch:normal;font-family:Times;-inkscape-font-specification:'Times Bold';fill:#9b9256;fill-opacity:1;stroke-width:0.0190677"
         x="244.83467"
         y="51.84333">T</tspan></text>
    <rect
       style="display:inline;fill:#2c2303;fill-opacity:1;stroke:none;stroke-width:0.00762723;stroke-linejoin:miter;stroke-dasharray:none;stroke-opacity:1;paint-order:stroke fill markers"
       id="rect282"
       width="11.749954"
       height="11.25273"
       x="7.662694"
       y="144.53922"
       ry="1.7503338" />
    <path
       id="path282"
       style="color:#000000;display:inline;fill:#e7e2d4;fill-opacity:1;stroke-width:0.0603302;-inkscape-stroke:none;paint-order:stroke fill markers"
       d="m 13.852099,148.73776 c -1.054045,0 -1.932781,0.87862 -1.932781,1.93266 v 1.63144 c 0,1.05404 0.878736,1.93278 1.932781,1.93278 h 1.707299 c 1.054046,0 1.932711,-0.87874 1.932711,-1.93278 v -1.63144 c 0,-1.05404 -0.878665,-1.93266 -1.932711,-1.93266 z m -0.279788,1.64 h 2.235891 v 2.22366 h -2.235891 z" />
    <path
       style="color:#000000;display:inline;fill:#e7e2d4;stroke-width:0.0268399;-inkscape-stroke:none;paint-order:stroke fill markers"
       d="m 10.350172,152.3541 h 0.759542 c 0.238444,0 0.430409,0.19195 0.430409,0.4304 v 0.72578 c 0,0.23845 -0.191965,0.43041 -0.430409,0.43041 h -0.759542 c -0.238446,0 -0.4304094,-0.19196 -0.4304094,-0.43041 v -0.72578 c 0,-0.23845 0.1919634,-0.4304 0.4304094,-0.4304 z"
       id="path283" />
    <rect
       style="display:inline;fill:#ce9619;fill-opacity:1;stroke:none;stroke-width:0;stroke-linejoin:miter;stroke-dasharray:none;stroke-opacity:1;paint-order:stroke fill markers"
       id="rect283"
       width="5.4438148"
       height="5.3304024"
       x="9.1992159"
       y="146.22495"
       ry="1.4460133" />
    <path
       id="path284"
       style="display:inline;fill:#e41f42;fill-opacity:1;stroke:none;stroke-width:0.010424;stroke-linejoin:miter;stroke-dasharray:none;stroke-opacity:1;paint-order:stroke fill markers"
       d="m 9.9998236,153.76073 c 0.03644,0.0507 0.08347,0.0931 0.1381674,0.12384 l 1.322075,-1.34965 c -0.03607,-0.051 -0.08293,-0.0935 -0.137359,-0.12471 z" />
    <rect
       style="display:inline;fill:#2c2303;fill-opacity:1;stroke:none;stroke-width:0.00748285;stroke-linejoin:miter;stroke-dasharray:none;stroke-opacity:1;paint-order:stroke fill markers"
       id="rect292"
       width="11.527598"
       height="11.039784"
       x="34.540016"
       y="63.494877"
       ry="1.7172104" />
    <path
       id="path35-3"
       d="m 42.251868,70.105007 v 0.507365 l -0.787566,0.119972 v -1.03856 l 1.291893,-0.11239 v 0.423133 h -0.403873 c -0.05564,0 -0.100454,0.04504 -0.100454,0.10048 z M 41.263316,68.320226 39.829804,68.195492 V 67.04996 l 1.433512,0.218713 z m 0,1.189278 -1.433512,0.124731 v -1.236916 l 1.433512,0.124729 z m 0,1.253589 -1.433512,0.218712 v -1.145753 l 1.433512,-0.124729 z m -1.634472,-2.585138 -1.291945,-0.11239 v -0.75488 h 0.403899 c 0.05562,0 0.10048,-0.04504 0.10048,-0.10048 v -0.311178 l 0.787566,0.120182 z m 0,1.473819 -1.291945,0.112385 V 68.26739 l 1.291945,0.112385 z m 0,1.360563 -0.787566,0.120183 v -0.31096 c 0,-0.05544 -0.04486,-0.100477 -0.10048,-0.100477 h -0.403899 v -0.755102 l 1.291945,-0.112387 z m 1.835458,-2.472748 1.291893,0.112388 v 0.727595 l -1.291893,0.112604 z m 0,-1.240385 0.787566,0.120185 v 0.494376 c 0,0.05565 0.04481,0.10048 0.100454,0.10048 h 0.403873 v 0.435907 l -1.291893,-0.112387 z m 1.896934,0.715041 c 0.05564,0 0.100714,-0.04483 0.100714,-0.10048 v -1.009108 c 0,-0.05544 -0.04507,-0.100477 -0.100714,-0.100477 h -1.008914 c -0.05564,0 -0.100454,0.04504 -0.100454,0.100477 v 0.311396 l -3.41059,-0.520365 v -0.494594 c 0,-0.05543 -0.04486,-0.100476 -0.10048,-0.100476 h -1.008914 c -0.05564,0 -0.100689,0.04504 -0.100689,0.100476 v 1.009111 c 0,0.05544 0.04505,0.10048 0.100689,0.10048 h 0.404081 v 3.410398 h -0.404081 c -0.05564,0 -0.100689,0.04504 -0.100689,0.100477 v 1.009106 c 0,0.05544 0.04505,0.100478 0.100689,0.100478 h 1.008914 c 0.05562,0 0.10048,-0.04504 0.10048,-0.100478 v -0.494593 l 3.41059,-0.520364 v 0.298404 c 0,0.05565 0.04481,0.100478 0.100454,0.100478 h 1.008914 c 0.05564,0 0.100714,-0.04483 0.100714,-0.100478 v -1.009106 c 0,-0.05544 -0.04507,-0.10048 -0.100714,-0.10048 H 42.95739 v -1.990282 h 0.403846"
       style="display:inline;fill:#e7e2d4;fill-opacity:1;fill-rule:nonzero;stroke:none;stroke-width:0.00216547" />
    <path
       id="path17-9"
       d="m 14.142803,86.570234 c -0.363688,0 -0.659595,-0.295874 -0.659595,-0.659467 0,-0.363775 0.295907,-0.659648 0.659595,-0.659648 0.363684,0 0.659553,0.295873 0.659553,0.659648 0,0.363593 -0.295869,0.659467 -0.659553,0.659467 z m 1.046022,-1.306902 c -0.464474,-0.516063 -1.135449,-0.825624 -1.840844,-0.849308 -3.7e-5,0 -3.7e-5,0 -1.01e-4,0 -0.01831,-2.76e-4 -0.456777,-0.01202 -0.633801,0.235175 -0.08593,0.12009 -0.09457,0.273482 -0.02693,0.452227 0.09286,0.289764 0.278033,0.333067 0.300109,0.661682 0.02995,0.447787 -0.194421,0.848946 -0.648146,0.848757 -0.148929,-0.0095 -0.203223,-0.05587 -0.271961,-0.114534 -0.09822,-0.08401 -0.209498,-0.179297 -0.552127,-0.149693 -0.241249,0.03295 -0.4224,0.13248 -0.538341,0.295873 -0.187273,0.264041 -0.144549,0.612278 -0.115596,0.756976 2.73e-4,0.0023 3.79e-4,0.0047 0.0011,0.0069 0.305737,1.398307 1.426897,2.00374 2.453199,2.00374 0.04988,0 0.09966,-0.0015 0.148986,-0.0045 1.061953,-0.06106 2.201252,-0.796761 2.352871,-2.30498 0.04883,-0.680741 -0.174438,-1.333547 -0.628547,-1.838324"
       style="display:inline;fill:#e7e2d4;fill-opacity:1;fill-rule:nonzero;stroke:none;stroke-width:0.00185035" />
    <path
       id="path19-2"
       d="m 15.31817,94.567165 c -7.87e-4,0 -0.0011,-2.09e-4 -0.0015,-2.09e-4 -7.86e-4,0 -0.0011,2.09e-4 -0.0015,2.09e-4 h -0.33032 v -0.330471 c 0,-3.81e-4 2.76e-4,-9.55e-4 2.76e-4,-0.0014 0,-3.75e-4 -2.76e-4,-9.55e-4 -2.76e-4,-0.0014 v -0.331218 h 0.664277 v 0.664273 z m 0.330654,3.309906 v 0.664462 h -0.664269 v -0.268492 c 0,-3.75e-4 2.67e-4,-9.55e-4 2.67e-4,-0.0014 0,-2.76e-4 -2.67e-4,-9.54e-4 -2.67e-4,-0.0014 V 97.87686 h 0.330286 c 3.78e-4,0 7.86e-4,2.75e-4 0.0015,2.75e-4 3.77e-4,0 7.86e-4,-2.75e-4 0.0015,-2.75e-4 z m -0.835987,-0.08586 v 0.394683 h -0.979205 v -0.332138 c 0,-0.04755 -0.03848,-0.08604 -0.08604,-0.08604 h -0.835988 c -0.04755,0 -0.08604,0.03847 -0.08604,0.08604 v 0.332138 h -0.97902 V 97.79121 c 0,-0.04735 -0.03848,-0.08585 -0.08604,-0.08585 h -0.331766 v -0.979203 h 0.331766 c 0.04755,0 0.08604,-0.03847 0.08604,-0.08586 v -0.83617 c 0,-0.04735 -0.03848,-0.08586 -0.08604,-0.08586 h -0.331766 v -0.979203 h 0.331766 c 0.04755,0 0.08604,-0.03847 0.08604,-0.08586 v -0.331949 h 0.97902 v 0.331949 c 0,0.04736 0.03848,0.08586 0.08604,0.08586 h 0.835988 c 0.04755,0 0.08604,-0.03847 0.08604,-0.08586 v -0.331949 h 0.979205 v 0.331949 c 0,0.04736 0.03829,0.08586 0.08586,0.08586 h 0.33177 v 0.979203 h -0.33214 c -0.04756,0 -0.08586,0.03847 -0.08586,0.08586 v 0.83617 c 0,0.04735 0.0383,0.08586 0.08586,0.08586 h 0.33214 v 0.979203 h -0.33177 c -0.04755,0 -0.08586,0.03847 -0.08586,0.08585 z m -3.138195,0.478877 c 0,3.75e-4 -2.72e-4,9.55e-4 -2.72e-4,0.0014 0,3.8e-4 2.72e-4,9.55e-4 2.72e-4,0.0014 v 0.268117 h -0.664274 v -0.664463 h 0.330659 c 7.86e-4,0 0.0011,2.81e-4 0.0015,2.81e-4 7.86e-4,0 0.0011,-2.81e-4 0.0015,-2.81e-4 h 0.330287 z m -0.664274,-3.702922 v -0.664277 h 0.664274 v 0.330842 c 0,3.8e-4 -2.72e-4,9.54e-4 -2.72e-4,0.0014 0,3.75e-4 2.72e-4,9.54e-4 2.72e-4,0.0014 v 0.330157 h -0.330287 c -3.79e-4,0 -7.86e-4,-2.04e-4 -0.0015,-2.04e-4 -3.79e-4,0 -7.87e-4,2.04e-4 -0.0015,2.04e-4 z m 4.724313,0.171897 c 0.04756,0 0.08604,-0.03847 0.08604,-0.08586 v -0.836169 c 0,-0.04735 -0.03848,-0.08586 -0.08604,-0.08586 h -0.835988 c -0.04755,0 -0.08586,0.03848 -0.08586,0.08586 v 0.332504 h -0.979205 v -0.332504 c 0,-0.04735 -0.03848,-0.08586 -0.08604,-0.08586 H 12.9116 c -0.04755,0 -0.08604,0.03848 -0.08604,0.08586 v 0.332504 h -0.97902 v -0.332504 c 0,-0.04735 -0.03848,-0.08586 -0.08604,-0.08586 h -0.835988 c -0.04755,0 -0.08604,0.03848 -0.08604,0.08586 v 0.836169 c 0,0.04736 0.03848,0.08586 0.08604,0.08586 h 0.332319 v 0.979203 h -0.332319 c -0.04755,0 -0.08604,0.03847 -0.08604,0.08586 v 0.83617 c 0,0.04735 0.03848,0.08586 0.08604,0.08586 h 0.332319 v 0.979203 h -0.332319 c -0.04755,0 -0.08604,0.03847 -0.08604,0.08585 v 0.836174 c 0,0.04736 0.03848,0.08586 0.08604,0.08586 H 11.7605 c 0.04755,0 0.08604,-0.03847 0.08604,-0.08586 V 98.35761 h 0.97902 v 0.332134 c 0,0.04755 0.03848,0.08605 0.08604,0.08605 h 0.835988 c 0.04755,0 0.08604,-0.03848 0.08604,-0.08605 V 98.35761 h 0.979205 v 0.269774 c 0,0.04736 0.03829,0.08586 0.08586,0.08586 h 0.835988 c 0.04756,0 0.08604,-0.03847 0.08604,-0.08586 V 97.79121 c 0,-0.04735 -0.03848,-0.08585 -0.08604,-0.08585 h -0.332327 v -0.979203 h 0.332145 c 0.04755,0 0.08586,-0.03847 0.08586,-0.08586 v -0.83617 c 0,-0.04735 -0.03829,-0.08586 -0.08586,-0.08586 h -0.332145 v -0.979203 h 0.332327"
       style="display:inline;fill:#e7e2d4;fill-opacity:1;fill-rule:nonzero;stroke:none;stroke-width:0.00185035" />
    <path
       id="path22-9"
       style="display:inline;fill:#e7e2d4;fill-opacity:1;fill-rule:nonzero;stroke:none;stroke-width:0.00185035"
       d="m 11.688311,75.511648 c -0.158759,0 -0.28793,0.12917 -0.28793,0.287929 v 0.208307 h -0.208306 c -0.158756,0 -0.287927,0.129168 -0.287927,0.287928 0,0.158944 0.129171,0.288074 0.287927,0.288074 h 0.208306 v 0.208159 c 0,0.158762 0.129171,0.288217 0.28793,0.288217 0.158948,0 0.288074,-0.129455 0.288074,-0.288217 v -0.208159 h 0.209169 c 0.158941,0 0.28807,-0.12913 0.28807,-0.288074 0,-0.15876 -0.129129,-0.287928 -0.28807,-0.287928 h -0.209169 v -0.208307 c 0,-0.158759 -0.129126,-0.287929 -0.288074,-0.287929 z m 2.479455,0.557781 c -0.02227,0 -0.04458,0.0081 -0.06068,0.02424 l -0.387777,0.387922 -1.216128,0.235705 c -0.03105,0.0061 -0.05645,0.0289 -0.06571,0.05925 l -1.10409,3.606208 c -0.02035,0.06291 0.04403,0.129141 0.107313,0.10731 l 3.606208,-1.104087 c 0.03037,-0.0093 0.05304,-0.03461 0.05897,-0.06571 l 0.235992,-1.21584 0.387921,-0.388065 c 0.01611,-0.01611 0.02526,-0.03794 0.02526,-0.06069 0,-0.02277 -0.0092,-0.04473 -0.02526,-0.06083 l -1.501327,-1.501185 c -0.01611,-0.0161 -0.03841,-0.02424 -0.06069,-0.02424 z m -0.434832,0.584466 1.436632,1.436772 -0.222366,1.146119 -3.227039,0.988169 1.248262,-1.248549 c 0.105842,0.07993 0.233523,0.123803 0.368413,0.123803 0.163936,0 0.317813,-0.06374 0.433829,-0.179757 0.239064,-0.239064 0.239064,-0.628408 0,-0.86766 -0.239253,-0.239063 -0.628411,-0.239245 -0.867659,0 -0.218527,0.218711 -0.236727,0.562108 -0.05595,0.802098 l -1.248549,1.24841 0.988165,-3.22704 z" />
    <path
       id="path31-6"
       d="m 15.453593,111.61174 -1.083383,0.9124 -0.374328,-0.37451 0.912225,-1.08339 c 0.07068,-0.084 0.170046,-0.13285 0.279773,-0.13747 0.108803,-0.005 0.212792,0.0356 0.290319,0.11305 0.07753,0.0775 0.117681,0.18059 0.11287,0.29032 -0.0047,0.10955 -0.05347,0.20891 -0.137476,0.2796 z m -0.511253,1.72729 c 0.07068,0.0707 0.109541,0.16468 0.109541,0.26461 0,0.10009 -0.03887,0.1941 -0.109541,0.26478 l -0.101954,0.10195 -2.30813,-2.30813 0.101954,-0.10195 c 0.145809,-0.14599 0.383212,-0.1458 0.529202,0 z m 0.657243,-2.41878 c -0.110464,-0.11027 -0.263115,-0.16967 -0.419106,-0.16319 -0.155982,0.007 -0.303085,0.079 -0.403742,0.19854 l -0.902789,1.07208 -0.588965,-0.58896 c -0.212974,-0.21279 -0.559362,-0.21279 -0.772336,0 l -0.16264,0.16265 c -0.03351,0.0337 -0.03351,0.0881 0,0.12157 l 0.110275,0.1101 -1.539119,1.53912 c -0.0337,0.0335 -0.0337,0.0879 0,0.12138 l 2.105138,2.10514 c 0.01668,0.0169 0.03868,0.0252 0.0607,0.0252 0.02202,0 0.04385,-0.008 0.06069,-0.0252 l 1.53912,-1.53894 0.09289,0.0927 c 0.01607,0.0162 0.03794,0.0252 0.06069,0.0252 0.02277,0 0.04459,-0.009 0.06069,-0.0252 l 0.162641,-0.16264 c 0.103255,-0.10306 0.16006,-0.24017 0.16006,-0.38616 0,-0.14581 -0.0568,-0.28293 -0.16006,-0.38599 l -0.571567,-0.57157 1.072274,-0.90298 c 0.119348,-0.10047 0.191699,-0.24775 0.198355,-0.40374 0.0067,-0.15598 -0.05274,-0.30864 -0.163199,-0.41911"
       style="display:inline;fill:#e7e2d4;fill-opacity:1;fill-rule:nonzero;stroke:none;stroke-width:0.00185035" />
    <path
       id="path37-9"
       d="m 12.558406,131.03507 -1.42162,-1.42162 0.461663,-0.46167 1.42162,1.42163 z m 0.765676,-0.31141 c 0.09919,0 0.192254,-0.0385 0.26238,-0.10862 l 2.034649,-2.03446 c 0.144698,-0.1447 0.144698,-0.38025 0,-0.52494 l -1.50489,-1.50471 c -0.06995,-0.0701 -0.163203,-0.1088 -0.262381,-0.1088 -0.09918,0 -0.192436,0.0387 -0.262562,0.1088 L 11.557,128.58521 c -0.07013,0.0701 -0.108801,0.16339 -0.108801,0.26256 0,0.0601 0.01573,0.11713 0.04237,0.16894 l -0.53586,0.53604 c -0.0163,0.0161 -0.02515,0.038 -0.02515,0.0607 0,0.0227 0.0089,0.0446 0.02515,0.0607 l 1.543004,1.54302 c 0.01554,0.0159 0.03829,0.0254 0.06069,0.0252 h 2.121061 c 0.04737,0 0.08585,-0.0385 0.08585,-0.0859 0,-0.0473 -0.03848,-0.0859 -0.08585,-0.0859 h -1.913635 l 0.389316,-0.38931 c 0.05181,0.0266 0.108981,0.0424 0.168933,0.0424"
       style="display:inline;fill:#e7e2d4;fill-opacity:1;fill-rule:nonzero;stroke:none;stroke-width:0.00185035" />
    <path
       id="path38-9"
       d="m 14.416274,122.04627 c -0.0645,0.0646 -0.169324,0.0646 -0.233845,0 l -1.442461,-1.44235 c -0.06444,-0.0646 -0.06444,-0.1695 0,-0.23388 0.03223,-0.0322 0.07457,-0.0483 0.116943,-0.0483 0.04237,0 0.08469,0.0161 0.116943,0.0483 l 1.44242,1.44234 c 0.06441,0.0646 0.06441,0.1695 0,0.23389 z m -2.351956,1.45418 -0.9531,0.26312 0.279975,-0.93775 1.622798,-1.70492 0.673862,0.67372 z m 3.410821,-4.18938 c -0.381078,-0.38117 -1.001334,-0.38117 -1.382412,0 l -0.967424,0.96755 -0.02999,-0.0299 c -0.131395,-0.13157 -0.345314,-0.13157 -0.476799,0 -0.131448,0.13137 -0.131448,0.34527 0,0.47664 l 0.273981,0.27404 -1.639951,1.72305 c -0.0093,0.01 -0.01619,0.0217 -0.02008,0.0346 l -0.330234,1.10614 c -0.02084,0.0622 0.04294,0.12693 0.105139,0.10732 l 1.125604,-0.31086 c 0.01502,-0.005 0.02859,-0.0122 0.03935,-0.0235 l 1.637045,-1.7199 0.251614,0.25164 c 0.06571,0.0657 0.152042,0.0986 0.23836,0.0986 0.08636,0 0.172673,-0.0329 0.238397,-0.0986 0.131411,-0.13156 0.131411,-0.34546 0,-0.47684 l -0.02999,-0.03 0.967397,-0.96736 c 0.381155,-0.38117 0.381155,-1.0014 0,-1.38258"
       style="display:inline;fill:#e7e2d4;fill-opacity:1;fill-rule:nonzero;stroke:none;stroke-width:0.00185035" />
    <path
       id="path39-1"
       style="display:inline;fill:#e7e2d4;fill-opacity:1;fill-rule:nonzero;stroke:none;stroke-width:0.00185035"
       d="m 14.128002,102.49888 c -0.04744,0 -0.08593,0.0386 -0.08593,0.0859 v 0.21634 h -0.216343 c -0.04744,0 -0.08593,0.0385 -0.08593,0.0858 0,0.0473 0.03848,0.0858 0.08593,0.0858 h 0.216343 v 0.21634 c 0,0.0475 0.03848,0.0861 0.08593,0.0861 0.04744,0 0.08593,-0.0385 0.08593,-0.0861 v -0.21634 h 0.216344 c 0.04745,0 0.08579,-0.0384 0.08579,-0.0858 0,-0.0473 -0.03837,-0.0858 -0.08579,-0.0858 h -0.216344 v -0.21634 c 0,-0.0473 -0.03848,-0.0859 -0.08593,-0.0859 z m -1.645078,0.86508 c -0.04744,0 -0.08594,0.0384 -0.08594,0.0859 v 0.2162 h -0.216336 c -0.04744,0 -0.08579,0.0386 -0.08579,0.0859 0,0.0473 0.03837,0.0858 0.08579,0.0858 h 0.216336 v 0.21634 c 0,0.0475 0.03849,0.0858 0.08594,0.0858 0.04743,0 0.08594,-0.0382 0.08594,-0.0858 v -0.21634 h 0.216196 c 0.04742,0 0.08593,-0.0384 0.08593,-0.0858 0,-0.0473 -0.03852,-0.0859 -0.08593,-0.0859 h -0.216196 v -0.2162 c 0,-0.0475 -0.03852,-0.0859 -0.08594,-0.0859 z m 2.91917,0.4555 c -0.04742,0 -0.08579,0.0385 -0.08579,0.0861 v 0.21634 H 15.09996 c -0.04745,0 -0.08593,0.0385 -0.08593,0.0858 0,0.0473 0.03848,0.0859 0.08593,0.0859 h 0.216344 v 0.21634 c 0,0.0475 0.03837,0.0859 0.08579,0.0859 0.04746,0 0.08593,-0.0384 0.08593,-0.0859 v -0.21634 h 0.216344 c 0.04746,0 0.08593,-0.0386 0.08593,-0.0859 0,-0.0473 -0.03848,-0.0858 -0.08593,-0.0858 h -0.216344 v -0.21634 c 0,-0.0476 -0.03848,-0.0861 -0.08593,-0.0861 z m -1.462311,0.0303 c -0.108372,2e-5 -0.216687,0.0414 -0.299121,0.12381 l -2.648021,2.64802 c -0.165,0.16506 -0.165,0.43352 0,0.59838 0.0825,0.0825 0.190885,0.12381 0.299261,0.12381 0.108392,0 0.216632,-0.0413 0.299115,-0.12381 l 2.648168,-2.64802 c 0.164963,-0.16487 0.164963,-0.43333 0,-0.59838 -0.08253,-0.0825 -0.191032,-0.12383 -0.299402,-0.12381 z m 1.41e-4,0.17172 c 0.06434,0 0.128736,0.0246 0.177753,0.0736 0.09797,0.0979 0.09797,0.25743 0,0.3555 l -0.172299,0.17216 -0.355644,-0.35536 0.17244,-0.1723 c 0.049,-0.049 0.113361,-0.0736 0.17775,-0.0736 z m -0.08234,1.97075 c -0.04744,0 -0.08593,0.0384 -0.08593,0.0859 v 0.21619 h -0.21634 c -0.04744,0 -0.08594,0.0386 -0.08594,0.0859 0,0.0473 0.03848,0.0858 0.08594,0.0858 h 0.21634 v 0.21635 c 0,0.0476 0.03848,0.0858 0.08593,0.0858 0.04745,0 0.08579,-0.0382 0.08579,-0.0858 v -0.21635 h 0.21634 c 0.04743,0 0.08594,-0.0384 0.08594,-0.0858 0,-0.0473 -0.03852,-0.0859 -0.08594,-0.0859 h -0.21634 v -0.21619 c 0,-0.0476 -0.03837,-0.0859 -0.08579,-0.0859 z" />
    <path
       id="path16"
       style="color:#000000;display:inline;fill:#e7e2d4;fill-opacity:1;stroke-width:0.0461406;-inkscape-stroke:none;paint-order:stroke fill markers"
       d="m 13.369393,66.088522 -1.118589,1.118591 h 0.697702 v 1.821673 h -1.920739 v -0.705947 l -1.118592,1.118591 1.118592,1.118589 v -0.705947 h 1.920739 v 1.889131 h -0.705829 l 1.118475,1.11859 1.118587,-1.11859 h -0.70595 v -1.889131 h 1.857754 v 0.705947 l 1.118474,-1.118589 -1.118474,-1.118591 v 0.705947 h -1.857754 v -1.821673 h 0.714195 z" />
    <path
       id="path279"
       style="display:inline;fill:#9b9256;fill-opacity:1;stroke:none;stroke-width:0.00370232;stroke-linejoin:miter;stroke-dasharray:none;stroke-opacity:1;paint-order:stroke fill markers"
       d="m 252.05501,51.397072 -1.32764,1.90378 1.98609,-0.0543 z" />
    <path
       id="path285"
       style="color:#000000;display:inline;fill:#e7e2d4;fill-opacity:1;stroke-width:0.575321;-inkscape-stroke:none;paint-order:stroke fill markers"
       d="m 777.94665,163.56217 -13.94747,13.94746 13.94747,13.94747 v -8.80204 h 21.81626 a 2.1331761,2.1331761 45 0 1 2.13318,2.13318 v 21.42197 h -8.80101 l 13.94644,13.94747 13.94747,-13.94747 h -8.80257 v -22.35936 -4.28718 a 7.1989383,7.1989383 45 0 0 -7.19894,-7.19894 h -3.09139 -23.94944 z"
       sodipodi:nodetypes="ccccccccccccccc"
       inkscape:original-d="m 777.94665,163.56217 -13.94747,13.94746 13.94747,13.94747 v -8.80204 h 23.94944 v 23.55515 h -8.80101 l 13.94644,13.94747 13.94747,-13.94747 h -8.80257 v -23.55515 -10.29033 h -10.29033 -23.94944 z"
       inkscape:path-effect="#path-effect286-2"
       transform="matrix(0.04733822,0,0,0.04733822,-21.205435,137.94626)" />
    <g
       id="g2"
       transform="matrix(0.44396179,0,0,0.44396179,82.83278,2.0984587)">
      <rect
         style="display:inline;fill:#e7e2d4;fill-opacity:1;stroke:none;stroke-width:0.0328007;stroke-linejoin:miter;stroke-dasharray:none;stroke-opacity:1;paint-order:stroke fill markers"
         id="rect240"
         width="0.82364583"
         height="6.6640429"
         x="63.717979"
         y="0.97340137" />
      <rect
         style="display:inline;fill:#e7e2d4;fill-opacity:1;stroke:none;stroke-width:0.0436191;stroke-linejoin:miter;stroke-dasharray:none;stroke-opacity:1;paint-order:stroke fill markers"
         id="rect241"
         width="0.97339964"
         height="9.9718399"
         x="77.046013"
         y="0.97340137" />
      <rect
         style="display:inline;fill:#e7e2d4;fill-opacity:1;stroke:none;stroke-width:0.0328007;stroke-linejoin:miter;stroke-dasharray:none;stroke-opacity:1;paint-order:stroke fill markers"
         id="rect242"
         width="0.82364583"
         height="6.6640429"
         x="68.135689"
         y="0.97340137" />
      <rect
         style="display:inline;fill:#e7e2d4;fill-opacity:1;stroke:none;stroke-width:0.0328007;stroke-linejoin:miter;stroke-dasharray:none;stroke-opacity:1;paint-order:stroke fill markers"
         id="rect243"
         width="0.82364583"
         height="6.6640429"
         x="72.253952"
         y="0.97340137" />
      <rect
         style="display:inline;fill:#e7e2d4;fill-opacity:1;stroke:none;stroke-width:0.0328007;stroke-linejoin:miter;stroke-dasharray:none;stroke-opacity:1;paint-order:stroke fill markers"
         id="rect244"
         width="0.82364583"
         height="6.6640429"
         x="81.987976"
         y="0.97340137" />
      <rect
         style="display:inline;fill:#e7e2d4;fill-opacity:1;stroke:none;stroke-width:0.0436191;stroke-linejoin:miter;stroke-dasharray:none;stroke-opacity:1;paint-order:stroke fill markers"
         id="rect245"
         width="0.97339964"
         height="9.9718399"
         x="95.315987"
         y="0.97340137" />
      <rect
         style="display:inline;fill:#e7e2d4;fill-opacity:1;stroke:none;stroke-width:0.0328007;stroke-linejoin:miter;stroke-dasharray:none;stroke-opacity:1;paint-order:stroke fill markers"
         id="rect246"
         width="0.82364583"
         height="6.6640429"
         x="86.405655"
         y="0.97340137" />
      <rect
         style="display:inline;fill:#e7e2d4;fill-opacity:1;stroke:none;stroke-width:0.0328007;stroke-linejoin:miter;stroke-dasharray:none;stroke-opacity:1;paint-order:stroke fill markers"
         id="rect247"
         width="0.82364583"
         height="6.6640429"
         x="90.523842"
         y="0.97340137" />
      <rect
         style="display:inline;fill:#e7e2d4;fill-opacity:1;stroke:none;stroke-width:0.0328007;stroke-linejoin:miter;stroke-dasharray:none;stroke-opacity:1;paint-order:stroke fill markers"
         id="rect248"
         width="0.82364583"
         height="6.6640429"
         x="100.40765"
         y="0.97340137" />
      <rect
         style="display:inline;fill:#e7e2d4;fill-opacity:1;stroke:none;stroke-width:0.0436191;stroke-linejoin:miter;stroke-dasharray:none;stroke-opacity:1;paint-order:stroke fill markers"
         id="rect249"
         width="0.97339964"
         height="9.9718399"
         x="113.73576"
         y="0.97340137" />
      <rect
         style="display:inline;fill:#e7e2d4;fill-opacity:1;stroke:none;stroke-width:0.0328007;stroke-linejoin:miter;stroke-dasharray:none;stroke-opacity:1;paint-order:stroke fill markers"
         id="rect250"
         width="0.82364583"
         height="6.6640429"
         x="104.82536"
         y="0.97340137" />
      <rect
         style="display:inline;fill:#e7e2d4;fill-opacity:1;stroke:none;stroke-width:0.0328007;stroke-linejoin:miter;stroke-dasharray:none;stroke-opacity:1;paint-order:stroke fill markers"
         id="rect251"
         width="0.82364583"
         height="6.6640429"
         x="108.94362"
         y="0.97340137" />
      <rect
         style="display:inline;fill:#e7e2d4;fill-opacity:1;stroke:none;stroke-width:0.0328007;stroke-linejoin:miter;stroke-dasharray:none;stroke-opacity:1;paint-order:stroke fill markers"
         id="rect252"
         width="0.82364583"
         height="6.6640429"
         x="118.67754"
         y="0.97340137" />
      <rect
         style="display:inline;fill:#e7e2d4;fill-opacity:1;stroke:none;stroke-width:0.0436191;stroke-linejoin:miter;stroke-dasharray:none;stroke-opacity:1;paint-order:stroke fill markers"
         id="rect253"
         width="0.97339964"
         height="9.9718399"
         x="132.00565"
         y="0.97340137" />
      <rect
         style="display:inline;fill:#e7e2d4;fill-opacity:1;stroke:none;stroke-width:0.0328007;stroke-linejoin:miter;stroke-dasharray:none;stroke-opacity:1;paint-order:stroke fill markers"
         id="rect254"
         width="0.82364583"
         height="6.6640429"
         x="123.09531"
         y="0.97340137" />
      <rect
         style="display:inline;fill:#e7e2d4;fill-opacity:1;stroke:none;stroke-width:0.0328007;stroke-linejoin:miter;stroke-dasharray:none;stroke-opacity:1;paint-order:stroke fill markers"
         id="rect255"
         width="0.82364583"
         height="6.6640429"
         x="127.2135"
         y="0.97340137" />
      <rect
         style="display:inline;fill:#e7e2d4;fill-opacity:1;stroke:none;stroke-width:0.0328007;stroke-linejoin:miter;stroke-dasharray:none;stroke-opacity:1;paint-order:stroke fill markers"
         id="rect256"
         width="0.82364583"
         height="6.6640429"
         x="137.09732"
         y="0.97340137" />
      <rect
         style="display:inline;fill:#e7e2d4;fill-opacity:1;stroke:none;stroke-width:0.0328007;stroke-linejoin:miter;stroke-dasharray:none;stroke-opacity:1;paint-order:stroke fill markers"
         id="rect257"
         width="0.82364583"
         height="6.6640429"
         x="141.51501"
         y="0.97340137" />
      <rect
         style="display:inline;fill:#e7e2d4;fill-opacity:1;stroke:none;stroke-width:0.0328007;stroke-linejoin:miter;stroke-dasharray:none;stroke-opacity:1;paint-order:stroke fill markers"
         id="rect258"
         width="0.82364583"
         height="6.6640429"
         x="145.6333"
         y="0.97340137" />
      <rect
         style="display:inline;fill:#e7e2d4;fill-opacity:1;stroke:none;stroke-width:0.0328007;stroke-linejoin:miter;stroke-dasharray:none;stroke-opacity:1;paint-order:stroke fill markers"
         id="rect259"
         width="0.82364583"
         height="6.6640429"
         x="150.87466"
         y="0.97340137" />
      <rect
         style="display:inline;fill:#e7e2d4;fill-opacity:1;stroke:none;stroke-width:0.0436191;stroke-linejoin:miter;stroke-dasharray:none;stroke-opacity:1;paint-order:stroke fill markers"
         id="rect260"
         width="0.97339964"
         height="9.9718399"
         x="164.20279"
         y="0.97340137" />
      <rect
         style="display:inline;fill:#e7e2d4;fill-opacity:1;stroke:none;stroke-width:0.0328007;stroke-linejoin:miter;stroke-dasharray:none;stroke-opacity:1;paint-order:stroke fill markers"
         id="rect261"
         width="0.82364583"
         height="6.6640429"
         x="155.29247"
         y="0.97340137" />
      <rect
         style="display:inline;fill:#e7e2d4;fill-opacity:1;stroke:none;stroke-width:0.0328007;stroke-linejoin:miter;stroke-dasharray:none;stroke-opacity:1;paint-order:stroke fill markers"
         id="rect262"
         width="0.82364583"
         height="6.6640429"
         x="159.41064"
         y="0.97340137" />
      <rect
         style="display:inline;fill:#e7e2d4;fill-opacity:1;stroke:none;stroke-width:0.0328007;stroke-linejoin:miter;stroke-dasharray:none;stroke-opacity:1;paint-order:stroke fill markers"
         id="rect263"
         width="0.82364583"
         height="6.6640429"
         x="169.14464"
         y="0.97340137" />
      <rect
         style="display:inline;fill:#e7e2d4;fill-opacity:1;stroke:none;stroke-width:0.0436191;stroke-linejoin:miter;stroke-dasharray:none;stroke-opacity:1;paint-order:stroke fill markers"
         id="rect264"
         width="0.97339964"
         height="9.9718399"
         x="182.47273"
         y="0.97340137" />
      <rect
         style="display:inline;fill:#e7e2d4;fill-opacity:1;stroke:none;stroke-width:0.0328007;stroke-linejoin:miter;stroke-dasharray:none;stroke-opacity:1;paint-order:stroke fill markers"
         id="rect265"
         width="0.82364583"
         height="6.6640429"
         x="173.56233"
         y="0.97340137" />
      <rect
         style="display:inline;fill:#e7e2d4;fill-opacity:1;stroke:none;stroke-width:0.0328007;stroke-linejoin:miter;stroke-dasharray:none;stroke-opacity:1;paint-order:stroke fill markers"
         id="rect266"
         width="0.82364583"
         height="6.6640429"
         x="177.68062"
         y="0.97340137" />
      <rect
         style="display:inline;fill:#e7e2d4;fill-opacity:1;stroke:none;stroke-width:0.0328007;stroke-linejoin:miter;stroke-dasharray:none;stroke-opacity:1;paint-order:stroke fill markers"
         id="rect267"
         width="0.82364583"
         height="6.6640429"
         x="187.56441"
         y="0.97340137" />
      <rect
         style="display:inline;fill:#e7e2d4;fill-opacity:1;stroke:none;stroke-width:0.0436191;stroke-linejoin:miter;stroke-dasharray:none;stroke-opacity:1;paint-order:stroke fill markers"
         id="rect268"
         width="0.97339964"
         height="9.9718399"
         x="200.89244"
         y="0.97340137" />
      <rect
         style="display:inline;fill:#e7e2d4;fill-opacity:1;stroke:none;stroke-width:0.0328007;stroke-linejoin:miter;stroke-dasharray:none;stroke-opacity:1;paint-order:stroke fill markers"
         id="rect269"
         width="0.82364583"
         height="6.6640429"
         x="191.98212"
         y="0.97340137" />
      <rect
         style="display:inline;fill:#e7e2d4;fill-opacity:1;stroke:none;stroke-width:0.0328007;stroke-linejoin:miter;stroke-dasharray:none;stroke-opacity:1;paint-order:stroke fill markers"
         id="rect270"
         width="0.82364583"
         height="6.6640429"
         x="196.10039"
         y="0.97340137" />
      <rect
         style="display:inline;fill:#e7e2d4;fill-opacity:1;stroke:none;stroke-width:0.0328007;stroke-linejoin:miter;stroke-dasharray:none;stroke-opacity:1;paint-order:stroke fill markers"
         id="rect271"
         width="0.82364583"
         height="6.6640429"
         x="205.8343"
         y="0.97340137" />
      <rect
         style="display:inline;fill:#e7e2d4;fill-opacity:1;stroke:none;stroke-width:0.0436191;stroke-linejoin:miter;stroke-dasharray:none;stroke-opacity:1;paint-order:stroke fill markers"
         id="rect272"
         width="0.97339964"
         height="9.9718399"
         x="219.16234"
         y="0.97340137" />
      <rect
         style="display:inline;fill:#e7e2d4;fill-opacity:1;stroke:none;stroke-width:0.0328007;stroke-linejoin:miter;stroke-dasharray:none;stroke-opacity:1;paint-order:stroke fill markers"
         id="rect273"
         width="0.82364583"
         height="6.6640429"
         x="210.25209"
         y="0.97340137" />
      <rect
         style="display:inline;fill:#e7e2d4;fill-opacity:1;stroke:none;stroke-width:0.0328007;stroke-linejoin:miter;stroke-dasharray:none;stroke-opacity:1;paint-order:stroke fill markers"
         id="rect274"
         width="0.82364583"
         height="6.6640429"
         x="214.37029"
         y="0.97340137" />
      <rect
         style="display:inline;fill:#e7e2d4;fill-opacity:1;stroke:none;stroke-width:0.0328007;stroke-linejoin:miter;stroke-dasharray:none;stroke-opacity:1;paint-order:stroke fill markers"
         id="rect275"
         width="0.82364583"
         height="6.6640429"
         x="224.254"
         y="0.97340137" />
      <rect
         style="display:inline;fill:#e7e2d4;fill-opacity:1;stroke:none;stroke-width:0.0328007;stroke-linejoin:miter;stroke-dasharray:none;stroke-opacity:1;paint-order:stroke fill markers"
         id="rect276"
         width="0.82364583"
         height="6.6640429"
         x="228.6718"
         y="0.97340137" />
      <rect
         style="display:inline;fill:#e7e2d4;fill-opacity:1;stroke:none;stroke-width:0.0328007;stroke-linejoin:miter;stroke-dasharray:none;stroke-opacity:1;paint-order:stroke fill markers"
         id="rect277"
         width="0.82364583"
         height="6.6640429"
         x="232.79005"
         y="0.97340137" />
    </g>
    <g
       id="g281"
       transform="matrix(0.16209477,0,0,0.16209477,-54.089512,48.747074)"
       style="display:inline;fill:#e7e2d4;fill-opacity:1">
      <path
         id="path280"
         style="color:#000000;fill:#e7e2d4;fill-opacity:1;stroke-width:0.152655;-inkscape-stroke:none;paint-order:stroke fill markers"
         d="m 568.17692,56.560729 -3.70083,3.70082 h 2.30833 v 6.02695 h -6.35472 v -2.3356 l -3.70082,3.70082 3.70082,3.70082 v -2.3356 h 6.35472 v 6.25013 h -2.33524 l 3.70046,3.70083 3.70081,-3.70083 h -2.3356 v -6.25013 h 6.1463 v 2.3356 l 3.70045,-3.70082 -3.70045,-3.70082 v 2.3356 h -6.1463 v -6.02695 h 2.36288 z" />
      <path
         id="path281"
         style="fill:#e7e2d4;fill-opacity:1;stroke:none;stroke-width:0.0686392;stroke-linejoin:miter;stroke-dasharray:none;stroke-opacity:1;paint-order:stroke fill markers"
         d="m 389.5855,54.617652 -14.68184,31.707631 a 0.90824606,0.90824606 41.860141 0 0 1.29367,1.159117 l 12.40189,-7.488879 a 3.8574362,3.8574362 179.35758 0 1 3.91341,-0.04388 l 13.03968,7.480239 a 0.99162173,0.99162173 137.1143 0 0 1.38761,-1.2888 L 391.82003,54.60271 a 1.2351024,1.2351024 179.61686 0 0 -2.23453,0.01494 z"
         sodipodi:nodetypes="ccccc"
         inkscape:path-effect="#path-effect282-2"
         inkscape:original-d="m 390.68691,52.239003 -17.03039,36.779662 16.88649,-10.196899 17.77541,10.196899 z"
         transform="matrix(0.8723487,-0.4028583,0.4028583,0.8723487,171.57328,143.38115)" />
    </g>
    <path
       style="font-weight:800;font-size:35.587px;font-family:Montserrat;-inkscape-font-specification:'Montserrat Ultra-Bold';fill:#9b9256;stroke-width:0;paint-order:stroke fill markers"
       d="m 220.05467,162.88494 q -1.54973,0 -2.414,-0.8444 -0.85434,-0.84441 -0.85434,-2.39414 v -3.85445 h 1.96696 v 3.79485 q 0,1.66893 1.32125,1.66893 1.31131,0 1.31131,-1.66893 v -3.79485 h 1.93716 v 3.85445 q 0,1.54973 -0.86427,2.39414 -0.85433,0.8444 -2.40407,0.8444 z m 4.59951,-7.09299 h 1.96697 v 6.95391 h -1.96697 z m 3.14914,3.39748 h 2.90078 v 1.45039 h -2.90078 z m 7.28176,3.69551 q -1.54973,0 -2.41401,-0.8444 -0.85434,-0.84441 -0.85434,-2.39414 v -3.85445 h 1.96697 v 3.79485 q 0,1.66893 1.32124,1.66893 1.31132,0 1.31132,-1.66893 v -3.79485 h 1.93715 v 3.85445 q 0,1.54973 -0.86426,2.39414 -0.85434,0.8444 -2.40407,0.8444 z m 8.89107,-0.13908 -1.44045,-2.15571 -1.42059,2.15571 h -2.24513 l 2.53322,-3.51669 -2.42394,-3.43722 h 2.21532 l 1.39078,2.0067 1.37092,-2.0067 h 2.12591 l -2.42393,3.35775 2.58288,3.59616 z"
       id="text83"
       aria-label="UI-UX" />
  </g>
  <g
     inkscape:groupmode="layer"
     id="layer2"
     inkscape:label="Layer 2" />
  <g
     inkscape:groupmode="layer"
     id="layer3"
     inkscape:label="Layer 3">
    <g
       id="g1"
       transform="matrix(0.3917712,0,0,0.3917712,8.6788859,-4.6549205)">
      <path
         id="path7-8"
         clip-path="url(#clipPath5-6)"
         style="fill:#4d4511;fill-opacity:1;fill-rule:nonzero;stroke:none"
         d="M -1.9376501e-5,284.9973 A 124.69033,124.69033 0 0 1 -124.69034,160.30699 124.69033,124.69033 0 0 1 -1.9376501e-5,35.616673 124.69033,124.69033 0 0 1 124.6903,160.30699 124.69033,124.69033 0 0 1 -1.9376501e-5,284.9973 Z m 0,-32.7293 C 52.064981,252.268 91.960994,210.64999 91.960994,160.30699 91.960994,109.96499 52.064981,68.345975 -1.9376501e-5,68.345975 -52.065019,68.345975 -91.961032,109.96499 -91.961032,160.30699 c 0,50.343 39.896013,91.96101 91.961012623499,91.96101 z"
         transform="matrix(0.38697056,0,0,-0.38697056,411.03116,349.94408)" />
      <path
         id="path8-4"
         clip-path="url(#clipPath5-6)"
         style="fill:#2c2303;fill-opacity:1;fill-rule:nonzero;stroke:none"
         d="M -1.9376501e-5,320.61397 C -88.183019,320.61397 -160.307,248.48999 -160.307,160.30699 -160.307,72.123988 -88.183019,8.3474539e-6 -1.9376501e-5,8.347454e-6 88.182981,8.347454e-6 160.30696,72.123988 160.30696,160.30699 c 0,88.183 -72.123979,160.30698 -160.306979376501,160.30698 z m 0,-35.61667 A 124.69033,124.69033 0 0 0 124.6903,160.30699 124.69033,124.69033 0 0 0 -1.9376501e-5,35.616673 124.69033,124.69033 0 0 0 -124.69034,160.30699 124.69033,124.69033 0 0 0 -1.9376501e-5,284.9973 Z"
         transform="matrix(0.38697052,0,0,-0.38697052,434.84866,331.29455)" />
      <circle
         style="fill:#ce9619;fill-opacity:1;stroke-width:0.0793542;stroke-linecap:round;stroke-linejoin:round;paint-order:stroke fill markers"
         id="circle8-0"
         cx="425.35892"
         cy="279.95468"
         r="35.849323" />
    </g>
  </g>
</svg>
